<svg width="16" height="16" viewBox="0 0 16 16" fill="none" xmlns="http://www.w3.org/2000/svg">
<g clip-path="url(#clip0_2268_425)">
<path d="M7.33335 10.0001V4.66675H8.66669V10.0001H7.33335Z" fill="#F28B00"/>
<path d="M7.33335 12.0001V10.6667H8.66669V12.0001H7.33335Z" fill="#F28B00"/>
<path d="M15.3334 8.00008C15.3334 12.0502 12.0501 15.3334 8.00002 15.3334C3.94993 15.3334 0.666687 12.0502 0.666687 8.00008C0.666687 3.94999 3.94993 0.666748 8.00002 0.666748C12.0501 0.666748 15.3334 3.94999 15.3334 8.00008ZM14 8.00008C14 4.68637 11.3137 2.00008 8.00002 2.00008C4.68631 2.00008 2.00002 4.68637 2.00002 8.00008C2.00002 11.3138 4.68631 14.0001 8.00002 14.0001C11.3137 14.0001 14 11.3138 14 8.00008Z" fill="#F28B00"/>
</g>
<defs>
<clipPath id="clip0_2268_425">
<rect width="16" height="16" fill="white"/>
</clipPath>
</defs>
</svg>
