<svg width="20" height="20" viewBox="0 0 20 20" fill="none" xmlns="http://www.w3.org/2000/svg">
<g clip-path="url(#clip0_2268_600)">
<rect width="18.2857" height="18.2857" transform="translate(0.857117 0.857117)" fill="#38B449"/>
<path d="M9.65686 1.03024C9.87266 0.921397 10.1273 0.921397 10.3431 1.03024L17.7941 4.78844C18.3525 5.07008 18.3525 5.86734 17.7941 6.14898L9.99998 10.0802L2.20583 6.14898C1.64745 5.86734 1.64745 5.07008 2.20583 4.78844L9.65686 1.03024Z" fill="white"/>
<path d="M3.59998 8.23562L2.20583 8.93881C1.64745 9.22045 1.64745 10.0177 2.20583 10.2994L9.99998 14.2306L17.7941 10.2994C18.3525 10.0177 18.3525 9.22045 17.7941 8.93881L16.4 8.23562L14.3558 9.2667L15.0542 9.61908L9.99998 12.1683L4.9449 9.61908L5.6438 9.2665L3.59998 8.23562Z" fill="white"/>
<path d="M3.59998 12.386L2.20583 13.0892C1.64745 13.3708 1.64745 14.1681 2.20583 14.4497L9.65686 18.2079C9.87266 18.3168 10.1273 18.3168 10.3431 18.2079L17.7941 14.4497C18.3525 14.1681 18.3525 13.3708 17.7941 13.0892L16.4 12.386L14.3558 13.4171L15.0542 13.7695L9.99998 16.3187L4.9449 13.7695L5.6438 13.4169L3.59998 12.386Z" fill="white"/>
</g>
<defs>
<clipPath id="clip0_2268_600">
<rect width="18.2857" height="18.2857" fill="white" transform="translate(0.857117 0.857117)"/>
</clipPath>
</defs>
</svg>
