<svg width="260" height="260" viewBox="0 0 260 260" fill="none" xmlns="http://www.w3.org/2000/svg">
<g filter="url(#filter0_ddd_2278_986)">
<rect width="240" height="240" transform="translate(10 2)" fill="#FFF9B1"/>
<path d="M35.5341 28.3636V40H33.7727V30.125H33.7045L30.9205 31.9432V30.2614L33.8239 28.3636H35.5341ZM45.0683 33.4034L43.5285 33.6761C43.4642 33.4792 43.3619 33.2917 43.2217 33.1136C43.0854 32.9356 42.8998 32.7898 42.6649 32.6761C42.4301 32.5625 42.1365 32.5057 41.7842 32.5057C41.3032 32.5057 40.9017 32.6136 40.5797 32.8295C40.2577 33.0417 40.0967 33.3163 40.0967 33.6534C40.0967 33.9451 40.2047 34.1799 40.4206 34.358C40.6365 34.536 40.985 34.6818 41.466 34.7955L42.8524 35.1136C43.6554 35.2992 44.2539 35.5852 44.6479 35.9716C45.0418 36.358 45.2388 36.8598 45.2388 37.4773C45.2388 38 45.0873 38.4659 44.7842 38.875C44.485 39.2803 44.0664 39.5985 43.5285 39.8295C42.9945 40.0606 42.3751 40.1761 41.6706 40.1761C40.6933 40.1761 39.896 39.9678 39.2785 39.5511C38.6611 39.1307 38.2823 38.5341 38.1422 37.7614L39.7842 37.5114C39.8865 37.9394 40.0967 38.2633 40.4149 38.483C40.7331 38.6989 41.1479 38.8068 41.6592 38.8068C42.216 38.8068 42.6611 38.6913 42.9945 38.4602C43.3278 38.2254 43.4945 37.9394 43.4945 37.6023C43.4945 37.3295 43.3922 37.1004 43.1876 36.9148C42.9869 36.7292 42.6782 36.589 42.2615 36.4943L40.7842 36.1705C39.9698 35.9848 39.3676 35.6894 38.9774 35.2841C38.591 34.8788 38.3979 34.3655 38.3979 33.7443C38.3979 33.2292 38.5418 32.7784 38.8297 32.392C39.1176 32.0057 39.5153 31.7045 40.0229 31.4886C40.5304 31.2689 41.1119 31.1591 41.7672 31.1591C42.7104 31.1591 43.4528 31.3636 43.9945 31.7727C44.5361 32.178 44.8941 32.7216 45.0683 33.4034ZM51.0045 31.2727V32.6364H46.2375V31.2727H51.0045ZM47.5159 29.1818H49.2148V37.4375C49.2148 37.767 49.264 38.0152 49.3625 38.1818C49.461 38.3447 49.5879 38.4564 49.7432 38.517C49.9023 38.5739 50.0746 38.6023 50.2602 38.6023C50.3966 38.6023 50.5159 38.5928 50.6182 38.5739C50.7204 38.5549 50.8 38.5398 50.8568 38.5284L51.1636 39.9318C51.0651 39.9697 50.925 40.0076 50.7432 40.0455C50.5614 40.0871 50.3341 40.1098 50.0614 40.1136C49.6144 40.1212 49.1977 40.0417 48.8114 39.875C48.425 39.7083 48.1125 39.4508 47.8739 39.1023C47.6352 38.7538 47.5159 38.3163 47.5159 37.7898V29.1818ZM60.4423 40.1761C59.6241 40.1761 58.9101 39.9886 58.3003 39.6136C57.6904 39.2386 57.2169 38.714 56.8798 38.0398C56.5427 37.3655 56.3741 36.5777 56.3741 35.6761C56.3741 34.7708 56.5427 33.9792 56.8798 33.3011C57.2169 32.6231 57.6904 32.0966 58.3003 31.7216C58.9101 31.3466 59.6241 31.1591 60.4423 31.1591C61.2605 31.1591 61.9745 31.3466 62.5844 31.7216C63.1942 32.0966 63.6677 32.6231 64.0048 33.3011C64.3419 33.9792 64.5105 34.7708 64.5105 35.6761C64.5105 36.5777 64.3419 37.3655 64.0048 38.0398C63.6677 38.714 63.1942 39.2386 62.5844 39.6136C61.9745 39.9886 61.2605 40.1761 60.4423 40.1761ZM60.448 38.75C60.9783 38.75 61.4177 38.6098 61.7662 38.3295C62.1147 38.0492 62.3722 37.6761 62.5389 37.2102C62.7094 36.7443 62.7946 36.2311 62.7946 35.6705C62.7946 35.1136 62.7094 34.6023 62.5389 34.1364C62.3722 33.6667 62.1147 33.2898 61.7662 33.0057C61.4177 32.7216 60.9783 32.5795 60.448 32.5795C59.9139 32.5795 59.4707 32.7216 59.1184 33.0057C58.77 33.2898 58.5105 33.6667 58.34 34.1364C58.1734 34.6023 58.09 35.1136 58.09 35.6705C58.09 36.2311 58.1734 36.7443 58.34 37.2102C58.5105 37.6761 58.77 38.0492 59.1184 38.3295C59.4707 38.6098 59.9139 38.75 60.448 38.75ZM70.3842 31.2727V32.6364H65.4524V31.2727H70.3842ZM66.8047 40V30.2614C66.8047 29.7159 66.924 29.2633 67.1626 28.9034C67.4012 28.5398 67.7175 28.2689 68.1115 28.0909C68.5054 27.9091 68.9334 27.8182 69.3956 27.8182C69.7365 27.8182 70.0281 27.8466 70.2706 27.9034C70.513 27.9564 70.6929 28.0057 70.8103 28.0511L70.4126 29.4261C70.3331 29.4034 70.2308 29.3769 70.1058 29.3466C69.9808 29.3125 69.8293 29.2955 69.6512 29.2955C69.2384 29.2955 68.9429 29.3977 68.7649 29.6023C68.5906 29.8068 68.5035 30.1023 68.5035 30.4886V40H66.8047ZM80.4115 28.3636V40H78.6501V30.125H78.5819L75.7978 31.9432V30.2614L78.7012 28.3636H80.4115ZM87.4343 40.1932C86.5366 40.1894 85.7696 39.9527 85.1332 39.483C84.4968 39.0133 84.0101 38.3295 83.673 37.4318C83.3358 36.5341 83.1673 35.4527 83.1673 34.1875C83.1673 32.9261 83.3358 31.8485 83.673 30.9545C84.0139 30.0606 84.5025 29.3788 85.1389 28.9091C85.779 28.4394 86.5442 28.2045 87.4343 28.2045C88.3245 28.2045 89.0877 28.4413 89.7241 28.9148C90.3605 29.3845 90.8472 30.0663 91.1843 30.9602C91.5252 31.8504 91.6957 32.9261 91.6957 34.1875C91.6957 35.4564 91.5271 36.5398 91.19 37.4375C90.8529 38.3314 90.3661 39.0152 89.7298 39.4886C89.0934 39.9583 88.3283 40.1932 87.4343 40.1932ZM87.4343 38.6761C88.2222 38.6761 88.8377 38.2917 89.2809 37.5227C89.7279 36.7538 89.9514 35.642 89.9514 34.1875C89.9514 33.2216 89.8491 32.4053 89.6446 31.7386C89.4438 31.0682 89.154 30.5606 88.7752 30.2159C88.4002 29.8674 87.9533 29.6932 87.4343 29.6932C86.6502 29.6932 86.0347 30.0795 85.5877 30.8523C85.1408 31.625 84.9154 32.7367 84.9116 34.1875C84.9116 35.1572 85.012 35.9773 85.2127 36.6477C85.4173 37.3144 85.7071 37.8201 86.0821 38.1648C86.4571 38.5057 86.9078 38.6761 87.4343 38.6761ZM104.156 33.4034L102.616 33.6761C102.552 33.4792 102.45 33.2917 102.31 33.1136C102.173 32.9356 101.988 32.7898 101.753 32.6761C101.518 32.5625 101.224 32.5057 100.872 32.5057C100.391 32.5057 99.9895 32.6136 99.6676 32.8295C99.3456 33.0417 99.1846 33.3163 99.1846 33.6534C99.1846 33.9451 99.2926 34.1799 99.5085 34.358C99.7244 34.536 100.073 34.6818 100.554 34.7955L101.94 35.1136C102.743 35.2992 103.342 35.5852 103.736 35.9716C104.13 36.358 104.327 36.8598 104.327 37.4773C104.327 38 104.175 38.4659 103.872 38.875C103.573 39.2803 103.154 39.5985 102.616 39.8295C102.082 40.0606 101.463 40.1761 100.758 40.1761C99.7812 40.1761 98.9838 39.9678 98.3664 39.5511C97.749 39.1307 97.3702 38.5341 97.2301 37.7614L98.8721 37.5114C98.9744 37.9394 99.1846 38.2633 99.5028 38.483C99.821 38.6989 100.236 38.8068 100.747 38.8068C101.304 38.8068 101.749 38.6913 102.082 38.4602C102.416 38.2254 102.582 37.9394 102.582 37.6023C102.582 37.3295 102.48 37.1004 102.276 36.9148C102.075 36.7292 101.766 36.589 101.349 36.4943L99.8721 36.1705C99.0577 35.9848 98.4554 35.6894 98.0653 35.2841C97.6789 34.8788 97.4857 34.3655 97.4857 33.7443C97.4857 33.2292 97.6297 32.7784 97.9176 32.392C98.2054 32.0057 98.6032 31.7045 99.1107 31.4886C99.6183 31.2689 100.2 31.1591 100.855 31.1591C101.798 31.1591 102.541 31.3636 103.082 31.7727C103.624 32.178 103.982 32.7216 104.156 33.4034ZM111.547 36.3807V31.2727H113.252V40H111.581V38.4886H111.49C111.289 38.9545 110.967 39.3428 110.524 39.6534C110.085 39.9602 109.537 40.1136 108.882 40.1136C108.322 40.1136 107.825 39.9905 107.394 39.7443C106.966 39.4943 106.628 39.125 106.382 38.6364C106.14 38.1477 106.019 37.5436 106.019 36.8239V31.2727H107.717V36.6193C107.717 37.214 107.882 37.6875 108.212 38.0398C108.541 38.392 108.969 38.5682 109.496 38.5682C109.814 38.5682 110.13 38.4886 110.445 38.3295C110.763 38.1705 111.026 37.9299 111.234 37.608C111.447 37.286 111.551 36.8769 111.547 36.3807ZM115.358 40V31.2727H116.989V32.6932H117.097C117.279 32.2121 117.576 31.8371 117.989 31.5682C118.402 31.2955 118.896 31.1591 119.472 31.1591C120.055 31.1591 120.544 31.2955 120.938 31.5682C121.335 31.8409 121.629 32.2159 121.818 32.6932H121.909C122.118 32.2273 122.449 31.8561 122.904 31.5795C123.358 31.2992 123.9 31.1591 124.529 31.1591C125.32 31.1591 125.966 31.4072 126.466 31.9034C126.97 32.3996 127.222 33.1477 127.222 34.1477V40H125.523V34.3068C125.523 33.7159 125.362 33.2879 125.04 33.0227C124.718 32.7576 124.334 32.625 123.887 32.625C123.334 32.625 122.904 32.7955 122.597 33.1364C122.29 33.4735 122.137 33.9072 122.137 34.4375V40H120.443V34.1989C120.443 33.7254 120.296 33.3447 120 33.0568C119.705 32.7689 119.32 32.625 118.847 32.625C118.525 32.625 118.227 32.7102 117.955 32.8807C117.686 33.0473 117.468 33.2803 117.301 33.5795C117.138 33.8788 117.057 34.2254 117.057 34.6193V40H115.358ZM129.323 40V31.2727H130.953V32.6932H131.061C131.243 32.2121 131.541 31.8371 131.953 31.5682C132.366 31.2955 132.861 31.1591 133.436 31.1591C134.02 31.1591 134.508 31.2955 134.902 31.5682C135.3 31.8409 135.594 32.2159 135.783 32.6932H135.874C136.082 32.2273 136.414 31.8561 136.868 31.5795C137.323 31.2992 137.864 31.1591 138.493 31.1591C139.285 31.1591 139.931 31.4072 140.431 31.9034C140.935 32.3996 141.186 33.1477 141.186 34.1477V40H139.488V34.3068C139.488 33.7159 139.327 33.2879 139.005 33.0227C138.683 32.7576 138.298 32.625 137.851 32.625C137.298 32.625 136.868 32.7955 136.561 33.1364C136.255 33.4735 136.101 33.9072 136.101 34.4375V40H134.408V34.1989C134.408 33.7254 134.26 33.3447 133.965 33.0568C133.669 32.7689 133.285 32.625 132.811 32.625C132.489 32.625 132.192 32.7102 131.919 32.8807C131.65 33.0473 131.433 33.2803 131.266 33.5795C131.103 33.8788 131.022 34.2254 131.022 34.6193V40H129.323ZM145.827 40.1932C145.274 40.1932 144.774 40.0909 144.327 39.8864C143.88 39.678 143.526 39.3769 143.265 38.983C143.007 38.589 142.878 38.1061 142.878 37.5341C142.878 37.0417 142.973 36.6364 143.162 36.3182C143.352 36 143.607 35.7481 143.929 35.5625C144.251 35.3769 144.611 35.2367 145.009 35.142C145.407 35.0473 145.812 34.9754 146.225 34.9261C146.748 34.8655 147.172 34.8163 147.498 34.7784C147.823 34.7367 148.06 34.6705 148.208 34.5795C148.356 34.4886 148.429 34.3409 148.429 34.1364V34.0966C148.429 33.6004 148.289 33.2159 148.009 32.9432C147.732 32.6705 147.32 32.5341 146.77 32.5341C146.198 32.5341 145.748 32.661 145.418 32.9148C145.092 33.1648 144.867 33.4432 144.742 33.75L143.145 33.3864C143.335 32.8561 143.611 32.428 143.975 32.1023C144.342 31.7727 144.765 31.5341 145.242 31.3864C145.719 31.2348 146.221 31.1591 146.748 31.1591C147.096 31.1591 147.465 31.2008 147.856 31.2841C148.25 31.3636 148.617 31.5114 148.958 31.7273C149.303 31.9432 149.585 32.2519 149.804 32.6534C150.024 33.0511 150.134 33.5682 150.134 34.2045V40H148.475V38.8068H148.407C148.297 39.0265 148.132 39.2424 147.912 39.4545C147.693 39.6667 147.411 39.8428 147.066 39.983C146.721 40.1231 146.308 40.1932 145.827 40.1932ZM146.197 38.8295C146.666 38.8295 147.068 38.7367 147.401 38.5511C147.738 38.3655 147.994 38.1231 148.168 37.8239C148.346 37.5208 148.435 37.197 148.435 36.8523V35.7273C148.375 35.7879 148.257 35.8447 148.083 35.8977C147.912 35.947 147.717 35.9905 147.498 36.0284C147.278 36.0625 147.064 36.0947 146.856 36.125C146.647 36.1515 146.473 36.1742 146.333 36.1932C146.003 36.2348 145.702 36.3049 145.429 36.4034C145.161 36.5019 144.945 36.6439 144.782 36.8295C144.623 37.0114 144.543 37.2538 144.543 37.5568C144.543 37.9773 144.698 38.2955 145.009 38.5114C145.32 38.7235 145.715 38.8295 146.197 38.8295ZM156.295 31.2727V32.6364H151.528V31.2727H156.295ZM152.806 29.1818H154.505V37.4375C154.505 37.767 154.554 38.0152 154.653 38.1818C154.751 38.3447 154.878 38.4564 155.033 38.517C155.192 38.5739 155.365 38.6023 155.55 38.6023C155.687 38.6023 155.806 38.5928 155.908 38.5739C156.011 38.5549 156.09 38.5398 156.147 38.5284L156.454 39.9318C156.355 39.9697 156.215 40.0076 156.033 40.0455C155.851 40.0871 155.624 40.1098 155.351 40.1136C154.905 40.1212 154.488 40.0417 154.101 39.875C153.715 39.7083 153.403 39.4508 153.164 39.1023C152.925 38.7538 152.806 38.3163 152.806 37.7898V29.1818ZM157.998 40V31.2727H159.697V40H157.998ZM158.856 29.9261C158.56 29.9261 158.307 29.8277 158.095 29.6307C157.886 29.4299 157.782 29.1913 157.782 28.9148C157.782 28.6345 157.886 28.3958 158.095 28.1989C158.307 27.9981 158.56 27.8977 158.856 27.8977C159.151 27.8977 159.403 27.9981 159.612 28.1989C159.824 28.3958 159.93 28.6345 159.93 28.9148C159.93 29.1913 159.824 29.4299 159.612 29.6307C159.403 29.8277 159.151 29.9261 158.856 29.9261ZM169.272 31.2727L166.107 40H164.289L161.119 31.2727H162.943L165.153 37.9886H165.244L167.448 31.2727H169.272ZM174.157 40.1761C173.297 40.1761 172.557 39.9924 171.936 39.625C171.318 39.2538 170.841 38.733 170.504 38.0625C170.171 37.3883 170.004 36.5985 170.004 35.6932C170.004 34.7992 170.171 34.0114 170.504 33.3295C170.841 32.6477 171.311 32.1155 171.913 31.733C172.519 31.3504 173.227 31.1591 174.038 31.1591C174.53 31.1591 175.008 31.2405 175.47 31.4034C175.932 31.5663 176.347 31.822 176.714 32.1705C177.082 32.5189 177.371 32.9716 177.583 33.5284C177.796 34.0814 177.902 34.7538 177.902 35.5455V36.1477H170.964V34.875H176.237C176.237 34.428 176.146 34.0322 175.964 33.6875C175.782 33.339 175.527 33.0644 175.197 32.8636C174.871 32.6629 174.489 32.5625 174.049 32.5625C173.572 32.5625 173.155 32.6799 172.799 32.9148C172.447 33.1458 172.174 33.4489 171.981 33.8239C171.792 34.1951 171.697 34.5985 171.697 35.0341V36.0284C171.697 36.6117 171.799 37.108 172.004 37.517C172.212 37.9261 172.502 38.2386 172.873 38.4545C173.244 38.6667 173.678 38.7727 174.174 38.7727C174.496 38.7727 174.79 38.7273 175.055 38.6364C175.32 38.5417 175.549 38.4015 175.743 38.2159C175.936 38.0303 176.083 37.8011 176.186 37.5284L177.794 37.8182C177.665 38.2917 177.434 38.7064 177.1 39.0625C176.771 39.4148 176.356 39.6894 175.856 39.8864C175.36 40.0795 174.794 40.1761 174.157 40.1761ZM33.6818 64.1932C33.1288 64.1932 32.6288 64.0909 32.1818 63.8864C31.7348 63.678 31.3807 63.3769 31.1193 62.983C30.8617 62.589 30.733 62.1061 30.733 61.5341C30.733 61.0417 30.8277 60.6364 31.017 60.3182C31.2064 60 31.4621 59.7481 31.7841 59.5625C32.1061 59.3769 32.4659 59.2367 32.8636 59.142C33.2614 59.0473 33.6667 58.9754 34.0795 58.9261C34.6023 58.8655 35.0265 58.8163 35.3523 58.7784C35.678 58.7367 35.9148 58.6705 36.0625 58.5795C36.2102 58.4886 36.2841 58.3409 36.2841 58.1364V58.0966C36.2841 57.6004 36.1439 57.2159 35.8636 56.9432C35.5871 56.6705 35.1742 56.5341 34.625 56.5341C34.053 56.5341 33.6023 56.661 33.2727 56.9148C32.947 57.1648 32.7216 57.4432 32.5966 57.75L31 57.3864C31.1894 56.8561 31.4659 56.428 31.8295 56.1023C32.197 55.7727 32.6193 55.5341 33.0966 55.3864C33.5739 55.2348 34.0758 55.1591 34.6023 55.1591C34.9508 55.1591 35.3201 55.2008 35.7102 55.2841C36.1042 55.3636 36.4716 55.5114 36.8125 55.7273C37.1572 55.9432 37.4394 56.2519 37.6591 56.6534C37.8788 57.0511 37.9886 57.5682 37.9886 58.2045V64H36.3295V62.8068H36.2614C36.1515 63.0265 35.9867 63.2424 35.767 63.4545C35.5473 63.6667 35.2652 63.8428 34.9205 63.983C34.5758 64.1231 34.1629 64.1932 33.6818 64.1932ZM34.0511 62.8295C34.5208 62.8295 34.9223 62.7367 35.2557 62.5511C35.5928 62.3655 35.8485 62.1231 36.0227 61.8239C36.2008 61.5208 36.2898 61.197 36.2898 60.8523V59.7273C36.2292 59.7879 36.1117 59.8447 35.9375 59.8977C35.767 59.947 35.572 59.9905 35.3523 60.0284C35.1326 60.0625 34.9186 60.0947 34.7102 60.125C34.5019 60.1515 34.3277 60.1742 34.1875 60.1932C33.858 60.2348 33.5568 60.3049 33.2841 60.4034C33.0152 60.5019 32.7992 60.6439 32.6364 60.8295C32.4773 61.0114 32.3977 61.2538 32.3977 61.5568C32.3977 61.9773 32.553 62.2955 32.8636 62.5114C33.1742 62.7235 33.5701 62.8295 34.0511 62.8295ZM46.6152 57.4034L45.0754 57.6761C45.011 57.4792 44.9088 57.2917 44.7686 57.1136C44.6322 56.9356 44.4466 56.7898 44.2118 56.6761C43.9769 56.5625 43.6834 56.5057 43.3311 56.5057C42.85 56.5057 42.4485 56.6136 42.1266 56.8295C41.8046 57.0417 41.6436 57.3163 41.6436 57.6534C41.6436 57.9451 41.7516 58.1799 41.9675 58.358C42.1834 58.536 42.5319 58.6818 43.0129 58.7955L44.3993 59.1136C45.2023 59.2992 45.8008 59.5852 46.1947 59.9716C46.5887 60.358 46.7856 60.8598 46.7856 61.4773C46.7856 62 46.6341 62.4659 46.3311 62.875C46.0319 63.2803 45.6133 63.5985 45.0754 63.8295C44.5413 64.0606 43.922 64.1761 43.2175 64.1761C42.2402 64.1761 41.4428 63.9678 40.8254 63.5511C40.208 63.1307 39.8292 62.5341 39.6891 61.7614L41.3311 61.5114C41.4334 61.9394 41.6436 62.2633 41.9618 62.483C42.28 62.6989 42.6947 62.8068 43.2061 62.8068C43.7629 62.8068 44.208 62.6913 44.5413 62.4602C44.8747 62.2254 45.0413 61.9394 45.0413 61.6023C45.0413 61.3295 44.9391 61.1004 44.7345 60.9148C44.5338 60.7292 44.225 60.589 43.8084 60.4943L42.3311 60.1705C41.5167 59.9848 40.9144 59.6894 40.5243 59.2841C40.1379 58.8788 39.9447 58.3655 39.9447 57.7443C39.9447 57.2292 40.0887 56.7784 40.3766 56.392C40.6644 56.0057 41.0622 55.7045 41.5697 55.4886C42.0773 55.2689 42.6588 55.1591 43.3141 55.1591C44.2572 55.1591 44.9997 55.3636 45.5413 55.7727C46.083 56.178 46.441 56.7216 46.6152 57.4034ZM55.0173 57.4034L53.4775 57.6761C53.4132 57.4792 53.3109 57.2917 53.1707 57.1136C53.0344 56.9356 52.8488 56.7898 52.6139 56.6761C52.3791 56.5625 52.0855 56.5057 51.7332 56.5057C51.2522 56.5057 50.8507 56.6136 50.5287 56.8295C50.2067 57.0417 50.0457 57.3163 50.0457 57.6534C50.0457 57.9451 50.1537 58.1799 50.3696 58.358C50.5855 58.536 50.934 58.6818 51.415 58.7955L52.8014 59.1136C53.6044 59.2992 54.2029 59.5852 54.5969 59.9716C54.9908 60.358 55.1878 60.8598 55.1878 61.4773C55.1878 62 55.0363 62.4659 54.7332 62.875C54.434 63.2803 54.0154 63.5985 53.4775 63.8295C52.9435 64.0606 52.3241 64.1761 51.6196 64.1761C50.6423 64.1761 49.845 63.9678 49.2275 63.5511C48.6101 63.1307 48.2313 62.5341 48.0912 61.7614L49.7332 61.5114C49.8355 61.9394 50.0457 62.2633 50.3639 62.483C50.6821 62.6989 51.0969 62.8068 51.6082 62.8068C52.165 62.8068 52.6101 62.6913 52.9435 62.4602C53.2768 62.2254 53.4435 61.9394 53.4435 61.6023C53.4435 61.3295 53.3412 61.1004 53.1366 60.9148C52.9359 60.7292 52.6272 60.589 52.2105 60.4943L50.7332 60.1705C49.9188 59.9848 49.3166 59.6894 48.9264 59.2841C48.54 58.8788 48.3469 58.3655 48.3469 57.7443C48.3469 57.2292 48.4908 56.7784 48.7787 56.392C49.0666 56.0057 49.4643 55.7045 49.9719 55.4886C50.4794 55.2689 51.0609 55.1591 51.7162 55.1591C52.6594 55.1591 53.4018 55.3636 53.9435 55.7727C54.4851 56.178 54.8431 56.7216 55.0173 57.4034ZM60.641 64.1761C59.7812 64.1761 59.0407 63.9924 58.4194 63.625C57.802 63.2538 57.3247 62.733 56.9876 62.0625C56.6543 61.3883 56.4876 60.5985 56.4876 59.6932C56.4876 58.7992 56.6543 58.0114 56.9876 57.3295C57.3247 56.6477 57.7944 56.1155 58.3967 55.733C59.0028 55.3504 59.7111 55.1591 60.5217 55.1591C61.0141 55.1591 61.4914 55.2405 61.9535 55.4034C62.4157 55.5663 62.8304 55.822 63.1979 56.1705C63.5653 56.5189 63.855 56.9716 64.0672 57.5284C64.2793 58.0814 64.3854 58.7538 64.3854 59.5455V60.1477H57.4479V58.875H62.7206C62.7206 58.428 62.6297 58.0322 62.4479 57.6875C62.266 57.339 62.0104 57.0644 61.6808 56.8636C61.355 56.6629 60.9725 56.5625 60.5331 56.5625C60.0558 56.5625 59.6391 56.6799 59.2831 56.9148C58.9308 57.1458 58.6581 57.4489 58.4649 57.8239C58.2755 58.1951 58.1808 58.5985 58.1808 59.0341V60.0284C58.1808 60.6117 58.2831 61.108 58.4876 61.517C58.696 61.9261 58.9857 62.2386 59.3569 62.4545C59.7282 62.6667 60.1619 62.7727 60.6581 62.7727C60.98 62.7727 61.2736 62.7273 61.5388 62.6364C61.8039 62.5417 62.0331 62.4015 62.2263 62.2159C62.4194 62.0303 62.5672 61.8011 62.6694 61.5284L64.2774 61.8182C64.1486 62.2917 63.9175 62.7064 63.5842 63.0625C63.2547 63.4148 62.8399 63.6894 62.3399 63.8864C61.8437 64.0795 61.2774 64.1761 60.641 64.1761ZM72.6341 57.4034L71.0943 57.6761C71.0299 57.4792 70.9276 57.2917 70.7875 57.1136C70.6511 56.9356 70.4655 56.7898 70.2307 56.6761C69.9958 56.5625 69.7023 56.5057 69.35 56.5057C68.8689 56.5057 68.4674 56.6136 68.1454 56.8295C67.8235 57.0417 67.6625 57.3163 67.6625 57.6534C67.6625 57.9451 67.7704 58.1799 67.9863 58.358C68.2023 58.536 68.5507 58.6818 69.0318 58.7955L70.4182 59.1136C71.2212 59.2992 71.8197 59.5852 72.2136 59.9716C72.6076 60.358 72.8045 60.8598 72.8045 61.4773C72.8045 62 72.653 62.4659 72.35 62.875C72.0507 63.2803 71.6322 63.5985 71.0943 63.8295C70.5602 64.0606 69.9409 64.1761 69.2363 64.1761C68.2591 64.1761 67.4617 63.9678 66.8443 63.5511C66.2269 63.1307 65.8481 62.5341 65.7079 61.7614L67.35 61.5114C67.4523 61.9394 67.6625 62.2633 67.9807 62.483C68.2988 62.6989 68.7136 62.8068 69.225 62.8068C69.7818 62.8068 70.2269 62.6913 70.5602 62.4602C70.8935 62.2254 71.0602 61.9394 71.0602 61.6023C71.0602 61.3295 70.9579 61.1004 70.7534 60.9148C70.5526 60.7292 70.2439 60.589 69.8273 60.4943L68.35 60.1705C67.5356 59.9848 66.9333 59.6894 66.5432 59.2841C66.1568 58.8788 65.9636 58.3655 65.9636 57.7443C65.9636 57.2292 66.1076 56.7784 66.3954 56.392C66.6833 56.0057 67.081 55.7045 67.5886 55.4886C68.0962 55.2689 68.6776 55.1591 69.3329 55.1591C70.2761 55.1591 71.0185 55.3636 71.5602 55.7727C72.1019 56.178 72.4598 56.7216 72.6341 57.4034ZM81.0362 57.4034L79.4964 57.6761C79.432 57.4792 79.3298 57.2917 79.1896 57.1136C79.0532 56.9356 78.8676 56.7898 78.6328 56.6761C78.3979 56.5625 78.1044 56.5057 77.7521 56.5057C77.271 56.5057 76.8695 56.6136 76.5476 56.8295C76.2256 57.0417 76.0646 57.3163 76.0646 57.6534C76.0646 57.9451 76.1726 58.1799 76.3885 58.358C76.6044 58.536 76.9529 58.6818 77.4339 58.7955L78.8203 59.1136C79.6233 59.2992 80.2218 59.5852 80.6157 59.9716C81.0097 60.358 81.2066 60.8598 81.2066 61.4773C81.2066 62 81.0551 62.4659 80.7521 62.875C80.4529 63.2803 80.0343 63.5985 79.4964 63.8295C78.9623 64.0606 78.343 64.1761 77.6385 64.1761C76.6612 64.1761 75.8638 63.9678 75.2464 63.5511C74.629 63.1307 74.2502 62.5341 74.1101 61.7614L75.7521 61.5114C75.8544 61.9394 76.0646 62.2633 76.3828 62.483C76.701 62.6989 77.1157 62.8068 77.6271 62.8068C78.1839 62.8068 78.629 62.6913 78.9623 62.4602C79.2957 62.2254 79.4623 61.9394 79.4623 61.6023C79.4623 61.3295 79.3601 61.1004 79.1555 60.9148C78.9548 60.7292 78.646 60.589 78.2294 60.4943L76.7521 60.1705C75.9377 59.9848 75.3354 59.6894 74.9453 59.2841C74.5589 58.8788 74.3657 58.3655 74.3657 57.7443C74.3657 57.2292 74.5097 56.7784 74.7976 56.392C75.0854 56.0057 75.4832 55.7045 75.9907 55.4886C76.4983 55.2689 77.0798 55.1591 77.7351 55.1591C78.6782 55.1591 79.4207 55.3636 79.9623 55.7727C80.504 56.178 80.862 56.7216 81.0362 57.4034ZM82.8985 64V55.2727H84.5292V56.6932H84.6372C84.819 56.2121 85.1163 55.8371 85.5292 55.5682C85.9421 55.2955 86.4364 55.1591 87.0122 55.1591C87.5955 55.1591 88.0842 55.2955 88.4781 55.5682C88.8758 55.8409 89.1694 56.2159 89.3588 56.6932H89.4497C89.658 56.2273 89.9895 55.8561 90.444 55.5795C90.8985 55.2992 91.4402 55.1591 92.069 55.1591C92.8607 55.1591 93.5065 55.4072 94.0065 55.9034C94.5103 56.3996 94.7622 57.1477 94.7622 58.1477V64H93.0633V58.3068C93.0633 57.7159 92.9023 57.2879 92.5804 57.0227C92.2584 56.7576 91.8739 56.625 91.427 56.625C90.8739 56.625 90.444 56.7955 90.1372 57.1364C89.8304 57.4735 89.677 57.9072 89.677 58.4375V64H87.9838V58.1989C87.9838 57.7254 87.836 57.3447 87.5406 57.0568C87.2451 56.7689 86.8607 56.625 86.3872 56.625C86.0652 56.625 85.7679 56.7102 85.4951 56.8807C85.2262 57.0473 85.0084 57.2803 84.8417 57.5795C84.6788 57.8788 84.5974 58.2254 84.5974 58.6193V64H82.8985ZM100.625 64.1761C99.7647 64.1761 99.0242 63.9924 98.4029 63.625C97.7855 63.2538 97.3082 62.733 96.9711 62.0625C96.6378 61.3883 96.4711 60.5985 96.4711 59.6932C96.4711 58.7992 96.6378 58.0114 96.9711 57.3295C97.3082 56.6477 97.7779 56.1155 98.3802 55.733C98.9863 55.3504 99.6946 55.1591 100.505 55.1591C100.998 55.1591 101.475 55.2405 101.937 55.4034C102.399 55.5663 102.814 55.822 103.181 56.1705C103.549 56.5189 103.839 56.9716 104.051 57.5284C104.263 58.0814 104.369 58.7538 104.369 59.5455V60.1477H97.4314V58.875H102.704C102.704 58.428 102.613 58.0322 102.431 57.6875C102.25 57.339 101.994 57.0644 101.664 56.8636C101.339 56.6629 100.956 56.5625 100.517 56.5625C100.039 56.5625 99.6226 56.6799 99.2666 56.9148C98.9143 57.1458 98.6416 57.4489 98.4484 57.8239C98.259 58.1951 98.1643 58.5985 98.1643 59.0341V60.0284C98.1643 60.6117 98.2666 61.108 98.4711 61.517C98.6795 61.9261 98.9692 62.2386 99.3404 62.4545C99.7117 62.6667 100.145 62.7727 100.642 62.7727C100.964 62.7727 101.257 62.7273 101.522 62.6364C101.787 62.5417 102.017 62.4015 102.21 62.2159C102.403 62.0303 102.551 61.8011 102.653 61.5284L104.261 61.8182C104.132 62.2917 103.901 62.7064 103.568 63.0625C103.238 63.4148 102.823 63.6894 102.323 63.8864C101.827 64.0795 101.261 64.1761 100.625 64.1761ZM107.777 58.8182V64H106.078V55.2727H107.708V56.6932H107.816C108.017 56.2311 108.332 55.8598 108.76 55.5795C109.191 55.2992 109.735 55.1591 110.39 55.1591C110.985 55.1591 111.506 55.2841 111.953 55.5341C112.4 55.7803 112.746 56.1477 112.993 56.6364C113.239 57.125 113.362 57.7292 113.362 58.4489V64H111.663V58.6534C111.663 58.0208 111.498 57.5265 111.169 57.1705C110.839 56.8106 110.387 56.6307 109.811 56.6307C109.417 56.6307 109.066 56.7159 108.76 56.8864C108.457 57.0568 108.216 57.3068 108.038 57.6364C107.864 57.9621 107.777 58.3561 107.777 58.8182ZM119.538 55.2727V56.6364H114.771V55.2727H119.538ZM116.05 53.1818H117.748V61.4375C117.748 61.767 117.798 62.0152 117.896 62.1818C117.995 62.3447 118.121 62.4564 118.277 62.517C118.436 62.5739 118.608 62.6023 118.794 62.6023C118.93 62.6023 119.05 62.5928 119.152 62.5739C119.254 62.5549 119.334 62.5398 119.39 62.5284L119.697 63.9318C119.599 63.9697 119.459 64.0076 119.277 64.0455C119.095 64.0871 118.868 64.1098 118.595 64.1136C118.148 64.1212 117.731 64.0417 117.345 63.875C116.959 63.7083 116.646 63.4508 116.407 63.1023C116.169 62.7538 116.05 62.3163 116.05 61.7898V53.1818ZM131.192 67.2727V62.642H131.09C130.987 62.8277 130.84 63.0398 130.646 63.2784C130.457 63.517 130.196 63.7254 129.862 63.9034C129.529 64.0814 129.097 64.1705 128.567 64.1705C127.862 64.1705 127.234 63.9905 126.68 63.6307C126.131 63.267 125.699 62.75 125.385 62.0795C125.074 61.4053 124.919 60.5966 124.919 59.6534C124.919 58.7102 125.076 57.9034 125.391 57.233C125.709 56.5625 126.144 56.0492 126.698 55.6932C127.251 55.3371 127.877 55.1591 128.578 55.1591C129.12 55.1591 129.555 55.25 129.885 55.4318C130.218 55.6098 130.476 55.8182 130.658 56.0568C130.843 56.2955 130.987 56.5057 131.09 56.6875H131.232V55.2727H132.891V67.2727H131.192ZM128.942 62.7216C129.43 62.7216 129.843 62.5928 130.18 62.3352C130.521 62.0739 130.779 61.7121 130.953 61.25C131.131 60.7879 131.22 60.25 131.22 59.6364C131.22 59.0303 131.133 58.5 130.959 58.0455C130.785 57.5909 130.529 57.2367 130.192 56.983C129.855 56.7292 129.438 56.6023 128.942 56.6023C128.43 56.6023 128.004 56.7348 127.663 57C127.323 57.2652 127.065 57.6269 126.891 58.0852C126.72 58.5436 126.635 59.0606 126.635 59.6364C126.635 60.2197 126.722 60.7443 126.896 61.2102C127.071 61.6761 127.328 62.0455 127.669 62.3182C128.014 62.5871 128.438 62.7216 128.942 62.7216ZM140.527 60.3807V55.2727H142.232V64H140.561V62.4886H140.47C140.27 62.9545 139.948 63.3428 139.504 63.6534C139.065 63.9602 138.518 64.1136 137.862 64.1136C137.302 64.1136 136.806 63.9905 136.374 63.7443C135.946 63.4943 135.609 63.125 135.362 62.6364C135.12 62.1477 134.999 61.5436 134.999 60.8239V55.2727H136.698V60.6193C136.698 61.214 136.862 61.6875 137.192 62.0398C137.522 62.392 137.95 62.5682 138.476 62.5682C138.794 62.5682 139.111 62.4886 139.425 62.3295C139.743 62.1705 140.006 61.9299 140.215 61.608C140.427 61.286 140.531 60.8769 140.527 60.3807ZM148.1 64.1761C147.24 64.1761 146.499 63.9924 145.878 63.625C145.261 63.2538 144.783 62.733 144.446 62.0625C144.113 61.3883 143.946 60.5985 143.946 59.6932C143.946 58.7992 144.113 58.0114 144.446 57.3295C144.783 56.6477 145.253 56.1155 145.855 55.733C146.462 55.3504 147.17 55.1591 147.98 55.1591C148.473 55.1591 148.95 55.2405 149.412 55.4034C149.874 55.5663 150.289 55.822 150.657 56.1705C151.024 56.5189 151.314 56.9716 151.526 57.5284C151.738 58.0814 151.844 58.7538 151.844 59.5455V60.1477H144.907V58.875H150.179C150.179 58.428 150.088 58.0322 149.907 57.6875C149.725 57.339 149.469 57.0644 149.14 56.8636C148.814 56.6629 148.431 56.5625 147.992 56.5625C147.515 56.5625 147.098 56.6799 146.742 56.9148C146.39 57.1458 146.117 57.4489 145.924 57.8239C145.734 58.1951 145.64 58.5985 145.64 59.0341V60.0284C145.64 60.6117 145.742 61.108 145.946 61.517C146.155 61.9261 146.444 62.2386 146.816 62.4545C147.187 62.6667 147.621 62.7727 148.117 62.7727C148.439 62.7727 148.732 62.7273 148.998 62.6364C149.263 62.5417 149.492 62.4015 149.685 62.2159C149.878 62.0303 150.026 61.8011 150.128 61.5284L151.736 61.8182C151.607 62.2917 151.376 62.7064 151.043 63.0625C150.713 63.4148 150.299 63.6894 149.799 63.8864C149.302 64.0795 148.736 64.1761 148.1 64.1761ZM160.093 57.4034L158.553 57.6761C158.489 57.4792 158.386 57.2917 158.246 57.1136C158.11 56.9356 157.924 56.7898 157.689 56.6761C157.455 56.5625 157.161 56.5057 156.809 56.5057C156.328 56.5057 155.926 56.6136 155.604 56.8295C155.282 57.0417 155.121 57.3163 155.121 57.6534C155.121 57.9451 155.229 58.1799 155.445 58.358C155.661 58.536 156.009 58.6818 156.491 58.7955L157.877 59.1136C158.68 59.2992 159.278 59.5852 159.672 59.9716C160.066 60.358 160.263 60.8598 160.263 61.4773C160.263 62 160.112 62.4659 159.809 62.875C159.509 63.2803 159.091 63.5985 158.553 63.8295C158.019 64.0606 157.4 64.1761 156.695 64.1761C155.718 64.1761 154.92 63.9678 154.303 63.5511C153.686 63.1307 153.307 62.5341 153.167 61.7614L154.809 61.5114C154.911 61.9394 155.121 62.2633 155.439 62.483C155.758 62.6989 156.172 62.8068 156.684 62.8068C157.241 62.8068 157.686 62.6913 158.019 62.4602C158.352 62.2254 158.519 61.9394 158.519 61.6023C158.519 61.3295 158.417 61.1004 158.212 60.9148C158.011 60.7292 157.703 60.589 157.286 60.4943L155.809 60.1705C154.994 59.9848 154.392 59.6894 154.002 59.2841C153.616 58.8788 153.422 58.3655 153.422 57.7443C153.422 57.2292 153.566 56.7784 153.854 56.392C154.142 56.0057 154.54 55.7045 155.047 55.4886C155.555 55.2689 156.136 55.1591 156.792 55.1591C157.735 55.1591 158.477 55.3636 159.019 55.7727C159.561 56.178 159.919 56.7216 160.093 57.4034ZM166.029 55.2727V56.6364H161.262V55.2727H166.029ZM162.54 53.1818H164.239V61.4375C164.239 61.767 164.289 62.0152 164.387 62.1818C164.485 62.3447 164.612 62.4564 164.768 62.517C164.927 62.5739 165.099 62.6023 165.285 62.6023C165.421 62.6023 165.54 62.5928 165.643 62.5739C165.745 62.5549 165.824 62.5398 165.881 62.5284L166.188 63.9318C166.09 63.9697 165.949 64.0076 165.768 64.0455C165.586 64.0871 165.359 64.1098 165.086 64.1136C164.639 64.1212 164.222 64.0417 163.836 63.875C163.449 63.7083 163.137 63.4508 162.898 63.1023C162.66 62.7538 162.54 62.3163 162.54 61.7898V53.1818ZM167.732 64V55.2727H169.431V64H167.732ZM168.59 53.9261C168.295 53.9261 168.041 53.8277 167.829 53.6307C167.621 53.4299 167.516 53.1913 167.516 52.9148C167.516 52.6345 167.621 52.3958 167.829 52.1989C168.041 51.9981 168.295 51.8977 168.59 51.8977C168.886 51.8977 169.138 51.9981 169.346 52.1989C169.558 52.3958 169.664 52.6345 169.664 52.9148C169.664 53.1913 169.558 53.4299 169.346 53.6307C169.138 53.8277 168.886 53.9261 168.59 53.9261ZM175.217 64.1761C174.399 64.1761 173.685 63.9886 173.075 63.6136C172.465 63.2386 171.991 62.714 171.654 62.0398C171.317 61.3655 171.149 60.5777 171.149 59.6761C171.149 58.7708 171.317 57.9792 171.654 57.3011C171.991 56.6231 172.465 56.0966 173.075 55.7216C173.685 55.3466 174.399 55.1591 175.217 55.1591C176.035 55.1591 176.749 55.3466 177.359 55.7216C177.969 56.0966 178.442 56.6231 178.779 57.3011C179.116 57.9792 179.285 58.7708 179.285 59.6761C179.285 60.5777 179.116 61.3655 178.779 62.0398C178.442 62.714 177.969 63.2386 177.359 63.6136C176.749 63.9886 176.035 64.1761 175.217 64.1761ZM175.222 62.75C175.753 62.75 176.192 62.6098 176.541 62.3295C176.889 62.0492 177.147 61.6761 177.313 61.2102C177.484 60.7443 177.569 60.2311 177.569 59.6705C177.569 59.1136 177.484 58.6023 177.313 58.1364C177.147 57.6667 176.889 57.2898 176.541 57.0057C176.192 56.7216 175.753 56.5795 175.222 56.5795C174.688 56.5795 174.245 56.7216 173.893 57.0057C173.544 57.2898 173.285 57.6667 173.115 58.1364C172.948 58.6023 172.865 59.1136 172.865 59.6705C172.865 60.2311 172.948 60.7443 173.115 61.2102C173.285 61.6761 173.544 62.0492 173.893 62.3295C174.245 62.6098 174.688 62.75 175.222 62.75ZM182.704 58.8182V64H181.005V55.2727H182.636V56.6932H182.744C182.945 56.2311 183.259 55.8598 183.687 55.5795C184.119 55.2992 184.662 55.1591 185.318 55.1591C185.912 55.1591 186.433 55.2841 186.88 55.5341C187.327 55.7803 187.674 56.1477 187.92 56.6364C188.166 57.125 188.289 57.7292 188.289 58.4489V64H186.591V58.6534C186.591 58.0208 186.426 57.5265 186.096 57.1705C185.767 56.8106 185.314 56.6307 184.738 56.6307C184.344 56.6307 183.994 56.7159 183.687 56.8864C183.384 57.0568 183.144 57.3068 182.966 57.6364C182.791 57.9621 182.704 58.3561 182.704 58.8182ZM196.932 57.4034L195.392 57.6761C195.327 57.4792 195.225 57.2917 195.085 57.1136C194.949 56.9356 194.763 56.7898 194.528 56.6761C194.293 56.5625 194 56.5057 193.647 56.5057C193.166 56.5057 192.765 56.6136 192.443 56.8295C192.121 57.0417 191.96 57.3163 191.96 57.6534C191.96 57.9451 192.068 58.1799 192.284 58.358C192.5 58.536 192.848 58.6818 193.329 58.7955L194.716 59.1136C195.519 59.2992 196.117 59.5852 196.511 59.9716C196.905 60.358 197.102 60.8598 197.102 61.4773C197.102 62 196.951 62.4659 196.647 62.875C196.348 63.2803 195.93 63.5985 195.392 63.8295C194.858 64.0606 194.238 64.1761 193.534 64.1761C192.557 64.1761 191.759 63.9678 191.142 63.5511C190.524 63.1307 190.146 62.5341 190.005 61.7614L191.647 61.5114C191.75 61.9394 191.96 62.2633 192.278 62.483C192.596 62.6989 193.011 62.8068 193.522 62.8068C194.079 62.8068 194.524 62.6913 194.858 62.4602C195.191 62.2254 195.358 61.9394 195.358 61.6023C195.358 61.3295 195.255 61.1004 195.051 60.9148C194.85 60.7292 194.541 60.589 194.125 60.4943L192.647 60.1705C191.833 59.9848 191.231 59.6894 190.841 59.2841C190.454 58.8788 190.261 58.3655 190.261 57.7443C190.261 57.2292 190.405 56.7784 190.693 56.392C190.981 56.0057 191.379 55.7045 191.886 55.4886C192.394 55.2689 192.975 55.1591 193.63 55.1591C194.574 55.1591 195.316 55.3636 195.858 55.7727C196.399 56.178 196.757 56.7216 196.932 57.4034ZM201.004 62.4091L200.919 63.0284C200.862 63.483 200.766 63.9564 200.629 64.4489C200.497 64.9451 200.358 65.4053 200.214 65.8295C200.074 66.2538 199.959 66.5909 199.868 66.8409H198.663C198.712 66.6061 198.781 66.2879 198.868 65.8864C198.955 65.4886 199.04 65.0436 199.123 64.5511C199.207 64.0587 199.269 63.5568 199.311 63.0455L199.368 62.4091H201.004ZM31.142 91.2727V79.2727H32.8011V80.6875H32.9432C33.0417 80.5057 33.1837 80.2955 33.3693 80.0568C33.5549 79.8182 33.8125 79.6098 34.142 79.4318C34.4716 79.25 34.9072 79.1591 35.4489 79.1591C36.1534 79.1591 36.7822 79.3371 37.3352 79.6932C37.8883 80.0492 38.322 80.5625 38.6364 81.233C38.9545 81.9034 39.1136 82.7102 39.1136 83.6534C39.1136 84.5966 38.9564 85.4053 38.642 86.0795C38.3277 86.75 37.8958 87.267 37.3466 87.6307C36.7973 87.9905 36.1705 88.1705 35.4659 88.1705C34.9356 88.1705 34.5019 88.0814 34.1648 87.9034C33.8314 87.7254 33.5701 87.517 33.3807 87.2784C33.1913 87.0398 33.0455 86.8277 32.9432 86.642H32.8409V91.2727H31.142ZM32.8068 83.6364C32.8068 84.25 32.8958 84.7879 33.0739 85.25C33.2519 85.7121 33.5095 86.0739 33.8466 86.3352C34.1837 86.5928 34.5966 86.7216 35.0852 86.7216C35.5928 86.7216 36.017 86.5871 36.358 86.3182C36.6989 86.0455 36.9564 85.6761 37.1307 85.2102C37.3087 84.7443 37.3977 84.2197 37.3977 83.6364C37.3977 83.0606 37.3106 82.5436 37.1364 82.0852C36.9659 81.6269 36.7083 81.2652 36.3636 81C36.0227 80.7348 35.5966 80.6023 35.0852 80.6023C34.5928 80.6023 34.1761 80.7292 33.8352 80.983C33.4981 81.2367 33.2424 81.5909 33.0682 82.0455C32.8939 82.5 32.8068 83.0303 32.8068 83.6364ZM42.5399 76.3636V88H40.841V76.3636H42.5399ZM47.1892 88.1932C46.6362 88.1932 46.1362 88.0909 45.6892 87.8864C45.2422 87.678 44.8881 87.3769 44.6267 86.983C44.3691 86.589 44.2403 86.1061 44.2403 85.5341C44.2403 85.0417 44.335 84.6364 44.5244 84.3182C44.7138 84 44.9695 83.7481 45.2915 83.5625C45.6134 83.3769 45.9733 83.2367 46.371 83.142C46.7687 83.0473 47.174 82.9754 47.5869 82.9261C48.1096 82.8655 48.5339 82.8163 48.8596 82.7784C49.1854 82.7367 49.4221 82.6705 49.5699 82.5795C49.7176 82.4886 49.7915 82.3409 49.7915 82.1364V82.0966C49.7915 81.6004 49.6513 81.2159 49.371 80.9432C49.0945 80.6705 48.6816 80.5341 48.1324 80.5341C47.5604 80.5341 47.1096 80.661 46.7801 80.9148C46.4543 81.1648 46.229 81.4432 46.104 81.75L44.5074 81.3864C44.6968 80.8561 44.9733 80.428 45.3369 80.1023C45.7043 79.7727 46.1267 79.5341 46.604 79.3864C47.0812 79.2348 47.5831 79.1591 48.1096 79.1591C48.4581 79.1591 48.8275 79.2008 49.2176 79.2841C49.6115 79.3636 49.979 79.5114 50.3199 79.7273C50.6646 79.9432 50.9468 80.2519 51.1665 80.6534C51.3862 81.0511 51.496 81.5682 51.496 82.2045V88H49.8369V86.8068H49.7687C49.6589 87.0265 49.4941 87.2424 49.2744 87.4545C49.0547 87.6667 48.7725 87.8428 48.4278 87.983C48.0831 88.1231 47.6703 88.1932 47.1892 88.1932ZM47.5585 86.8295C48.0282 86.8295 48.4297 86.7367 48.7631 86.5511C49.1002 86.3655 49.3559 86.1231 49.5301 85.8239C49.7081 85.5208 49.7971 85.197 49.7971 84.8523V83.7273C49.7365 83.7879 49.6191 83.8447 49.4449 83.8977C49.2744 83.947 49.0793 83.9905 48.8596 84.0284C48.64 84.0625 48.4259 84.0947 48.2176 84.125C48.0093 84.1515 47.835 84.1742 47.6949 84.1932C47.3653 84.2348 47.0642 84.3049 46.7915 84.4034C46.5225 84.5019 46.3066 84.6439 46.1437 84.8295C45.9846 85.0114 45.9051 85.2538 45.9051 85.5568C45.9051 85.9773 46.0604 86.2955 46.371 86.5114C46.6816 86.7235 47.0775 86.8295 47.5585 86.8295ZM57.2589 88.1761C56.4142 88.1761 55.687 87.9848 55.0771 87.6023C54.4711 87.2159 54.0051 86.6837 53.6794 86.0057C53.3536 85.3277 53.1908 84.5511 53.1908 83.6761C53.1908 82.7898 53.3574 82.0076 53.6908 81.3295C54.0241 80.6477 54.4938 80.1155 55.0998 79.733C55.7059 79.3504 56.4199 79.1591 57.2419 79.1591C57.9048 79.1591 58.4957 79.2822 59.0146 79.5284C59.5336 79.7708 59.9521 80.1117 60.2703 80.5511C60.5923 80.9905 60.7836 81.5038 60.8442 82.0909H59.1908C59.0998 81.6818 58.8915 81.3295 58.5658 81.0341C58.2438 80.7386 57.812 80.5909 57.2703 80.5909C56.7968 80.5909 56.382 80.7159 56.026 80.9659C55.6737 81.2121 55.3991 81.5644 55.2021 82.0227C55.0051 82.4773 54.9067 83.0152 54.9067 83.6364C54.9067 84.2727 55.0033 84.822 55.1964 85.2841C55.3896 85.7462 55.6623 86.1042 56.0146 86.358C56.3707 86.6117 56.7892 86.7386 57.2703 86.7386C57.5923 86.7386 57.8839 86.6799 58.1453 86.5625C58.4104 86.4413 58.632 86.2689 58.8101 86.0455C58.9919 85.822 59.1188 85.553 59.1908 85.2386H60.8442C60.7836 85.803 60.5998 86.3068 60.293 86.75C59.9862 87.1932 59.5752 87.5417 59.0601 87.7955C58.5487 88.0492 57.9483 88.1761 57.2589 88.1761ZM66.2463 88.1761C65.3864 88.1761 64.6459 87.9924 64.0247 87.625C63.4073 87.2538 62.93 86.733 62.5929 86.0625C62.2595 85.3883 62.0929 84.5985 62.0929 83.6932C62.0929 82.7992 62.2595 82.0114 62.5929 81.3295C62.93 80.6477 63.3997 80.1155 64.002 79.733C64.608 79.3504 65.3164 79.1591 66.127 79.1591C66.6194 79.1591 67.0967 79.2405 67.5588 79.4034C68.0209 79.5663 68.4357 79.822 68.8031 80.1705C69.1705 80.5189 69.4603 80.9716 69.6724 81.5284C69.8845 82.0814 69.9906 82.7538 69.9906 83.5455V84.1477H63.0531V82.875H68.3258C68.3258 82.428 68.2349 82.0322 68.0531 81.6875C67.8713 81.339 67.6156 81.0644 67.2861 80.8636C66.9603 80.6629 66.5777 80.5625 66.1383 80.5625C65.6611 80.5625 65.2444 80.6799 64.8883 80.9148C64.5361 81.1458 64.2633 81.4489 64.0701 81.8239C63.8808 82.1951 63.7861 82.5985 63.7861 83.0341V84.0284C63.7861 84.6117 63.8883 85.108 64.0929 85.517C64.3012 85.9261 64.591 86.2386 64.9622 86.4545C65.3334 86.6667 65.7671 86.7727 66.2633 86.7727C66.5853 86.7727 66.8789 86.7273 67.144 86.6364C67.4092 86.5417 67.6383 86.4015 67.8315 86.2159C68.0247 86.0303 68.1724 85.8011 68.2747 85.5284L69.8826 85.8182C69.7539 86.2917 69.5228 86.7064 69.1895 87.0625C68.8599 87.4148 68.4451 87.6894 67.9451 87.8864C67.4489 88.0795 66.8826 88.1761 66.2463 88.1761ZM74.9666 88.1705C74.262 88.1705 73.6333 87.9905 73.0802 87.6307C72.531 87.267 72.0992 86.75 71.7848 86.0795C71.4742 85.4053 71.3189 84.5966 71.3189 83.6534C71.3189 82.7102 71.4761 81.9034 71.7905 81.233C72.1086 80.5625 72.5442 80.0492 73.0973 79.6932C73.6503 79.3371 74.2772 79.1591 74.978 79.1591C75.5196 79.1591 75.9552 79.25 76.2848 79.4318C76.6181 79.6098 76.8757 79.8182 77.0575 80.0568C77.2431 80.2955 77.387 80.5057 77.4893 80.6875H77.5916V76.3636H79.2905V88H77.6314V86.642H77.4893C77.387 86.8277 77.2393 87.0398 77.0461 87.2784C76.8567 87.517 76.5954 87.7254 76.262 87.9034C75.9287 88.0814 75.4969 88.1705 74.9666 88.1705ZM75.3416 86.7216C75.8302 86.7216 76.2431 86.5928 76.5802 86.3352C76.9211 86.0739 77.1787 85.7121 77.353 85.25C77.531 84.7879 77.62 84.25 77.62 83.6364C77.62 83.0303 77.5329 82.5 77.3586 82.0455C77.1844 81.5909 76.9287 81.2367 76.5916 80.983C76.2545 80.7292 75.8378 80.6023 75.3416 80.6023C74.8302 80.6023 74.4041 80.7348 74.0632 81C73.7223 81.2652 73.4647 81.6269 73.2905 82.0852C73.12 82.5436 73.0348 83.0606 73.0348 83.6364C73.0348 84.2197 73.1219 84.7443 73.2961 85.2102C73.4704 85.6761 73.728 86.0455 74.0689 86.3182C74.4136 86.5871 74.8378 86.7216 75.3416 86.7216ZM89.6714 79.2727V80.6364H84.9044V79.2727H89.6714ZM86.1828 77.1818H87.8816V85.4375C87.8816 85.767 87.9309 86.0152 88.0294 86.1818C88.1279 86.3447 88.2547 86.4564 88.41 86.517C88.5691 86.5739 88.7415 86.6023 88.9271 86.6023C89.0635 86.6023 89.1828 86.5928 89.285 86.5739C89.3873 86.5549 89.4669 86.5398 89.5237 86.5284L89.8305 87.9318C89.732 87.9697 89.5919 88.0076 89.41 88.0455C89.2282 88.0871 89.001 88.1098 88.7282 88.1136C88.2813 88.1212 87.8646 88.0417 87.4782 87.875C87.0919 87.7083 86.7794 87.4508 86.5407 87.1023C86.3021 86.7538 86.1828 86.3163 86.1828 85.7898V77.1818ZM93.261 82.8182V88H91.5622V76.3636H93.2383V80.6932H93.3463C93.5508 80.2235 93.8633 79.8504 94.2838 79.5739C94.7042 79.2973 95.2535 79.1591 95.9315 79.1591C96.53 79.1591 97.0527 79.2822 97.4997 79.5284C97.9504 79.7746 98.2989 80.142 98.5451 80.6307C98.7951 81.1155 98.9201 81.7216 98.9201 82.4489V88H97.2213V82.6534C97.2213 82.0133 97.0565 81.517 96.7269 81.1648C96.3974 80.8087 95.9391 80.6307 95.3519 80.6307C94.9504 80.6307 94.5906 80.7159 94.2724 80.8864C93.958 81.0568 93.7099 81.3068 93.5281 81.6364C93.35 81.9621 93.261 82.3561 93.261 82.8182ZM101.011 88V79.2727H102.653V80.6591H102.744C102.903 80.1894 103.184 79.8201 103.585 79.5511C103.99 79.2784 104.449 79.142 104.96 79.142C105.066 79.142 105.191 79.1458 105.335 79.1534C105.483 79.161 105.598 79.1705 105.682 79.1818V80.8068C105.613 80.7879 105.492 80.767 105.318 80.7443C105.144 80.7178 104.97 80.7045 104.795 80.7045C104.394 80.7045 104.036 80.7898 103.721 80.9602C103.411 81.1269 103.165 81.3598 102.983 81.6591C102.801 81.9545 102.71 82.2917 102.71 82.6705V88H101.011ZM110.339 88.1761C109.521 88.1761 108.807 87.9886 108.197 87.6136C107.588 87.2386 107.114 86.714 106.777 86.0398C106.44 85.3655 106.271 84.5777 106.271 83.6761C106.271 82.7708 106.44 81.9792 106.777 81.3011C107.114 80.6231 107.588 80.0966 108.197 79.7216C108.807 79.3466 109.521 79.1591 110.339 79.1591C111.158 79.1591 111.872 79.3466 112.481 79.7216C113.091 80.0966 113.565 80.6231 113.902 81.3011C114.239 81.9792 114.408 82.7708 114.408 83.6761C114.408 84.5777 114.239 85.3655 113.902 86.0398C113.565 86.714 113.091 87.2386 112.481 87.6136C111.872 87.9886 111.158 88.1761 110.339 88.1761ZM110.345 86.75C110.875 86.75 111.315 86.6098 111.663 86.3295C112.012 86.0492 112.269 85.6761 112.436 85.2102C112.606 84.7443 112.692 84.2311 112.692 83.6705C112.692 83.1136 112.606 82.6023 112.436 82.1364C112.269 81.6667 112.012 81.2898 111.663 81.0057C111.315 80.7216 110.875 80.5795 110.345 80.5795C109.811 80.5795 109.368 80.7216 109.016 81.0057C108.667 81.2898 108.408 81.6667 108.237 82.1364C108.07 82.6023 107.987 83.1136 107.987 83.6705C107.987 84.2311 108.07 84.7443 108.237 85.2102C108.408 85.6761 108.667 86.0492 109.016 86.3295C109.368 86.6098 109.811 86.75 110.345 86.75ZM121.656 84.3807V79.2727H123.361V88H121.69V86.4886H121.6C121.399 86.9545 121.077 87.3428 120.634 87.6534C120.194 87.9602 119.647 88.1136 118.992 88.1136C118.431 88.1136 117.935 87.9905 117.503 87.7443C117.075 87.4943 116.738 87.125 116.492 86.6364C116.249 86.1477 116.128 85.5436 116.128 84.8239V79.2727H117.827V84.6193C117.827 85.214 117.992 85.6875 118.321 86.0398C118.651 86.392 119.079 86.5682 119.605 86.5682C119.923 86.5682 120.24 86.4886 120.554 86.3295C120.872 86.1705 121.135 85.9299 121.344 85.608C121.556 85.286 121.66 84.8769 121.656 84.3807ZM129.127 91.4545C128.433 91.4545 127.837 91.3636 127.337 91.1818C126.841 91 126.435 90.7595 126.121 90.4602C125.807 90.161 125.572 89.8333 125.416 89.4773L126.877 88.875C126.979 89.0417 127.115 89.2178 127.286 89.4034C127.46 89.5928 127.695 89.7538 127.99 89.8864C128.29 90.0189 128.674 90.0852 129.144 90.0852C129.788 90.0852 130.32 89.928 130.74 89.6136C131.161 89.303 131.371 88.8068 131.371 88.125V86.4091H131.263C131.161 86.5947 131.013 86.8011 130.82 87.0284C130.63 87.2557 130.369 87.4527 130.036 87.6193C129.702 87.786 129.269 87.8693 128.735 87.8693C128.045 87.8693 127.424 87.7083 126.871 87.3864C126.322 87.0606 125.886 86.5814 125.564 85.9489C125.246 85.3125 125.087 84.5303 125.087 83.6023C125.087 82.6742 125.244 81.8788 125.558 81.2159C125.877 80.553 126.312 80.0455 126.865 79.6932C127.418 79.3371 128.045 79.1591 128.746 79.1591C129.288 79.1591 129.725 79.25 130.058 79.4318C130.392 79.6098 130.651 79.8182 130.837 80.0568C131.026 80.2955 131.172 80.5057 131.274 80.6875H131.399V79.2727H133.064V88.1932C133.064 88.9432 132.89 89.5587 132.541 90.0398C132.193 90.5208 131.721 90.8769 131.127 91.108C130.536 91.339 129.869 91.4545 129.127 91.4545ZM129.11 86.4602C129.598 86.4602 130.011 86.3466 130.348 86.1193C130.689 85.8883 130.947 85.5587 131.121 85.1307C131.299 84.6989 131.388 84.1818 131.388 83.5795C131.388 82.9924 131.301 82.4754 131.127 82.0284C130.952 81.5814 130.697 81.233 130.36 80.983C130.022 80.7292 129.606 80.6023 129.11 80.6023C128.598 80.6023 128.172 80.7348 127.831 81C127.49 81.2614 127.233 81.6174 127.058 82.0682C126.888 82.5189 126.803 83.0227 126.803 83.5795C126.803 84.1515 126.89 84.6534 127.064 85.0852C127.238 85.517 127.496 85.8542 127.837 86.0966C128.182 86.339 128.606 86.4602 129.11 86.4602ZM136.865 82.8182V88H135.167V76.3636H136.843V80.6932H136.951C137.155 80.2235 137.468 79.8504 137.888 79.5739C138.309 79.2973 138.858 79.1591 139.536 79.1591C140.134 79.1591 140.657 79.2822 141.104 79.5284C141.555 79.7746 141.903 80.142 142.149 80.6307C142.399 81.1155 142.524 81.7216 142.524 82.4489V88H140.826V82.6534C140.826 82.0133 140.661 81.517 140.331 81.1648C140.002 80.8087 139.543 80.6307 138.956 80.6307C138.555 80.6307 138.195 80.7159 137.877 80.8864C137.562 81.0568 137.314 81.3068 137.132 81.6364C136.954 81.9621 136.865 82.3561 136.865 82.8182ZM148.292 88.1761C147.474 88.1761 146.759 87.9886 146.15 87.6136C145.54 87.2386 145.066 86.714 144.729 86.0398C144.392 85.3655 144.224 84.5777 144.224 83.6761C144.224 82.7708 144.392 81.9792 144.729 81.3011C145.066 80.6231 145.54 80.0966 146.15 79.7216C146.759 79.3466 147.474 79.1591 148.292 79.1591C149.11 79.1591 149.824 79.3466 150.434 79.7216C151.044 80.0966 151.517 80.6231 151.854 81.3011C152.191 81.9792 152.36 82.7708 152.36 83.6761C152.36 84.5777 152.191 85.3655 151.854 86.0398C151.517 86.714 151.044 87.2386 150.434 87.6136C149.824 87.9886 149.11 88.1761 148.292 88.1761ZM148.297 86.75C148.828 86.75 149.267 86.6098 149.616 86.3295C149.964 86.0492 150.222 85.6761 150.388 85.2102C150.559 84.7443 150.644 84.2311 150.644 83.6705C150.644 83.1136 150.559 82.6023 150.388 82.1364C150.222 81.6667 149.964 81.2898 149.616 81.0057C149.267 80.7216 148.828 80.5795 148.297 80.5795C147.763 80.5795 147.32 80.7216 146.968 81.0057C146.619 81.2898 146.36 81.6667 146.189 82.1364C146.023 82.6023 145.939 83.1136 145.939 83.6705C145.939 84.2311 146.023 84.7443 146.189 85.2102C146.36 85.6761 146.619 86.0492 146.968 86.3295C147.32 86.6098 147.763 86.75 148.297 86.75ZM159.609 84.3807V79.2727H161.313V88H159.643V86.4886H159.552C159.351 86.9545 159.029 87.3428 158.586 87.6534C158.146 87.9602 157.599 88.1136 156.944 88.1136C156.383 88.1136 155.887 87.9905 155.455 87.7443C155.027 87.4943 154.69 87.125 154.444 86.6364C154.201 86.1477 154.08 85.5436 154.08 84.8239V79.2727H155.779V84.6193C155.779 85.214 155.944 85.6875 156.273 86.0398C156.603 86.392 157.031 86.5682 157.557 86.5682C157.876 86.5682 158.192 86.4886 158.506 86.3295C158.824 86.1705 159.088 85.9299 159.296 85.608C159.508 85.286 159.612 84.8769 159.609 84.3807ZM167.494 79.2727V80.6364H162.727V79.2727H167.494ZM164.005 77.1818H165.704V85.4375C165.704 85.767 165.753 86.0152 165.852 86.1818C165.95 86.3447 166.077 86.4564 166.232 86.517C166.391 86.5739 166.564 86.6023 166.749 86.6023C166.886 86.6023 167.005 86.5928 167.107 86.5739C167.21 86.5549 167.289 86.5398 167.346 86.5284L167.653 87.9318C167.554 87.9697 167.414 88.0076 167.232 88.0455C167.05 88.0871 166.823 88.1098 166.55 88.1136C166.104 88.1212 165.687 88.0417 165.3 87.875C164.914 87.7083 164.602 87.4508 164.363 87.1023C164.124 86.7538 164.005 86.3163 164.005 85.7898V77.1818ZM177.329 79.2727V80.6364H172.562V79.2727H177.329ZM173.841 77.1818H175.539V85.4375C175.539 85.767 175.589 86.0152 175.687 86.1818C175.786 86.3447 175.912 86.4564 176.068 86.517C176.227 86.5739 176.399 86.6023 176.585 86.6023C176.721 86.6023 176.841 86.5928 176.943 86.5739C177.045 86.5549 177.125 86.5398 177.181 86.5284L177.488 87.9318C177.39 87.9697 177.25 88.0076 177.068 88.0455C176.886 88.0871 176.659 88.1098 176.386 88.1136C175.939 88.1212 175.522 88.0417 175.136 87.875C174.75 87.7083 174.437 87.4508 174.198 87.1023C173.96 86.7538 173.841 86.3163 173.841 85.7898V77.1818ZM180.919 82.8182V88H179.22V76.3636H180.896V80.6932H181.004C181.209 80.2235 181.521 79.8504 181.942 79.5739C182.362 79.2973 182.911 79.1591 183.589 79.1591C184.188 79.1591 184.71 79.2822 185.157 79.5284C185.608 79.7746 185.957 80.142 186.203 80.6307C186.453 81.1155 186.578 81.7216 186.578 82.4489V88H184.879V82.6534C184.879 82.0133 184.714 81.517 184.385 81.1648C184.055 80.8087 183.597 80.6307 183.01 80.6307C182.608 80.6307 182.248 80.7159 181.93 80.8864C181.616 81.0568 181.368 81.3068 181.186 81.6364C181.008 81.9621 180.919 82.3561 180.919 82.8182ZM192.43 88.1761C191.57 88.1761 190.83 87.9924 190.209 87.625C189.591 87.2538 189.114 86.733 188.777 86.0625C188.444 85.3883 188.277 84.5985 188.277 83.6932C188.277 82.7992 188.444 82.0114 188.777 81.3295C189.114 80.6477 189.584 80.1155 190.186 79.733C190.792 79.3504 191.5 79.1591 192.311 79.1591C192.803 79.1591 193.281 79.2405 193.743 79.4034C194.205 79.5663 194.62 79.822 194.987 80.1705C195.355 80.5189 195.644 80.9716 195.856 81.5284C196.069 82.0814 196.175 82.7538 196.175 83.5455V84.1477H189.237V82.875H194.51C194.51 82.428 194.419 82.0322 194.237 81.6875C194.055 81.339 193.8 81.0644 193.47 80.8636C193.144 80.6629 192.762 80.5625 192.322 80.5625C191.845 80.5625 191.428 80.6799 191.072 80.9148C190.72 81.1458 190.447 81.4489 190.254 81.8239C190.065 82.1951 189.97 82.5985 189.97 83.0341V84.0284C189.97 84.6117 190.072 85.108 190.277 85.517C190.485 85.9261 190.775 86.2386 191.146 86.4545C191.517 86.6667 191.951 86.7727 192.447 86.7727C192.769 86.7727 193.063 86.7273 193.328 86.6364C193.593 86.5417 193.822 86.4015 194.016 86.2159C194.209 86.0303 194.356 85.8011 194.459 85.5284L196.067 85.8182C195.938 86.2917 195.707 86.7064 195.373 87.0625C195.044 87.4148 194.629 87.6894 194.129 87.8864C193.633 88.0795 193.067 88.1761 192.43 88.1761ZM34.8182 112.176C33.9735 112.176 33.2462 111.985 32.6364 111.602C32.0303 111.216 31.5644 110.684 31.2386 110.006C30.9129 109.328 30.75 108.551 30.75 107.676C30.75 106.79 30.9167 106.008 31.25 105.33C31.5833 104.648 32.053 104.116 32.6591 103.733C33.2652 103.35 33.9792 103.159 34.8011 103.159C35.464 103.159 36.0549 103.282 36.5739 103.528C37.0928 103.771 37.5114 104.112 37.8295 104.551C38.1515 104.991 38.3428 105.504 38.4034 106.091H36.75C36.6591 105.682 36.4508 105.33 36.125 105.034C35.803 104.739 35.3712 104.591 34.8295 104.591C34.3561 104.591 33.9413 104.716 33.5852 104.966C33.233 105.212 32.9583 105.564 32.7614 106.023C32.5644 106.477 32.4659 107.015 32.4659 107.636C32.4659 108.273 32.5625 108.822 32.7557 109.284C32.9489 109.746 33.2216 110.104 33.5739 110.358C33.9299 110.612 34.3485 110.739 34.8295 110.739C35.1515 110.739 35.4432 110.68 35.7045 110.562C35.9697 110.441 36.1913 110.269 36.3693 110.045C36.5511 109.822 36.678 109.553 36.75 109.239H38.4034C38.3428 109.803 38.1591 110.307 37.8523 110.75C37.5455 111.193 37.1345 111.542 36.6193 111.795C36.108 112.049 35.5076 112.176 34.8182 112.176ZM43.7203 112.176C42.9021 112.176 42.1881 111.989 41.5783 111.614C40.9684 111.239 40.4949 110.714 40.1578 110.04C39.8207 109.366 39.6521 108.578 39.6521 107.676C39.6521 106.771 39.8207 105.979 40.1578 105.301C40.4949 104.623 40.9684 104.097 41.5783 103.722C42.1881 103.347 42.9021 103.159 43.7203 103.159C44.5385 103.159 45.2525 103.347 45.8624 103.722C46.4722 104.097 46.9457 104.623 47.2828 105.301C47.6199 105.979 47.7885 106.771 47.7885 107.676C47.7885 108.578 47.6199 109.366 47.2828 110.04C46.9457 110.714 46.4722 111.239 45.8624 111.614C45.2525 111.989 44.5385 112.176 43.7203 112.176ZM43.726 110.75C44.2563 110.75 44.6957 110.61 45.0442 110.33C45.3927 110.049 45.6502 109.676 45.8169 109.21C45.9874 108.744 46.0726 108.231 46.0726 107.67C46.0726 107.114 45.9874 106.602 45.8169 106.136C45.6502 105.667 45.3927 105.29 45.0442 105.006C44.6957 104.722 44.2563 104.58 43.726 104.58C43.1919 104.58 42.7487 104.722 42.3964 105.006C42.048 105.29 41.7885 105.667 41.618 106.136C41.4514 106.602 41.368 107.114 41.368 107.67C41.368 108.231 41.4514 108.744 41.618 109.21C41.7885 109.676 42.048 110.049 42.3964 110.33C42.7487 110.61 43.1919 110.75 43.726 110.75ZM49.5088 112V103.273H51.1508V104.659H51.2418C51.4008 104.189 51.6811 103.82 52.0827 103.551C52.488 103.278 52.9463 103.142 53.4577 103.142C53.5637 103.142 53.6887 103.146 53.8327 103.153C53.9804 103.161 54.0959 103.17 54.1793 103.182V104.807C54.1111 104.788 53.9899 104.767 53.8156 104.744C53.6414 104.718 53.4671 104.705 53.2929 104.705C52.8914 104.705 52.5334 104.79 52.219 104.96C51.9084 105.127 51.6622 105.36 51.4804 105.659C51.2986 105.955 51.2077 106.292 51.2077 106.67V112H49.5088ZM58.9223 112.176C58.0624 112.176 57.3219 111.992 56.7007 111.625C56.0833 111.254 55.606 110.733 55.2689 110.062C54.9355 109.388 54.7689 108.598 54.7689 107.693C54.7689 106.799 54.9355 106.011 55.2689 105.33C55.606 104.648 56.0757 104.116 56.678 103.733C57.284 103.35 57.9924 103.159 58.803 103.159C59.2954 103.159 59.7727 103.241 60.2348 103.403C60.6969 103.566 61.1117 103.822 61.4791 104.17C61.8465 104.519 62.1363 104.972 62.3484 105.528C62.5605 106.081 62.6666 106.754 62.6666 107.545V108.148H55.7291V106.875H61.0018C61.0018 106.428 60.9109 106.032 60.7291 105.688C60.5473 105.339 60.2916 105.064 59.9621 104.864C59.6363 104.663 59.2537 104.562 58.8143 104.562C58.3371 104.562 57.9204 104.68 57.5643 104.915C57.2121 105.146 56.9393 105.449 56.7461 105.824C56.5568 106.195 56.4621 106.598 56.4621 107.034V108.028C56.4621 108.612 56.5643 109.108 56.7689 109.517C56.9772 109.926 57.267 110.239 57.6382 110.455C58.0094 110.667 58.4431 110.773 58.9393 110.773C59.2613 110.773 59.5549 110.727 59.82 110.636C60.0852 110.542 60.3143 110.402 60.5075 110.216C60.7007 110.03 60.8484 109.801 60.9507 109.528L62.5586 109.818C62.4299 110.292 62.1988 110.706 61.8655 111.062C61.5359 111.415 61.1211 111.689 60.6211 111.886C60.1249 112.08 59.5586 112.176 58.9223 112.176ZM72.1101 112.176C71.2654 112.176 70.5381 111.985 69.9282 111.602C69.3222 111.216 68.8563 110.684 68.5305 110.006C68.2048 109.328 68.0419 108.551 68.0419 107.676C68.0419 106.79 68.2085 106.008 68.5419 105.33C68.8752 104.648 69.3449 104.116 69.951 103.733C70.557 103.35 71.271 103.159 72.093 103.159C72.7559 103.159 73.3468 103.282 73.8657 103.528C74.3847 103.771 74.8032 104.112 75.1214 104.551C75.4434 104.991 75.6347 105.504 75.6953 106.091H74.0419C73.951 105.682 73.7426 105.33 73.4169 105.034C73.0949 104.739 72.6631 104.591 72.1214 104.591C71.6479 104.591 71.2332 104.716 70.8771 104.966C70.5248 105.212 70.2502 105.564 70.0532 106.023C69.8563 106.477 69.7578 107.015 69.7578 107.636C69.7578 108.273 69.8544 108.822 70.0476 109.284C70.2407 109.746 70.5135 110.104 70.8657 110.358C71.2218 110.612 71.6404 110.739 72.1214 110.739C72.4434 110.739 72.7351 110.68 72.9964 110.562C73.2616 110.441 73.4832 110.269 73.6612 110.045C73.843 109.822 73.9699 109.553 74.0419 109.239H75.6953C75.6347 109.803 75.451 110.307 75.1441 110.75C74.8373 111.193 74.4263 111.542 73.9112 111.795C73.3998 112.049 72.7994 112.176 72.1101 112.176ZM81.0122 112.176C80.194 112.176 79.48 111.989 78.8701 111.614C78.2603 111.239 77.7868 110.714 77.4497 110.04C77.1126 109.366 76.944 108.578 76.944 107.676C76.944 106.771 77.1126 105.979 77.4497 105.301C77.7868 104.623 78.2603 104.097 78.8701 103.722C79.48 103.347 80.194 103.159 81.0122 103.159C81.8304 103.159 82.5444 103.347 83.1542 103.722C83.7641 104.097 84.2376 104.623 84.5747 105.301C84.9118 105.979 85.0804 106.771 85.0804 107.676C85.0804 108.578 84.9118 109.366 84.5747 110.04C84.2376 110.714 83.7641 111.239 83.1542 111.614C82.5444 111.989 81.8304 112.176 81.0122 112.176ZM81.0179 110.75C81.5482 110.75 81.9876 110.61 82.336 110.33C82.6845 110.049 82.9421 109.676 83.1088 109.21C83.2792 108.744 83.3645 108.231 83.3645 107.67C83.3645 107.114 83.2792 106.602 83.1088 106.136C82.9421 105.667 82.6845 105.29 82.336 105.006C81.9876 104.722 81.5482 104.58 81.0179 104.58C80.4838 104.58 80.0406 104.722 79.6883 105.006C79.3398 105.29 79.0804 105.667 78.9099 106.136C78.7432 106.602 78.6599 107.114 78.6599 107.67C78.6599 108.231 78.7432 108.744 78.9099 109.21C79.0804 109.676 79.3398 110.049 79.6883 110.33C80.0406 110.61 80.4838 110.75 81.0179 110.75ZM92.3291 108.381V103.273H94.0336V112H92.3632V110.489H92.2723C92.0715 110.955 91.7495 111.343 91.3064 111.653C90.867 111.96 90.3196 112.114 89.6643 112.114C89.1037 112.114 88.6075 111.991 88.1757 111.744C87.7476 111.494 87.4105 111.125 87.1643 110.636C86.9219 110.148 86.8007 109.544 86.8007 108.824V103.273H88.4995V108.619C88.4995 109.214 88.6643 109.687 88.9939 110.04C89.3234 110.392 89.7514 110.568 90.2779 110.568C90.5961 110.568 90.9124 110.489 91.2268 110.33C91.545 110.17 91.8082 109.93 92.0166 109.608C92.2287 109.286 92.3329 108.877 92.3291 108.381ZM96.1403 112V103.273H97.7823V104.659H97.8733C98.0323 104.189 98.3126 103.82 98.7142 103.551C99.1195 103.278 99.5778 103.142 100.089 103.142C100.195 103.142 100.32 103.146 100.464 103.153C100.612 103.161 100.727 103.17 100.811 103.182V104.807C100.743 104.788 100.621 104.767 100.447 104.744C100.273 104.718 100.099 104.705 99.9244 104.705C99.5229 104.705 99.1649 104.79 98.8505 104.96C98.5399 105.127 98.2937 105.36 98.1119 105.659C97.9301 105.955 97.8392 106.292 97.8392 106.67V112H96.1403ZM108.645 105.403L107.105 105.676C107.041 105.479 106.938 105.292 106.798 105.114C106.662 104.936 106.476 104.79 106.241 104.676C106.006 104.562 105.713 104.506 105.361 104.506C104.88 104.506 104.478 104.614 104.156 104.83C103.834 105.042 103.673 105.316 103.673 105.653C103.673 105.945 103.781 106.18 103.997 106.358C104.213 106.536 104.561 106.682 105.042 106.795L106.429 107.114C107.232 107.299 107.83 107.585 108.224 107.972C108.618 108.358 108.815 108.86 108.815 109.477C108.815 110 108.664 110.466 108.361 110.875C108.061 111.28 107.643 111.598 107.105 111.83C106.571 112.061 105.952 112.176 105.247 112.176C104.27 112.176 103.472 111.968 102.855 111.551C102.237 111.131 101.859 110.534 101.719 109.761L103.361 109.511C103.463 109.939 103.673 110.263 103.991 110.483C104.309 110.699 104.724 110.807 105.236 110.807C105.792 110.807 106.237 110.691 106.571 110.46C106.904 110.225 107.071 109.939 107.071 109.602C107.071 109.33 106.969 109.1 106.764 108.915C106.563 108.729 106.255 108.589 105.838 108.494L104.361 108.17C103.546 107.985 102.944 107.689 102.554 107.284C102.167 106.879 101.974 106.366 101.974 105.744C101.974 105.229 102.118 104.778 102.406 104.392C102.694 104.006 103.092 103.705 103.599 103.489C104.107 103.269 104.688 103.159 105.344 103.159C106.287 103.159 107.029 103.364 107.571 103.773C108.112 104.178 108.47 104.722 108.645 105.403ZM114.268 112.176C113.409 112.176 112.668 111.992 112.047 111.625C111.429 111.254 110.952 110.733 110.615 110.062C110.282 109.388 110.115 108.598 110.115 107.693C110.115 106.799 110.282 106.011 110.615 105.33C110.952 104.648 111.422 104.116 112.024 103.733C112.63 103.35 113.338 103.159 114.149 103.159C114.642 103.159 115.119 103.241 115.581 103.403C116.043 103.566 116.458 103.822 116.825 104.17C117.193 104.519 117.482 104.972 117.695 105.528C117.907 106.081 118.013 106.754 118.013 107.545V108.148H111.075V106.875H116.348C116.348 106.428 116.257 106.032 116.075 105.688C115.893 105.339 115.638 105.064 115.308 104.864C114.982 104.663 114.6 104.562 114.16 104.562C113.683 104.562 113.267 104.68 112.91 104.915C112.558 105.146 112.285 105.449 112.092 105.824C111.903 106.195 111.808 106.598 111.808 107.034V108.028C111.808 108.612 111.91 109.108 112.115 109.517C112.323 109.926 112.613 110.239 112.984 110.455C113.356 110.667 113.789 110.773 114.285 110.773C114.607 110.773 114.901 110.727 115.166 110.636C115.431 110.542 115.66 110.402 115.854 110.216C116.047 110.03 116.195 109.801 116.297 109.528L117.905 109.818C117.776 110.292 117.545 110.706 117.212 111.062C116.882 111.415 116.467 111.689 115.967 111.886C115.471 112.08 114.905 112.176 114.268 112.176ZM120.841 112.108C120.53 112.108 120.263 111.998 120.04 111.778C119.816 111.555 119.705 111.286 119.705 110.972C119.705 110.661 119.816 110.396 120.04 110.176C120.263 109.953 120.53 109.841 120.841 109.841C121.152 109.841 121.419 109.953 121.642 110.176C121.866 110.396 121.977 110.661 121.977 110.972C121.977 111.18 121.924 111.371 121.818 111.545C121.716 111.716 121.58 111.852 121.409 111.955C121.239 112.057 121.049 112.108 120.841 112.108Z" fill="black" fill-opacity="0.8"/>
<path d="M36.8651 212.03C36.7827 211.771 36.6719 211.54 36.5327 211.335C36.3963 211.128 36.233 210.952 36.0426 210.807C35.8523 210.659 35.6349 210.547 35.3906 210.47C35.1491 210.393 34.8835 210.355 34.5938 210.355C34.1023 210.355 33.6591 210.482 33.2642 210.734C32.8693 210.987 32.5568 211.358 32.3267 211.847C32.0994 212.332 31.9858 212.928 31.9858 213.632C31.9858 214.339 32.1009 214.937 32.331 215.426C32.5611 215.915 32.8764 216.286 33.277 216.538C33.6776 216.791 34.1335 216.918 34.6449 216.918C35.1193 216.918 35.5327 216.821 35.8849 216.628C36.2401 216.435 36.5142 216.162 36.7074 215.81C36.9034 215.455 37.0014 215.037 37.0014 214.557L37.3423 214.621H34.8452V213.534H38.2756V214.527C38.2756 215.26 38.1193 215.896 37.8068 216.436C37.4972 216.973 37.0682 217.388 36.5199 217.68C35.9744 217.973 35.3494 218.119 34.6449 218.119C33.8551 218.119 33.1619 217.938 32.5653 217.574C31.9716 217.21 31.5085 216.695 31.1761 216.027C30.8438 215.357 30.6776 214.561 30.6776 213.641C30.6776 212.945 30.7741 212.32 30.9673 211.766C31.1605 211.212 31.4318 210.741 31.7812 210.355C32.1335 209.966 32.5469 209.669 33.0213 209.464C33.4986 209.257 34.0199 209.153 34.5852 209.153C35.0568 209.153 35.4957 209.223 35.902 209.362C36.3111 209.501 36.6747 209.699 36.9929 209.955C37.3139 210.21 37.5795 210.514 37.7898 210.866C38 211.216 38.142 211.604 38.2159 212.03H36.8651ZM40.987 209.273V218H39.7128V209.273H40.987ZM45.3901 218.132C44.7452 218.132 44.1898 217.994 43.7239 217.719C43.2609 217.44 42.9029 217.05 42.6501 216.547C42.4001 216.041 42.2751 215.449 42.2751 214.77C42.2751 214.099 42.4001 213.509 42.6501 212.997C42.9029 212.486 43.2552 212.087 43.7069 211.8C44.1614 211.513 44.6927 211.369 45.3006 211.369C45.6699 211.369 46.0279 211.43 46.3745 211.553C46.7211 211.675 47.0322 211.866 47.3077 212.128C47.5833 212.389 47.8006 212.729 47.9597 213.146C48.1188 213.561 48.1984 214.065 48.1984 214.659V215.111H42.9952V214.156H46.9498C46.9498 213.821 46.8816 213.524 46.7452 213.266C46.6089 213.004 46.4171 212.798 46.1699 212.648C45.9256 212.497 45.6387 212.422 45.3092 212.422C44.9512 212.422 44.6387 212.51 44.3717 212.686C44.1074 212.859 43.9029 213.087 43.758 213.368C43.616 213.646 43.5449 213.949 43.5449 214.276V215.021C43.5449 215.459 43.6217 215.831 43.7751 216.138C43.9313 216.445 44.1486 216.679 44.4271 216.841C44.7055 217 45.0307 217.08 45.4029 217.08C45.6444 217.08 45.8646 217.045 46.0634 216.977C46.2623 216.906 46.4342 216.801 46.579 216.662C46.7239 216.523 46.8347 216.351 46.9114 216.146L48.1174 216.364C48.0208 216.719 47.8475 217.03 47.5975 217.297C47.3503 217.561 47.0393 217.767 46.6643 217.915C46.2921 218.06 45.8674 218.132 45.3901 218.132ZM50.7542 214.114V218H49.4801V211.455H50.7031V212.52H50.784C50.9346 212.173 51.1704 211.895 51.4914 211.685C51.8153 211.474 52.223 211.369 52.7144 211.369C53.1605 211.369 53.5511 211.463 53.8863 211.651C54.2215 211.835 54.4815 212.111 54.6661 212.477C54.8508 212.844 54.9431 213.297 54.9431 213.837V218H53.669V213.99C53.669 213.516 53.5454 213.145 53.2982 212.878C53.0511 212.608 52.7116 212.473 52.2798 212.473C51.9843 212.473 51.7215 212.537 51.4914 212.665C51.2642 212.793 51.0838 212.98 50.9502 213.227C50.8196 213.472 50.7542 213.767 50.7542 214.114ZM57.7941 214.114V218H56.5199V211.455H57.743V212.52H57.8239C57.9745 212.173 58.2103 211.895 58.5313 211.685C58.8552 211.474 59.2628 211.369 59.7543 211.369C60.2003 211.369 60.591 211.463 60.9262 211.651C61.2614 211.835 61.5214 212.111 61.706 212.477C61.8907 212.844 61.983 213.297 61.983 213.837V218H60.7089V213.99C60.7089 213.516 60.5853 213.145 60.3381 212.878C60.091 212.608 59.7515 212.473 59.3197 212.473C59.0242 212.473 58.7614 212.537 58.5313 212.665C58.304 212.793 58.1236 212.98 57.9901 213.227C57.8594 213.472 57.7941 213.767 57.7941 214.114ZM66.7059 218V209.273H68.0226V213.065H72.3735V209.273H73.6945V218H72.3735V214.195H68.0226V218H66.7059ZM77.2827 218.145C76.8679 218.145 76.4929 218.068 76.1577 217.915C75.8224 217.759 75.5568 217.533 75.3608 217.237C75.1676 216.942 75.071 216.58 75.071 216.151C75.071 215.781 75.1421 215.477 75.2841 215.239C75.4261 215 75.6179 214.811 75.8594 214.672C76.1009 214.533 76.3707 214.428 76.669 214.357C76.9673 214.286 77.2713 214.232 77.581 214.195C77.973 214.149 78.2912 214.112 78.5355 214.084C78.7798 214.053 78.9574 214.003 79.0682 213.935C79.179 213.866 79.2344 213.756 79.2344 213.602V213.572C79.2344 213.2 79.1293 212.912 78.919 212.707C78.7117 212.503 78.402 212.401 77.9901 212.401C77.5611 212.401 77.223 212.496 76.9759 212.686C76.7315 212.874 76.5625 213.082 76.4688 213.312L75.2713 213.04C75.4134 212.642 75.6207 212.321 75.8935 212.077C76.169 211.83 76.4858 211.651 76.8438 211.54C77.2017 211.426 77.5781 211.369 77.973 211.369C78.2344 211.369 78.5114 211.401 78.804 211.463C79.0994 211.523 79.375 211.634 79.6307 211.795C79.8892 211.957 80.1009 212.189 80.2656 212.49C80.4304 212.788 80.5128 213.176 80.5128 213.653V218H79.2685V217.105H79.2173C79.1349 217.27 79.0114 217.432 78.8466 217.591C78.6818 217.75 78.4702 217.882 78.2117 217.987C77.9531 218.092 77.6435 218.145 77.2827 218.145ZM77.5597 217.122C77.9119 217.122 78.2131 217.053 78.4631 216.913C78.7159 216.774 78.9077 216.592 79.0384 216.368C79.1719 216.141 79.2386 215.898 79.2386 215.639V214.795C79.1932 214.841 79.1051 214.884 78.9744 214.923C78.8466 214.96 78.7003 214.993 78.5355 215.021C78.3707 215.047 78.2102 215.071 78.054 215.094C77.8977 215.114 77.7671 215.131 77.6619 215.145C77.4148 215.176 77.1889 215.229 76.9844 215.303C76.7827 215.376 76.6207 215.483 76.4986 215.622C76.3793 215.759 76.3196 215.94 76.3196 216.168C76.3196 216.483 76.4361 216.722 76.669 216.884C76.902 217.043 77.1989 217.122 77.5597 217.122ZM82.0779 218V211.455H83.3009V212.52H83.3819C83.5182 212.159 83.7412 211.878 84.0509 211.676C84.3605 211.472 84.7313 211.369 85.1631 211.369C85.6006 211.369 85.9671 211.472 86.2625 211.676C86.5608 211.881 86.781 212.162 86.923 212.52H86.9912C87.1475 212.17 87.3961 211.892 87.737 211.685C88.0779 211.474 88.4841 211.369 88.9557 211.369C89.5495 211.369 90.0338 211.555 90.4088 211.928C90.7867 212.3 90.9756 212.861 90.9756 213.611V218H89.7015V213.73C89.7015 213.287 89.5807 212.966 89.3392 212.767C89.0978 212.568 88.8094 212.469 88.4742 212.469C88.0594 212.469 87.737 212.597 87.5069 212.852C87.2767 213.105 87.1617 213.43 87.1617 213.828V218H85.8918V213.649C85.8918 213.294 85.781 213.009 85.5594 212.793C85.3378 212.577 85.0495 212.469 84.6944 212.469C84.4529 212.469 84.2299 212.533 84.0253 212.661C83.8236 212.786 83.6603 212.96 83.5353 213.185C83.4131 213.409 83.352 213.669 83.352 213.964V218H82.0779ZM92.5513 218V211.455H93.7744V212.52H93.8553C93.9917 212.159 94.2147 211.878 94.5244 211.676C94.834 211.472 95.2048 211.369 95.6366 211.369C96.0741 211.369 96.4406 211.472 96.736 211.676C97.0343 211.881 97.2545 212.162 97.3965 212.52H97.4647C97.6209 212.17 97.8695 211.892 98.2104 211.685C98.5513 211.474 98.9576 211.369 99.4292 211.369C100.023 211.369 100.507 211.555 100.882 211.928C101.26 212.3 101.449 212.861 101.449 213.611V218H100.175V213.73C100.175 213.287 100.054 212.966 99.8127 212.767C99.5712 212.568 99.2829 212.469 98.9477 212.469C98.5329 212.469 98.2104 212.597 97.9803 212.852C97.7502 213.105 97.6352 213.43 97.6352 213.828V218H96.3653V213.649C96.3653 213.294 96.2545 213.009 96.0329 212.793C95.8113 212.577 95.5229 212.469 95.1678 212.469C94.9263 212.469 94.7033 212.533 94.4988 212.661C94.2971 212.786 94.1337 212.96 94.0087 213.185C93.8866 213.409 93.8255 213.669 93.8255 213.964V218H92.5513ZM105.782 218.132C105.168 218.132 104.633 217.991 104.175 217.71C103.718 217.429 103.363 217.036 103.11 216.53C102.857 216.024 102.731 215.433 102.731 214.757C102.731 214.078 102.857 213.484 103.11 212.976C103.363 212.467 103.718 212.072 104.175 211.791C104.633 211.51 105.168 211.369 105.782 211.369C106.396 211.369 106.931 211.51 107.388 211.791C107.846 212.072 108.201 212.467 108.454 212.976C108.707 213.484 108.833 214.078 108.833 214.757C108.833 215.433 108.707 216.024 108.454 216.53C108.201 217.036 107.846 217.429 107.388 217.71C106.931 217.991 106.396 218.132 105.782 218.132ZM105.786 217.062C106.184 217.062 106.513 216.957 106.775 216.747C107.036 216.537 107.229 216.257 107.354 215.908C107.482 215.558 107.546 215.173 107.546 214.753C107.546 214.335 107.482 213.952 107.354 213.602C107.229 213.25 107.036 212.967 106.775 212.754C106.513 212.541 106.184 212.435 105.786 212.435C105.386 212.435 105.053 212.541 104.789 212.754C104.528 212.967 104.333 213.25 104.205 213.602C104.08 213.952 104.018 214.335 104.018 214.753C104.018 215.173 104.08 215.558 104.205 215.908C104.333 216.257 104.528 216.537 104.789 216.747C105.053 216.957 105.386 217.062 105.786 217.062ZM111.397 214.114V218H110.123V211.455H111.346V212.52H111.427C111.578 212.173 111.814 211.895 112.135 211.685C112.459 211.474 112.866 211.369 113.358 211.369C113.804 211.369 114.194 211.463 114.53 211.651C114.865 211.835 115.125 212.111 115.309 212.477C115.494 212.844 115.586 213.297 115.586 213.837V218H114.312V213.99C114.312 213.516 114.189 213.145 113.941 212.878C113.694 212.608 113.355 212.473 112.923 212.473C112.628 212.473 112.365 212.537 112.135 212.665C111.907 212.793 111.727 212.98 111.593 213.227C111.463 213.472 111.397 213.767 111.397 214.114ZM119.613 218.128C119.085 218.128 118.613 217.993 118.199 217.723C117.787 217.45 117.463 217.062 117.227 216.56C116.994 216.054 116.878 215.447 116.878 214.74C116.878 214.033 116.996 213.428 117.231 212.925C117.47 212.422 117.797 212.037 118.211 211.77C118.626 211.503 119.096 211.369 119.622 211.369C120.028 211.369 120.355 211.438 120.602 211.574C120.852 211.707 121.045 211.864 121.182 212.043C121.321 212.222 121.429 212.379 121.505 212.516H121.582V209.273H122.856V218H121.612V216.982H121.505C121.429 217.121 121.318 217.28 121.173 217.459C121.031 217.638 120.835 217.794 120.585 217.928C120.335 218.061 120.011 218.128 119.613 218.128ZM119.895 217.041C120.261 217.041 120.571 216.945 120.824 216.751C121.079 216.555 121.273 216.284 121.403 215.938C121.537 215.591 121.604 215.187 121.604 214.727C121.604 214.273 121.538 213.875 121.407 213.534C121.277 213.193 121.085 212.928 120.832 212.737C120.579 212.547 120.267 212.452 119.895 212.452C119.511 212.452 119.192 212.551 118.936 212.75C118.68 212.949 118.487 213.22 118.356 213.564C118.229 213.908 118.165 214.295 118.165 214.727C118.165 215.165 118.23 215.558 118.361 215.908C118.491 216.257 118.684 216.534 118.94 216.739C119.199 216.94 119.517 217.041 119.895 217.041Z" fill="black" fill-opacity="0.4"/>
</g>
<defs>
<filter id="filter0_ddd_2278_986" x="0" y="0" width="260" height="260" filterUnits="userSpaceOnUse" color-interpolation-filters="sRGB">
<feFlood flood-opacity="0" result="BackgroundImageFix"/>
<feColorMatrix in="SourceAlpha" type="matrix" values="0 0 0 0 0 0 0 0 0 0 0 0 0 0 0 0 0 0 127 0" result="hardAlpha"/>
<feOffset dy="2.5"/>
<feGaussianBlur stdDeviation="1"/>
<feColorMatrix type="matrix" values="0 0 0 0 0 0 0 0 0 0 0 0 0 0 0 0 0 0 0.02 0"/>
<feBlend mode="normal" in2="BackgroundImageFix" result="effect1_dropShadow_2278_986"/>
<feColorMatrix in="SourceAlpha" type="matrix" values="0 0 0 0 0 0 0 0 0 0 0 0 0 0 0 0 0 0 127 0" result="hardAlpha"/>
<feOffset dy="3"/>
<feGaussianBlur stdDeviation="2.5"/>
<feColorMatrix type="matrix" values="0 0 0 0 0 0 0 0 0 0 0 0 0 0 0 0 0 0 0.04 0"/>
<feBlend mode="normal" in2="effect1_dropShadow_2278_986" result="effect2_dropShadow_2278_986"/>
<feColorMatrix in="SourceAlpha" type="matrix" values="0 0 0 0 0 0 0 0 0 0 0 0 0 0 0 0 0 0 127 0" result="hardAlpha"/>
<feOffset dy="8"/>
<feGaussianBlur stdDeviation="5"/>
<feColorMatrix type="matrix" values="0 0 0 0 0 0 0 0 0 0 0 0 0 0 0 0 0 0 0.08 0"/>
<feBlend mode="normal" in2="effect2_dropShadow_2278_986" result="effect3_dropShadow_2278_986"/>
<feBlend mode="normal" in="SourceGraphic" in2="effect3_dropShadow_2278_986" result="shape"/>
</filter>
</defs>
</svg>
