<svg width="240" height="128" viewBox="0 0 240 128" fill="none" xmlns="http://www.w3.org/2000/svg">
<rect width="240" height="128" rx="6" fill="#BDE3FF"/>
<path d="M37.9856 70H36.1219L40.3094 58.3636H42.3378L46.5253 70H44.6617L41.3719 60.4773H41.281L37.9856 70ZM38.2981 65.4432H44.3435V66.9205H38.2981V65.4432ZM57.1476 62.1477H55.3749C55.3067 61.7689 55.1798 61.4356 54.9942 61.1477C54.8086 60.8598 54.5813 60.6155 54.3124 60.4148C54.0435 60.214 53.7423 60.0625 53.409 59.9602C53.0794 59.858 52.7291 59.8068 52.3579 59.8068C51.6874 59.8068 51.087 59.9754 50.5567 60.3125C50.0302 60.6496 49.6135 61.1439 49.3067 61.7955C49.0037 62.447 48.8522 63.2424 48.8522 64.1818C48.8522 65.1288 49.0037 65.928 49.3067 66.5795C49.6135 67.2311 50.0321 67.7235 50.5624 68.0568C51.0927 68.3902 51.6893 68.5568 52.3522 68.5568C52.7196 68.5568 53.0681 68.5076 53.3976 68.4091C53.731 68.3068 54.0321 68.1572 54.301 67.9602C54.57 67.7633 54.7972 67.5227 54.9829 67.2386C55.1722 66.9508 55.3029 66.6212 55.3749 66.25L57.1476 66.2557C57.0529 66.8277 56.8692 67.3542 56.5965 67.8352C56.3275 68.3125 55.981 68.7254 55.5567 69.0739C55.1363 69.4186 54.6552 69.6856 54.1135 69.875C53.5719 70.0644 52.981 70.1591 52.3408 70.1591C51.3332 70.1591 50.4355 69.9205 49.6476 69.4432C48.8597 68.9621 48.2385 68.2746 47.784 67.3807C47.3332 66.4867 47.1079 65.4205 47.1079 64.1818C47.1079 62.9394 47.3351 61.8731 47.7897 60.983C48.2442 60.089 48.8654 59.4034 49.6533 58.9261C50.4412 58.4451 51.337 58.2045 52.3408 58.2045C52.9582 58.2045 53.534 58.2936 54.0681 58.4716C54.606 58.6458 55.0889 58.9034 55.5169 59.2443C55.945 59.5814 56.2991 59.9943 56.5794 60.483C56.8597 60.9678 57.0491 61.5227 57.1476 62.1477ZM59.0725 70V58.3636H60.8282V63.9205H60.9702L65.8509 58.3636H68.0611L63.3679 63.6023L68.0782 70H65.9645L62.2032 64.8011L60.8282 66.3807V70H59.0725ZM78.9135 58.3636V70H77.2999L71.3851 61.4659H71.2772V70H69.5215V58.3636H71.1465L77.0669 66.9091H77.1749V58.3636H78.9135ZM91.4066 64.1818C91.4066 65.4242 91.1793 66.4924 90.7247 67.3864C90.2702 68.2765 89.6471 68.9621 88.8554 69.4432C88.0675 69.9205 87.1717 70.1591 86.1679 70.1591C85.1603 70.1591 84.2607 69.9205 83.4691 69.4432C82.6812 68.9621 82.06 68.2746 81.6054 67.3807C81.1509 66.4867 80.9236 65.4205 80.9236 64.1818C80.9236 62.9394 81.1509 61.8731 81.6054 60.983C82.06 60.089 82.6812 59.4034 83.4691 58.9261C84.2607 58.4451 85.1603 58.2045 86.1679 58.2045C87.1717 58.2045 88.0675 58.4451 88.8554 58.9261C89.6471 59.4034 90.2702 60.089 90.7247 60.983C91.1793 61.8731 91.4066 62.9394 91.4066 64.1818ZM89.6679 64.1818C89.6679 63.2348 89.5145 62.4375 89.2077 61.7898C88.9047 61.1383 88.488 60.6458 87.9577 60.3125C87.4312 59.9754 86.8346 59.8068 86.1679 59.8068C85.4975 59.8068 84.899 59.9754 84.3725 60.3125C83.8459 60.6458 83.4293 61.1383 83.1225 61.7898C82.8194 62.4375 82.6679 63.2348 82.6679 64.1818C82.6679 65.1288 82.8194 65.928 83.1225 66.5795C83.4293 67.2273 83.8459 67.7197 84.3725 68.0568C84.899 68.3902 85.4975 68.5568 86.1679 68.5568C86.8346 68.5568 87.4312 68.3902 87.9577 68.0568C88.488 67.7197 88.9047 67.2273 89.2077 66.5795C89.5145 65.928 89.6679 65.1288 89.6679 64.1818ZM95.5573 70L92.33 58.3636H94.1766L96.4436 67.375H96.5516L98.9095 58.3636H100.739L103.097 67.3807H103.205L105.466 58.3636H107.319L104.086 70H102.319L99.8698 61.2841H99.7789L97.33 70H95.5573ZM108.743 70V58.3636H110.499V68.4886H115.772V70H108.743ZM117.599 70V58.3636H124.894V59.875H119.354V63.4205H124.513V64.9261H119.354V68.4886H124.962V70H117.599ZM130.83 70H127.063V58.3636H130.95C132.09 58.3636 133.069 58.5966 133.887 59.0625C134.705 59.5246 135.332 60.1894 135.768 61.0568C136.207 61.9205 136.427 62.9564 136.427 64.1648C136.427 65.3769 136.205 66.4186 135.762 67.2898C135.323 68.161 134.686 68.8314 133.853 69.3011C133.02 69.767 132.012 70 130.83 70ZM128.819 68.4659H130.734C131.62 68.4659 132.357 68.2992 132.944 67.9659C133.531 67.6288 133.971 67.142 134.262 66.5057C134.554 65.8655 134.7 65.0852 134.7 64.1648C134.7 63.2519 134.554 62.4773 134.262 61.8409C133.974 61.2045 133.544 60.7216 132.972 60.392C132.4 60.0625 131.69 59.8977 130.842 59.8977H128.819V68.4659ZM146.309 62.0398C146.199 61.6951 146.052 61.3864 145.866 61.1136C145.684 60.8371 145.466 60.6023 145.213 60.4091C144.959 60.2121 144.669 60.0625 144.343 59.9602C144.021 59.858 143.667 59.8068 143.281 59.8068C142.626 59.8068 142.035 59.9754 141.508 60.3125C140.982 60.6496 140.565 61.1439 140.258 61.7955C139.955 62.4432 139.804 63.2367 139.804 64.1761C139.804 65.1193 139.957 65.9167 140.264 66.5682C140.571 67.2197 140.991 67.714 141.525 68.0511C142.059 68.3883 142.667 68.5568 143.349 68.5568C143.982 68.5568 144.533 68.428 145.002 68.1705C145.476 67.9129 145.841 67.5492 146.099 67.0795C146.36 66.6061 146.491 66.0492 146.491 65.4091L146.946 65.4943H143.616V64.0455H148.19V65.3693C148.19 66.3466 147.982 67.1951 147.565 67.9148C147.152 68.6307 146.58 69.1837 145.849 69.5739C145.122 69.964 144.288 70.1591 143.349 70.1591C142.296 70.1591 141.372 69.9167 140.576 69.4318C139.785 68.947 139.167 68.2595 138.724 67.3693C138.281 66.4754 138.059 65.4148 138.059 64.1875C138.059 63.2595 138.188 62.4261 138.446 61.6875C138.703 60.9489 139.065 60.322 139.531 59.8068C140.001 59.2879 140.552 58.892 141.184 58.6193C141.821 58.3428 142.516 58.2045 143.269 58.2045C143.898 58.2045 144.483 58.2973 145.025 58.483C145.571 58.6686 146.055 58.9318 146.48 59.2727C146.908 59.6136 147.262 60.0189 147.542 60.4886C147.822 60.9545 148.012 61.4716 148.11 62.0398H146.309ZM150.243 70V58.3636H157.538V59.875H151.998V63.4205H157.157V64.9261H151.998V68.4886H157.606V70H150.243ZM159.707 58.3636H161.838L165.542 67.4091H165.679L169.383 58.3636H171.514V70H169.844V61.5795H169.736L166.304 69.983H164.917L161.486 61.5739H161.378V70H159.707V58.3636ZM173.891 70V58.3636H181.186V59.875H175.646V63.4205H180.805V64.9261H175.646V68.4886H181.254V70H173.891ZM192.747 58.3636V70H191.134L185.219 61.4659H185.111V70H183.355V58.3636H184.98L190.901 66.9091H191.009V58.3636H192.747ZM194.558 59.875V58.3636H203.564V59.875H199.933V70H198.183V59.875H194.558Z" fill="black" fill-opacity="0.8"/>
</svg>
