<svg width="18" height="72" viewBox="0 0 18 72" fill="none" xmlns="http://www.w3.org/2000/svg">
<path d="M-3.93402e-07 63C-1.77031e-07 67.95 4.05 72 9 72C13.95 72 18 67.95 18 63C18 58.05 13.95 54 9 54C4.05 54 -6.09774e-07 58.05 -3.93402e-07 63ZM-2.75382e-06 9C-2.53745e-06 13.95 4.05 18 9 18C13.95 18 18 13.95 18 9C18 4.05 13.95 -6.09774e-07 9 -3.93403e-07C4.05 -1.77031e-07 -2.97019e-06 4.05 -2.75382e-06 9ZM-1.57361e-06 36C-1.35724e-06 40.95 4.05 45 9 45C13.95 45 18 40.95 18 36C18 31.05 13.95 27 9 27C4.05 27 -1.78998e-06 31.05 -1.57361e-06 36Z" fill="black"/>
</svg>
