<svg width="24" height="65" viewBox="0 0 24 65" fill="none" xmlns="http://www.w3.org/2000/svg">
<path d="M13.5 2C13.5 1.17157 12.8284 0.5 12 0.5C11.1716 0.5 10.5 1.17157 10.5 2H13.5ZM10.9393 64.0607C11.5251 64.6464 12.4749 64.6464 13.0607 64.0607L22.6066 54.5147C23.1924 53.9289 23.1924 52.9792 22.6066 52.3934C22.0208 51.8076 21.0711 51.8076 20.4853 52.3934L12 60.8787L3.51472 52.3934C2.92893 51.8076 1.97919 51.8076 1.3934 52.3934C0.807611 52.9792 0.807611 53.9289 1.3934 54.5147L10.9393 64.0607ZM12 2H10.5V63H12H13.5V2H12Z" fill="#B3B3B3"/>
</svg>
