<svg width="30" height="61" viewBox="0 0 30 61" fill="none" xmlns="http://www.w3.org/2000/svg">
<path d="M17 2C17 0.89543 16.1046 0 15 0C13.8954 0 13 0.89543 13 2H17ZM13.5858 59.9142C14.3668 60.6953 15.6332 60.6953 16.4142 59.9142L29.1421 47.1863C29.9232 46.4052 29.9232 45.1389 29.1421 44.3579C28.3611 43.5768 27.0948 43.5768 26.3137 44.3579L15 55.6716L3.68629 44.3579C2.90524 43.5768 1.63891 43.5768 0.857864 44.3579C0.0768156 45.1389 0.0768156 46.4052 0.857864 47.1863L13.5858 59.9142ZM15 2H13V58.5H15H17V2H15Z" fill="#B3B3B3"/>
</svg>
