<svg width="317" height="151" viewBox="0 0 317 151" fill="none" xmlns="http://www.w3.org/2000/svg">
<path d="M3.5 2C3.5 1.17157 2.82843 0.5 2 0.5C1.17157 0.5 0.5 1.17157 0.5 2H3.5ZM303.939 150.061C304.525 150.646 305.475 150.646 306.061 150.061L315.607 140.515C316.192 139.929 316.192 138.979 315.607 138.393C315.021 137.808 314.071 137.808 313.485 138.393L305 146.879L296.515 138.393C295.929 137.808 294.979 137.808 294.393 138.393C293.808 138.979 293.808 139.929 294.393 140.515L303.939 150.061ZM2 2H0.5V40H2H3.5V2H2ZM26 64V65.5H281V64V62.5H26V64ZM305 88H303.5V149H305H306.5V88H305ZM281 64V65.5C293.426 65.5 303.5 75.5736 303.5 88H305H306.5C306.5 73.9167 295.083 62.5 281 62.5V64ZM2 40H0.5C0.5 54.0833 11.9167 65.5 26 65.5V64V62.5C13.5736 62.5 3.5 52.4264 3.5 40H2Z" fill="#B3B3B3"/>
</svg>
