<svg width="323" height="145" viewBox="0 0 323 145" fill="none" xmlns="http://www.w3.org/2000/svg">
<path d="M322.5 2C322.5 1.17157 321.828 0.5 321 0.5C320.172 0.5 319.5 1.17157 319.5 2H322.5ZM10.9393 144.061C11.5251 144.646 12.4749 144.646 13.0607 144.061L22.6066 134.515C23.1924 133.929 23.1924 132.979 22.6066 132.393C22.0208 131.808 21.0711 131.808 20.4853 132.393L12 140.879L3.51472 132.393C2.92893 131.808 1.97919 131.808 1.3934 132.393C0.807611 132.979 0.807611 133.929 1.3934 134.515L10.9393 144.061ZM321 2H319.5V40H321H322.5V2H321ZM297 64V62.5H36V64V65.5H297V64ZM12 88H10.5V143H12H13.5V88H12ZM36 64V62.5C21.9167 62.5 10.5 73.9167 10.5 88H12H13.5C13.5 75.5736 23.5736 65.5 36 65.5V64ZM321 40H319.5C319.5 52.4264 309.426 62.5 297 62.5V64V65.5C311.083 65.5 322.5 54.0833 322.5 40H321Z" fill="#B3B3B3"/>
</svg>
