<svg width="183" height="143" viewBox="0 0 183 143" fill="none" xmlns="http://www.w3.org/2000/svg">
<path d="M182.5 2C182.5 1.17157 181.828 0.5 181 0.5C180.172 0.5 179.5 1.17157 179.5 2H182.5ZM0.93934 129.939C0.353553 130.525 0.353553 131.475 0.93934 132.061L10.4853 141.607C11.0711 142.192 12.0208 142.192 12.6066 141.607C13.1924 141.021 13.1924 140.071 12.6066 139.485L4.12132 131L12.6066 122.515C13.1924 121.929 13.1924 120.979 12.6066 120.393C12.0208 119.808 11.0711 119.808 10.4853 120.393L0.93934 129.939ZM181 2H179.5V107H181H182.5V2H181ZM157 131V129.5H2V131V132.5H157V131ZM181 107H179.5C179.5 119.426 169.426 129.5 157 129.5V131V132.5C171.083 132.5 182.5 121.083 182.5 107H181Z" fill="#B3B3B3"/>
</svg>
