<svg width="189" height="160" viewBox="0 0 189 160" fill="none" xmlns="http://www.w3.org/2000/svg">
<path d="M3.5 2C3.5 1.17157 2.82843 0.5 2 0.5C1.17157 0.5 0.5 1.17157 0.5 2H3.5ZM188.061 149.545C188.646 148.959 188.646 148.009 188.061 147.423L178.515 137.877C177.929 137.292 176.979 137.292 176.393 137.877C175.808 138.463 175.808 139.413 176.393 139.999L184.879 148.484L176.393 156.969C175.808 157.555 175.808 158.505 176.393 159.091C176.979 159.676 177.929 159.676 178.515 159.091L188.061 149.545ZM2 2H0.5V124.484H2H3.5V2H2ZM26 148.484V149.984H187V148.484V146.984H26V148.484ZM2 124.484H0.5C0.5 138.567 11.9167 149.984 26 149.984V148.484V146.984C13.5736 146.984 3.5 136.91 3.5 124.484H2Z" fill="#B3B3B3"/>
</svg>
