<svg width="200" height="108" viewBox="0 0 200 108" fill="none" xmlns="http://www.w3.org/2000/svg">
<rect width="200" height="108" rx="4" fill="white"/>
<path d="M200 0H0V25.92H200V0Z" fill="#EFF3F7"/>
<path d="M40.7368 35.64H17.1579C14.9487 35.64 13.1579 37.4309 13.1579 39.64C13.1579 41.8492 14.9487 43.64 17.1579 43.64H40.7368C42.946 43.64 44.7368 41.8492 44.7368 39.64C44.7368 37.4309 42.946 35.64 40.7368 35.64Z" fill="#DAE3E8"/>
<path d="M40.7368 62.64H17.1579C14.9487 62.64 13.1579 64.4309 13.1579 66.64C13.1579 68.8492 14.9487 70.64 17.1579 70.64H40.7368C42.946 70.64 44.7368 68.8492 44.7368 66.64C44.7368 64.4309 42.946 62.64 40.7368 62.64Z" fill="#DAE3E8"/>
<path d="M40.7368 89.64H17.1579C14.9487 89.64 13.1579 91.4309 13.1579 93.64C13.1579 95.8492 14.9487 97.64 17.1579 97.64H40.7368C42.946 97.64 44.7368 95.8492 44.7368 93.64C44.7368 91.4309 42.946 89.64 40.7368 89.64Z" fill="#DAE3E8"/>
<path d="M111.789 35.64H88.2105C86.0013 35.64 84.2105 37.4309 84.2105 39.64C84.2105 41.8492 86.0013 43.64 88.2105 43.64H111.789C113.999 43.64 115.789 41.8492 115.789 39.64C115.789 37.4309 113.999 35.64 111.789 35.64Z" fill="#DAE3E8"/>
<path d="M111.789 62.64H88.2105C86.0013 62.64 84.2105 64.4309 84.2105 66.64C84.2105 68.8492 86.0013 70.64 88.2105 70.64H111.789C113.999 70.64 115.789 68.8492 115.789 66.64C115.789 64.4309 113.999 62.64 111.789 62.64Z" fill="#DAE3E8"/>
<path d="M111.789 89.64H88.2105C86.0013 89.64 84.2105 91.4309 84.2105 93.64C84.2105 95.8492 86.0013 97.64 88.2105 97.64H111.789C113.999 97.64 115.789 95.8492 115.789 93.64C115.789 91.4309 113.999 89.64 111.789 89.64Z" fill="#DAE3E8"/>
<path d="M185.842 35.64H156.263C155.711 35.64 155.263 36.0877 155.263 36.64V42.64C155.263 43.1923 155.711 43.64 156.263 43.64H185.842C186.394 43.64 186.842 43.1923 186.842 42.64V36.64C186.842 36.0877 186.394 35.64 185.842 35.64Z" fill="#005680"/>
<path d="M185.842 62.64H156.263C155.711 62.64 155.263 63.0877 155.263 63.64V69.64C155.263 70.1923 155.711 70.64 156.263 70.64H185.842C186.394 70.64 186.842 70.1923 186.842 69.64V63.64C186.842 63.0877 186.394 62.64 185.842 62.64Z" fill="#005680"/>
<path d="M185.842 89.64H156.263C155.711 89.64 155.263 90.0877 155.263 90.64V96.64C155.263 97.1923 155.711 97.64 156.263 97.64H185.842C186.394 97.64 186.842 97.1923 186.842 96.64V90.64C186.842 90.0877 186.394 89.64 185.842 89.64Z" fill="#005680"/>
<g style="mix-blend-mode:multiply">
<path d="M40.7368 8.95984H17.1579C14.9487 8.95984 13.1579 10.7507 13.1579 12.9598C13.1579 15.169 14.9487 16.9598 17.1579 16.9598H40.7368C42.946 16.9598 44.7368 15.169 44.7368 12.9598C44.7368 10.7507 42.946 8.95984 40.7368 8.95984Z" fill="#DAE3E8"/>
</g>
<g style="mix-blend-mode:multiply">
<path d="M111.789 8.95984H88.2105C86.0013 8.95984 84.2105 10.7507 84.2105 12.9598C84.2105 15.169 86.0013 16.9598 88.2105 16.9598H111.789C113.999 16.9598 115.789 15.169 115.789 12.9598C115.789 10.7507 113.999 8.95984 111.789 8.95984Z" fill="#DAE3E8"/>
</g>
<g style="mix-blend-mode:multiply">
<path d="M182.842 8.95984H159.263C157.054 8.95984 155.263 10.7507 155.263 12.9598C155.263 15.169 157.054 16.9598 159.263 16.9598H182.842C185.051 16.9598 186.842 15.169 186.842 12.9598C186.842 10.7507 185.051 8.95984 182.842 8.95984Z" fill="#DAE3E8"/>
</g>
<path d="M200 25.92H0V27H200V25.92Z" fill="#ECF0F4"/>
<path d="M200 52.92H0V54H200V52.92Z" fill="#ECF0F4"/>
<path d="M200 79.92H0V81H200V79.92Z" fill="#ECF0F4"/>
</svg>
