<svg width="112" height="200" viewBox="0 0 112 200" fill="none" xmlns="http://www.w3.org/2000/svg">
<path d="M26.7986 56.8551L25.5908 54.807L26.7811 56.8901L26.7986 56.8551Z" fill="white"/>
<path d="M86.0341 56.8901L87.2244 54.807L86.0166 56.8551L86.0341 56.8901Z" fill="white"/>
<path d="M55.5762 43.079C55.8562 43.079 56.1188 43.079 56.3989 43.079C56.679 43.079 56.9415 43.0965 57.2216 43.079C69.0022 42.6413 78.2972 32.8562 78.0872 21.1281C77.8771 9.18994 68.4246 0.0875233 56.4689 0C56.4689 0 56.4164 0 56.3989 0C56.3814 0 56.3464 0 56.3289 0C44.3907 0.0875233 34.9382 9.18994 34.7106 21.1281C34.4831 32.8562 43.7955 42.6413 55.5762 43.079Z" fill="#333333"/>
<path d="M103.014 108.581C98.095 91.6544 92.9836 74.7799 87.9598 57.8879C87.6797 56.9601 87.4697 55.9974 87.2246 54.8246L86.0343 56.9076V56.8726L87.2246 54.8246C87.2246 54.8246 83.7062 47.175 80.6253 46.8249L77.562 46.4749L56.4164 46.5449L35.2708 46.4749L32.2075 46.8249C29.1442 47.175 25.6082 54.8246 25.6082 54.8246L26.816 56.8726V56.9076L25.6082 54.8246C25.3457 55.9974 25.1356 56.9601 24.873 57.8879C19.8492 74.7799 14.7553 91.6544 9.81902 108.581C7.36837 117.019 9.17135 122.042 14.9129 123.863C20.882 125.736 25.0831 122.673 27.7088 114.305C29.3367 109.124 30.6496 103.855 32.2425 98.6737C32.8551 96.6957 33.3803 94.9102 33.8879 93.2123C33.8354 123.408 33.7654 153.586 33.7304 183.781C33.7304 186.81 33.5553 189.978 34.3255 192.849C35.6209 197.593 39.1043 200.148 44.1806 199.921C49.257 199.693 52.4078 196.892 53.3356 191.991C53.8257 189.365 53.7032 186.582 53.7032 183.886C53.7382 169.655 53.6507 155.406 53.7907 141.175C53.8082 138.479 54.6309 135.784 55.0685 133.088C55.5062 133.018 55.9613 132.965 56.3989 132.895C56.8365 132.965 57.2916 133.018 57.7293 133.088C58.1844 135.784 58.9896 138.479 59.0071 141.175C59.1296 155.406 59.0596 169.655 59.0946 183.886C59.0946 186.6 58.9721 189.365 59.4622 191.991C60.39 196.892 63.5408 199.693 68.6172 199.921C73.711 200.166 77.1769 197.593 78.4723 192.849C79.26 189.978 79.0849 186.81 79.0674 183.781C79.0324 153.586 78.9799 123.408 78.9099 93.2123C79.4 94.9102 79.9427 96.6782 80.5553 98.6737C82.1482 103.855 83.4786 109.124 85.089 114.305C87.7147 122.673 91.9158 125.736 97.8849 123.863C103.609 122.06 105.429 117.019 102.979 108.581H103.014Z" fill="#333333"/>
</svg>
