<svg width="112" height="200" viewBox="0 0 112 200" fill="none" xmlns="http://www.w3.org/2000/svg">
<path d="M110.47 98.593C109.192 95.8448 107.354 93.3591 105.708 90.7859C96.3608 76.1871 86.9958 61.6057 77.4558 46.7442H76.6156L76.7381 46.7092C76.4405 46.7092 76.1079 46.7442 75.7928 46.7442H37.4226L36.2848 48.8448C35.7772 49.685 35.3221 50.4202 34.8495 51.0854C33.5366 52.9409 32.2238 54.7964 30.9109 56.6519C22.0185 69.1852 13.1087 81.6835 4.30383 94.2694C-0.737507 101.481 -0.63248 106.82 4.21631 110.374C9.25765 114.067 14.2465 112.509 19.4103 105.437C19.4629 105.367 19.4979 105.315 19.5504 105.245C14.8591 117.726 10.1154 130.276 5.24908 143.195H31.261C31.4711 147.413 31.7861 150.722 31.7861 154.013C31.7861 164.866 31.5411 175.719 31.6636 186.571C31.7686 195.674 35.3746 200.12 41.9563 199.997C48.4506 199.892 51.6889 195.551 51.8465 186.239C51.9865 178.449 51.8815 170.642 51.8815 162.835C51.8815 156.498 51.8815 150.162 51.8815 143.51H59.391C59.391 147.168 59.391 150.459 59.391 153.75C59.391 165.618 59.2159 177.504 59.5135 189.355C59.6886 196.286 63.382 199.91 69.2636 199.962C75.1452 200.015 78.8036 196.409 79.2938 189.53C79.6088 185.136 79.3813 180.707 79.3813 176.314C79.3813 165.566 79.3813 154.818 79.3813 143.177H105.953C100.597 128.964 95.398 115.187 90.2167 101.429C91.6871 103.687 93.1575 105.927 94.7154 108.133C97.9537 112.737 102.943 113.524 107.266 110.969C111.59 108.396 112.955 103.774 110.522 98.558L110.47 98.593Z" fill="#333333"/>
<path d="M55.4868 43.1208C67.845 43.4359 77.6826 34.0359 77.8752 21.7301C78.0502 9.897 68.7903 0.304453 56.9046 0.00687367C44.5288 -0.290705 34.5687 9.10929 34.3061 21.3275C34.0786 32.7056 43.8987 42.8233 55.4868 43.1033V43.1208Z" fill="#333333"/>
</svg>
