<svg width="255" height="300" viewBox="0 0 255 300" fill="none" xmlns="http://www.w3.org/2000/svg">
<path d="M209.487 102.05C202.602 77.9627 186.572 61.8589 161.849 54.1908C145.469 49.1099 127.674 48.654 107.444 52.7959C89.7038 56.4312 75.7119 65.6579 65.8501 80.2187C56.6858 93.7548 53.5531 107.006 56.2728 120.733C57.882 128.869 55.9923 135.883 50.6503 141.579C50.0736 142.195 49.61 142.791 49.2398 143.399L48.2384 145.031C46.4734 147.915 44.646 150.899 42.916 153.884C41.4315 156.444 41.7626 159.284 43.8277 161.684C44.9148 162.947 46.1773 164.03 47.4709 164.817C49.345 165.955 51.2971 166.976 53.1869 167.969C53.7557 168.269 54.3246 168.565 54.8935 168.869C56.6157 169.785 56.7092 170.058 55.8871 171.799C55.5442 172.528 55.1701 173.237 54.7727 173.989C54.2194 175.037 53.6505 176.117 53.1674 177.258C51.6673 180.8 52.0725 183.461 54.5584 185.932C53.4245 188.788 53.9389 191.153 56.1014 192.976C57.1651 193.873 57.4729 194.897 57.282 196.892C57.0326 199.468 56.7793 202.515 56.7832 205.612C56.7949 210.572 59.2341 214.297 63.8435 216.382C67.0152 217.816 70.4985 218.412 74.1845 218.155C76.1912 218.015 78.2095 217.804 80.1616 217.605C81.8916 217.426 83.6839 217.243 85.4334 217.111C91.9871 216.608 94.8938 218.311 97.3914 224.116C98.7279 227.226 99.5344 230.713 100.31 234.087L100.423 234.578C100.781 236.133 101.007 237.707 101.245 239.378C101.479 241.003 101.716 242.683 102.094 244.339C103.061 248.613 104.814 250 109.291 250C109.326 250 109.361 250 109.396 250C132.132 249.891 154.867 249.782 177.602 249.673L183.802 249.642C185.267 249.634 187.079 249.447 188.076 248.064C189.081 246.669 188.692 244.888 188.181 243.326C187.784 242.118 187.382 240.914 186.977 239.706C185.345 234.816 183.657 229.762 182.399 224.724C179.36 212.556 181.183 201.151 187.827 190.826C188.999 189.002 190.223 187.159 191.404 185.378C193.367 182.421 195.397 179.358 197.283 176.265C199.835 172.076 202.726 167.33 205.021 162.339C208.894 153.923 210.25 144.829 211.217 136.97C212.908 123.196 212.362 112.107 209.491 102.066L209.487 102.05ZM174.704 225.932C175.592 229.735 176.738 233.514 177.848 237.169C178.319 238.72 178.806 240.321 179.262 241.896L179.274 241.931C178.487 241.931 177.704 241.931 176.928 241.931C173.476 241.927 170.215 241.923 166.903 241.938L158.183 241.973C142.461 242.036 126.201 242.102 110.211 242.25C109.759 242.258 109.568 242.199 109.505 242.176C109.474 242.122 109.4 241.946 109.338 241.518C109.166 240.368 109.01 239.215 108.851 238.061C108.434 234.987 108.001 231.812 107.28 228.714C106.525 225.464 105.149 222.34 103.914 219.663C100.559 212.388 94.2899 208.807 85.788 209.318C84.1086 209.419 82.4293 209.606 80.8045 209.789C78.5407 210.043 76.4016 210.284 74.243 210.307C72.1584 210.343 69.8439 209.976 66.9372 209.181C65.3163 208.737 64.5176 207.518 64.5526 205.554C64.5955 203.298 64.6734 200.886 64.9306 198.525C65.3319 194.874 65.2579 191.141 62.3707 188.242C62.5538 188.005 62.733 187.763 62.9045 187.514C63.9565 185.99 64.2526 184.381 63.7383 182.986C63.2551 181.665 62.0979 180.695 60.477 180.255C60.4186 180.239 60.3679 180.223 60.325 180.208C60.3601 180.122 60.4108 180.017 60.4731 179.888C60.7848 179.257 61.1121 178.638 61.4589 177.987C62.0356 176.9 62.6356 175.778 63.1382 174.597C65.3943 169.314 63.8162 164.872 58.6925 162.094L57.3365 161.361C55.213 160.212 53.0193 159.023 50.8997 157.804C50.2412 157.426 50.0191 157.133 49.9918 157.024C49.9723 156.95 50.0113 156.713 50.2685 156.304C51.0205 155.115 51.7413 153.899 52.4388 152.723C53.1362 151.55 53.8531 150.334 54.5896 149.173C55.1662 148.261 55.8871 147.334 56.7949 146.337C63.5824 138.855 65.9865 129.878 63.9487 119.646C61.4238 106.979 64.5682 95.1341 73.8455 82.3695C81.9227 71.257 93.1327 64.0175 107.164 60.8575C126.232 56.5598 143.01 56.7235 158.456 61.3563C184.378 69.1335 199.508 86.0321 203.428 111.585C205.879 127.568 204.001 143.601 197.844 159.241C196.371 162.982 194.123 166.578 191.949 170.058C191.4 170.938 190.85 171.815 190.313 172.696C188.586 175.528 186.716 178.357 184.908 181.092C183.626 183.037 182.298 185.043 181.027 187.05C173.554 198.817 171.427 211.901 174.696 225.94L174.704 225.932Z" fill="#FFC72A"/>
<g clip-path="url(#clip0_6027_2525)">
<path d="M183.753 116.159H158.245V141.667H142.593V116.159H117.086V100.507H142.593V74.9998H158.245V100.507H183.753V116.159Z" fill="#FFC72A"/>
</g>
<defs>
<clipPath id="clip0_6027_2525">
<rect width="66.6667" height="66.6667" fill="white" transform="matrix(1 0 0 -1 117.086 141.667)"/>
</clipPath>
</defs>
</svg>
