<svg width="8" height="32" viewBox="0 0 8 32" fill="none" xmlns="http://www.w3.org/2000/svg">
<path d="M-1.74846e-07 28C-7.86805e-08 30.2 1.8 32 4 32C6.2 32 8 30.2 8 28C8 25.8 6.2 24 4 24C1.8 24 -2.71011e-07 25.8 -1.74846e-07 28ZM-1.22392e-06 4C-1.12775e-06 6.2 1.8 8 4 8C6.2 8 8 6.2 8 4C8 1.8 6.2 -2.71011e-07 4 -1.74846e-07C1.8 -7.86805e-08 -1.32008e-06 1.8 -1.22392e-06 4ZM-6.99382e-07 16C-6.03217e-07 18.2 1.8 20 4 20C6.2 20 8 18.2 8 16C8 13.8 6.2 12 4 12C1.8 12 -7.95547e-07 13.8 -6.99382e-07 16Z" fill="#333333"/>
</svg>
