<svg width="9" height="32" viewBox="0 0 9 32" fill="none" xmlns="http://www.w3.org/2000/svg">
<path d="M0.55664 27.9936C0.556641 30.1931 2.35623 31.9927 4.55572 31.9927C6.75522 31.9927 8.55481 30.1931 8.55481 27.9936C8.55481 25.7941 6.75522 23.9945 4.55572 23.9945C2.35623 23.9945 0.55664 25.7941 0.55664 27.9936ZM0.556639 3.99909C0.556639 6.19858 2.35623 7.99817 4.55572 7.99817C6.75522 7.99817 8.55481 6.19858 8.55481 3.99909C8.55481 1.79959 6.75522 3.06691e-06 4.55572 3.16305e-06C2.35623 3.2592e-06 0.556639 1.79959 0.556639 3.99909ZM0.55664 15.9963C0.55664 18.1958 2.35623 19.9954 4.55572 19.9954C6.75522 19.9954 8.55481 18.1958 8.55481 15.9963C8.55481 13.7968 6.75522 11.9973 4.55572 11.9973C2.35623 11.9973 0.55664 13.7968 0.55664 15.9963Z" fill="#333333"/>
</svg>
