<svg width="171" height="200" viewBox="0 0 171 200" fill="none" xmlns="http://www.w3.org/2000/svg">
<path d="M167.487 52.0502C160.602 27.9627 144.572 11.8589 119.849 4.19081C103.469 -0.890083 85.6742 -1.34596 65.4441 2.7959C47.7038 6.43123 33.7119 15.6579 23.8501 30.2187C14.6858 43.7548 11.5531 57.0064 14.2728 70.7334C15.882 78.869 13.9923 85.8825 8.65031 91.5791C8.07365 92.1947 7.60997 92.7908 7.23982 93.3987L6.23845 95.0313C4.47338 97.9146 2.64597 100.899 0.915975 103.884C-0.568549 106.444 -0.237356 109.284 1.82773 111.684C2.91482 112.947 4.17725 114.03 5.47086 114.817C7.34502 115.955 9.29711 116.976 11.1869 117.969C11.7557 118.269 12.3246 118.565 12.8935 118.869C14.6157 119.785 14.7092 120.058 13.8871 121.799C13.5442 122.528 13.1701 123.237 12.7727 123.989C12.2194 125.037 11.6505 126.117 11.1674 127.258C9.66727 130.8 10.0725 133.461 12.5584 135.932C11.4245 138.788 11.9389 141.153 14.1014 142.976C15.1651 143.873 15.4729 144.897 15.282 146.892C15.0326 149.468 14.7793 152.515 14.7832 155.612C14.7949 160.572 17.2341 164.297 21.8435 166.382C25.0152 167.816 28.4985 168.412 32.1845 168.155C34.1912 168.015 36.2095 167.804 38.1616 167.605C39.8916 167.426 41.6839 167.243 43.4334 167.111C49.9871 166.608 52.8938 168.311 55.3914 174.116C56.7279 177.226 57.5344 180.713 58.3098 184.087L58.4228 184.578C58.7813 186.133 59.0073 187.707 59.2449 189.378C59.4787 191.003 59.7164 192.683 60.0943 194.339C61.0607 198.613 62.814 200 67.291 200C67.326 200 67.3611 200 67.3962 200C90.1316 199.891 112.867 199.782 135.602 199.673L141.802 199.642C143.267 199.634 145.079 199.447 146.076 198.064C147.081 196.669 146.692 194.888 146.181 193.326C145.784 192.118 145.382 190.914 144.977 189.706C143.345 184.816 141.657 179.762 140.399 174.724C137.36 162.556 139.183 151.151 145.827 140.826C146.999 139.002 148.223 137.159 149.404 135.378C151.367 132.421 153.397 129.358 155.283 126.265C157.835 122.076 160.726 117.33 163.021 112.339C166.894 103.923 168.25 94.8287 169.217 86.9696C170.908 73.1959 170.362 62.1068 167.491 52.0658L167.487 52.0502ZM132.704 175.932C133.592 179.735 134.738 183.514 135.848 187.169C136.319 188.72 136.806 190.321 137.262 191.896L137.274 191.931C136.487 191.931 135.704 191.931 134.928 191.931C131.476 191.927 128.215 191.923 124.903 191.938L116.183 191.973C100.461 192.036 84.2013 192.102 68.2105 192.25C67.7586 192.258 67.5676 192.199 67.5053 192.176C67.4741 192.122 67.4001 191.946 67.3377 191.518C67.1663 190.368 67.0104 189.215 66.8507 188.061C66.4338 184.987 66.0013 181.812 65.2804 178.714C64.5245 175.464 63.1491 172.34 61.914 169.663C58.5592 162.388 52.2899 158.807 43.788 159.318C42.1086 159.419 40.4293 159.606 38.8045 159.789C36.5407 160.043 34.4016 160.284 32.243 160.307C30.1584 160.343 27.8439 159.976 24.9372 159.181C23.3163 158.737 22.5176 157.518 22.5526 155.554C22.5955 153.298 22.6734 150.886 22.9306 148.525C23.3319 144.874 23.2579 141.141 20.3707 138.242C20.5538 138.005 20.733 137.763 20.9045 137.514C21.9565 135.99 22.2526 134.381 21.7383 132.986C21.2551 131.665 20.0979 130.695 18.477 130.255C18.4186 130.239 18.3679 130.223 18.325 130.208C18.3601 130.122 18.4108 130.017 18.4731 129.888C18.7848 129.257 19.1121 128.638 19.4589 127.987C20.0356 126.9 20.6356 125.778 21.1382 124.597C23.3943 119.314 21.8162 114.872 16.6925 112.094L15.3365 111.361C13.213 110.212 11.0193 109.023 8.89968 107.804C8.24119 107.426 8.0191 107.133 7.99182 107.024C7.97234 106.95 8.0113 106.713 8.26846 106.304C9.02047 105.115 9.7413 103.899 10.4388 102.723C11.1362 101.55 11.8531 100.334 12.5896 99.1731C13.1662 98.2614 13.8871 97.334 14.7949 96.3365C21.5824 88.8555 23.9865 79.8782 21.9487 69.6463C19.4238 56.9791 22.5682 45.1341 31.8455 32.3695C39.9227 21.257 51.1327 14.0175 65.1636 10.8575C84.2325 6.55982 101.01 6.72346 116.456 11.3563C142.378 19.1335 157.508 36.0321 161.428 61.5846C163.879 77.5676 162.001 93.6013 155.844 109.241C154.371 112.982 152.123 116.578 149.949 120.058C149.4 120.938 148.85 121.815 148.313 122.696C146.586 125.528 144.716 128.357 142.908 131.092C141.626 133.037 140.298 135.043 139.027 137.05C131.554 148.817 129.427 161.901 132.696 175.94L132.704 175.932Z" fill="#FFC72A"/>
<path d="M108.411 98.4993C100.97 98.4993 93.857 95.8847 88.6562 91.2857L133.323 46.6567C137.749 52.1161 140.226 59.3464 140.163 66.7468C140.093 75.241 136.715 83.2517 130.653 89.3047C124.718 95.2344 116.816 98.4993 108.408 98.4993H108.411Z" fill="#FFC72A"/>
<path d="M133.169 48.9346C136.741 53.9438 138.717 60.267 138.664 66.7335C138.597 74.8309 135.376 82.4681 129.594 88.2443C123.943 93.8905 116.419 96.9987 108.414 96.9987C101.911 96.9987 95.6791 94.9076 90.8857 91.1824L129.708 52.3964L133.172 48.9346M133.406 44.4524C117.774 60.0702 102.135 75.6947 86.4961 91.3192C92.1642 96.952 100.172 100 108.407 100C116.642 100 125.128 96.9453 131.714 90.3687C145.266 76.8353 144.131 56.255 133.406 44.4557V44.4524Z" fill="#FFC72A"/>
<path d="M82.7266 85.1926L127.243 40.717L128.114 41.4474L83.3675 86.1498L82.7266 85.1926Z" fill="#FFC72A"/>
<path d="M127.159 38.6829C111.597 54.2306 96.2282 69.585 80.793 85.0027C81.5073 86.0699 82.3652 87.3439 83.143 88.5011C98.8787 72.7766 114.521 57.1488 130.333 41.3509C129.255 40.4437 128.057 39.4366 127.159 38.6829Z" fill="#FFC72A"/>
<path d="M79.0665 78.5526C78.883 78.0524 78.7127 77.5588 78.5625 77.0619C78.5992 77.0152 78.6393 76.9652 78.6793 76.9218C84.6478 70.8788 90.623 64.8424 96.5981 58.8061C103.902 51.4257 111.202 44.0454 118.499 36.655C118.653 36.4983 118.746 36.4382 118.78 36.4182C118.81 36.4249 118.88 36.4416 119 36.4949C119.501 36.7217 120.015 36.9318 120.525 37.1319L79.0665 78.5526Z" fill="#FFC72A"/>
<path d="M118.759 34.9175C118.285 34.9175 117.874 35.1509 117.427 35.6012C104.165 49.0345 90.8756 62.4413 77.6068 75.868C77.293 76.1848 76.9091 76.7651 77.0026 77.0986C77.3965 78.4993 77.9573 79.85 78.4713 81.264C93.5027 66.2532 108.304 51.4658 123.212 36.5716C121.966 36.0781 120.771 35.6512 119.616 35.1309C119.299 34.9875 119.019 34.9175 118.759 34.9175Z" fill="#FFC72A"/>
<path d="M76.6007 68.4344C76.5573 67.8407 76.5239 67.2338 76.5039 66.6368C76.544 66.5534 76.6441 66.4034 76.7876 66.2599C89.005 54.1906 99.0326 44.3156 108.353 35.1844C108.529 35.011 108.94 34.8376 109.184 34.8342C109.257 34.8342 109.334 34.8342 109.407 34.8342C109.674 34.8342 109.945 34.8409 110.215 34.8542L76.6007 68.4344Z" fill="#FFC72A"/>
<path d="M109.406 33.3335C109.326 33.3335 109.242 33.3335 109.159 33.3335C108.528 33.3435 107.754 33.6703 107.3 34.1139C96.7513 44.4491 86.2363 54.8142 75.7347 65.1928C75.3742 65.5463 74.987 66.1132 75.0003 66.5701C75.0504 68.411 75.2507 70.252 75.3742 71.7827C88.0756 59.0897 100.807 46.3734 113.585 33.607C112.283 33.5136 110.848 33.3335 109.406 33.3335Z" fill="#FFC72A"/>
<path d="M79.1602 53.8939C82.111 46.797 88.3833 40.5305 95.7237 37.3423L79.1602 53.8939Z" fill="#FFC72A"/>
<path d="M101.101 34.0906C89.2008 36.4151 78.0116 47.2005 76.1289 59.0464C84.4374 50.7422 92.8794 42.308 101.101 34.0906Z" fill="#FFC72A"/>
</svg>
