<svg width="171" height="200" viewBox="0 0 171 200" fill="none" xmlns="http://www.w3.org/2000/svg">
<path d="M167.487 52.0502C160.602 27.9627 144.572 11.8589 119.849 4.19081C103.469 -0.890083 85.6742 -1.34596 65.4441 2.7959C47.7038 6.43123 33.7119 15.6579 23.8501 30.2187C14.6858 43.7548 11.5531 57.0064 14.2728 70.7334C15.882 78.869 13.9923 85.8825 8.65031 91.5791C8.07365 92.1947 7.60997 92.7908 7.23982 93.3987L6.23845 95.0313C4.47338 97.9146 2.64597 100.899 0.915975 103.884C-0.568549 106.444 -0.237356 109.284 1.82773 111.684C2.91482 112.947 4.17725 114.03 5.47086 114.817C7.34502 115.955 9.29711 116.976 11.1869 117.969C11.7557 118.269 12.3246 118.565 12.8935 118.869C14.6157 119.785 14.7092 120.058 13.8871 121.799C13.5442 122.528 13.1701 123.237 12.7727 123.989C12.2194 125.037 11.6505 126.117 11.1674 127.258C9.66727 130.8 10.0725 133.461 12.5584 135.932C11.4245 138.788 11.9389 141.153 14.1014 142.976C15.1651 143.873 15.4729 144.897 15.282 146.892C15.0326 149.468 14.7793 152.515 14.7832 155.612C14.7949 160.572 17.2341 164.297 21.8435 166.382C25.0152 167.816 28.4985 168.412 32.1845 168.155C34.1912 168.015 36.2095 167.804 38.1616 167.605C39.8916 167.426 41.6839 167.243 43.4334 167.111C49.9871 166.608 52.8938 168.311 55.3914 174.116C56.7279 177.226 57.5344 180.713 58.3098 184.087L58.4228 184.578C58.7813 186.133 59.0073 187.707 59.2449 189.378C59.4787 191.003 59.7164 192.683 60.0943 194.339C61.0607 198.613 62.814 200 67.291 200C67.326 200 67.3611 200 67.3962 200C90.1316 199.891 112.867 199.782 135.602 199.673L141.802 199.642C143.267 199.634 145.079 199.447 146.076 198.064C147.081 196.669 146.692 194.888 146.181 193.326C145.784 192.118 145.382 190.914 144.977 189.706C143.345 184.816 141.657 179.762 140.399 174.724C137.36 162.556 139.183 151.151 145.827 140.826C146.999 139.002 148.223 137.159 149.404 135.378C151.367 132.421 153.397 129.358 155.283 126.265C157.835 122.076 160.726 117.33 163.021 112.339C166.894 103.923 168.25 94.8287 169.217 86.9696C170.908 73.1959 170.362 62.1068 167.491 52.0658L167.487 52.0502ZM132.704 175.932C133.592 179.735 134.738 183.514 135.848 187.169C136.319 188.72 136.806 190.321 137.262 191.896L137.274 191.931C136.487 191.931 135.704 191.931 134.928 191.931C131.476 191.927 128.215 191.923 124.903 191.938L116.183 191.973C100.461 192.036 84.2013 192.102 68.2105 192.25C67.7586 192.258 67.5676 192.199 67.5053 192.176C67.4741 192.122 67.4001 191.946 67.3377 191.518C67.1663 190.368 67.0104 189.215 66.8507 188.061C66.4338 184.987 66.0013 181.812 65.2804 178.714C64.5245 175.464 63.1491 172.34 61.914 169.663C58.5592 162.388 52.2899 158.807 43.788 159.318C42.1086 159.419 40.4293 159.606 38.8045 159.789C36.5407 160.043 34.4016 160.284 32.243 160.307C30.1584 160.343 27.8439 159.976 24.9372 159.181C23.3163 158.737 22.5176 157.518 22.5526 155.554C22.5955 153.298 22.6734 150.886 22.9306 148.525C23.3319 144.874 23.2579 141.141 20.3707 138.242C20.5538 138.005 20.733 137.763 20.9045 137.514C21.9565 135.99 22.2526 134.381 21.7383 132.986C21.2551 131.665 20.0979 130.695 18.477 130.255C18.4186 130.239 18.3679 130.223 18.325 130.208C18.3601 130.122 18.4108 130.017 18.4731 129.888C18.7848 129.257 19.1121 128.638 19.4589 127.987C20.0356 126.9 20.6356 125.778 21.1382 124.597C23.3943 119.314 21.8162 114.872 16.6925 112.094L15.3365 111.361C13.213 110.212 11.0193 109.023 8.89968 107.804C8.24119 107.426 8.0191 107.133 7.99182 107.024C7.97234 106.95 8.0113 106.713 8.26846 106.304C9.02047 105.115 9.7413 103.899 10.4388 102.723C11.1362 101.55 11.8531 100.334 12.5896 99.1731C13.1662 98.2614 13.8871 97.334 14.7949 96.3365C21.5824 88.8555 23.9865 79.8782 21.9487 69.6463C19.4238 56.9791 22.5682 45.1341 31.8455 32.3695C39.9227 21.257 51.1327 14.0175 65.1636 10.8575C84.2325 6.55982 101.01 6.72346 116.456 11.3563C142.378 19.1335 157.508 36.0321 161.428 61.5846C163.879 77.5676 162.001 93.6013 155.844 109.241C154.371 112.982 152.123 116.578 149.949 120.058C149.4 120.938 148.85 121.815 148.313 122.696C146.586 125.528 144.716 128.357 142.908 131.092C141.626 133.037 140.298 135.043 139.027 137.05C131.554 148.817 129.427 161.901 132.696 175.94L132.704 175.932Z" fill="#FFC72A"/>
<path d="M92.2817 73.0892C96.1277 69.4115 100.715 67.3783 105.893 66.382C109.955 65.6005 114.074 65.4783 118.209 65.6117C122.08 65.7339 125.897 66.1413 129.56 67.3635C131.316 67.9486 132.929 68.7486 134.298 69.9375C137.647 72.8337 137.105 78.078 132.803 80.0964C130.204 81.3149 127.437 81.9815 124.594 82.4038C119.028 83.226 113.431 83.4482 107.804 83.1037C102.98 82.8074 98.3848 81.6556 93.9603 79.952C91.4262 78.9742 88.8513 78.0224 86.4883 76.7595C82.7075 74.7336 79.8475 71.9263 79.1304 67.7857C78.6253 64.8821 79.6234 62.3081 81.5016 59.9822C83.722 57.2304 86.7246 55.3453 89.9758 53.7602C95.6755 50.9825 101.819 49.4603 108.179 48.5899C113.606 47.8455 119.065 47.6937 124.541 48.0677C129.421 48.4011 134.221 49.1677 138.878 50.564C140.593 51.0788 141.538 52.6046 141.126 54.1268C140.727 55.612 139.118 56.6712 137.496 56.4008C136.421 56.2231 135.382 55.8712 134.323 55.6157C127.278 53.9416 120.124 53.5676 112.893 54.1416C107.47 54.5712 102.178 55.5379 97.1014 57.3712C93.728 58.5896 90.5136 60.0748 87.8898 62.4229C84.7813 65.2043 84.8587 67.9412 88.1872 70.4856C89.4461 71.4448 90.8884 72.2115 92.2777 73.0855L92.2817 73.0892ZM99.2281 75.4447C99.4644 75.5262 99.6192 75.5891 99.7822 75.6336C103.062 76.5595 106.435 77.0335 109.849 77.2113C114.201 77.4372 118.539 77.1965 122.83 76.5224C124.932 76.1928 126.989 75.6188 129.059 75.1262C129.377 75.0521 129.646 74.8114 130.073 74.5707C129.605 74.204 129.311 73.8929 128.945 73.7151C128.26 73.3818 127.556 73.0596 126.818 72.8448C122.813 71.6781 118.678 71.5115 114.514 71.6004C110.815 71.6781 107.16 71.9855 103.673 73.2262C102.104 73.7855 100.617 74.4707 99.224 75.4447H99.2281Z" fill="#FFC72A"/>
<path d="M87.9049 79.7891C90.0927 80.6483 92.0809 81.4261 94.0894 82.2149C93.5394 85.4556 95.3076 87.8629 97.5769 90.1443C99.2024 88.5814 101.117 87.4592 103.175 86.5148C103.79 86.2333 104.377 86.1592 105.069 86.2222C109.526 86.6259 113.992 86.6111 118.453 86.2148C119.813 86.0963 121.166 85.9148 122.523 85.7778C122.735 85.7556 122.975 85.7556 123.162 85.8296C125.012 86.5407 126.674 87.4999 127.827 89.0369C129.379 91.1109 129.465 93.2627 128.047 95.4182C126.634 97.5589 124.486 98.9181 122.009 99.8737C118.298 101.3 114.407 101.492 110.439 101.288C105.037 101.011 100.107 99.2959 95.7802 96.57C90.6957 93.3664 87.3223 88.9666 87.4078 82.9927C87.4241 81.9446 87.7297 80.9001 87.913 79.7891H87.9049ZM122.417 92.485C119.092 89.6295 108.83 89.2851 103.268 93.5812C103.427 93.6553 103.574 93.7294 103.725 93.7886C107.294 95.1108 111.021 95.533 114.839 95.2923C116.896 95.1627 118.897 94.7442 120.673 93.7331C121.276 93.3887 121.802 92.9294 122.413 92.485H122.417Z" fill="#FFC72A"/>
<path d="M95.0673 98.7295C97.467 99.7628 99.8381 100.789 102.059 101.744C102.833 102.948 103.44 104.148 104.299 105.174C106.283 107.54 109.103 108.396 112.264 108.511C112.704 108.525 113.144 108.522 113.584 108.525C115.446 108.548 116.86 109.785 116.909 111.437C116.958 113.074 115.593 114.455 113.768 114.522C104.462 114.848 97.8052 110.3 95.6336 102.392C95.3444 101.344 95.2507 100.252 95.0714 99.1776C95.047 99.0332 95.0714 98.8813 95.0714 98.7332L95.0673 98.7295Z" fill="#FFC72A"/>
</svg>
