<svg width="240" height="128" viewBox="0 0 240 128" fill="none" xmlns="http://www.w3.org/2000/svg">
<rect width="240" height="128" rx="6" fill="#BDE3FF"/>
<path d="M37.3504 58.3636V70H35.5947V58.3636H37.3504ZM49.1233 58.3636V70H47.5096L41.5949 61.4659H41.4869V70H39.7312V58.3636H41.3562L47.2767 66.9091H47.3846V58.3636H49.1233ZM55.2754 70H51.5083V58.3636H55.3947C56.5349 58.3636 57.514 58.5966 58.3322 59.0625C59.1504 59.5246 59.7773 60.1894 60.2129 61.0568C60.6523 61.9205 60.872 62.9564 60.872 64.1648C60.872 65.3769 60.6504 66.4186 60.2072 67.2898C59.7678 68.161 59.1315 68.8314 58.2981 69.3011C57.4648 69.767 56.4572 70 55.2754 70ZM53.264 68.4659H55.1788C56.0652 68.4659 56.8019 68.2992 57.389 67.9659C57.9762 67.6288 58.4155 67.142 58.7072 66.5057C58.9989 65.8655 59.1447 65.0852 59.1447 64.1648C59.1447 63.2519 58.9989 62.4773 58.7072 61.8409C58.4193 61.2045 57.9894 60.7216 57.4174 60.392C56.8455 60.0625 56.1352 59.8977 55.2868 59.8977H53.264V68.4659ZM64.6349 58.3636V70H62.8792V58.3636H64.6349ZM76.6805 62.1477H74.9078C74.8396 61.7689 74.7127 61.4356 74.5271 61.1477C74.3415 60.8598 74.1142 60.6155 73.8453 60.4148C73.5763 60.214 73.2752 60.0625 72.9419 59.9602C72.6123 59.858 72.2619 59.8068 71.8907 59.8068C71.2203 59.8068 70.6199 59.9754 70.0896 60.3125C69.5631 60.6496 69.1464 61.1439 68.8396 61.7955C68.5366 62.447 68.385 63.2424 68.385 64.1818C68.385 65.1288 68.5366 65.928 68.8396 66.5795C69.1464 67.2311 69.565 67.7235 70.0953 68.0568C70.6256 68.3902 71.2222 68.5568 71.885 68.5568C72.2525 68.5568 72.6009 68.5076 72.9305 68.4091C73.2638 68.3068 73.565 68.1572 73.8339 67.9602C74.1028 67.7633 74.3301 67.5227 74.5157 67.2386C74.7051 66.9508 74.8358 66.6212 74.9078 66.25L76.6805 66.2557C76.5858 66.8277 76.4021 67.3542 76.1294 67.8352C75.8604 68.3125 75.5138 68.7254 75.0896 69.0739C74.6691 69.4186 74.1881 69.6856 73.6464 69.875C73.1047 70.0644 72.5138 70.1591 71.8737 70.1591C70.8661 70.1591 69.9684 69.9205 69.1805 69.4432C68.3926 68.9621 67.7714 68.2746 67.3169 67.3807C66.8661 66.4867 66.6407 65.4205 66.6407 64.1818C66.6407 62.9394 66.868 61.8731 67.3225 60.983C67.7771 60.089 68.3983 59.4034 69.1862 58.9261C69.9741 58.4451 70.8699 58.2045 71.8737 58.2045C72.4911 58.2045 73.0669 58.2936 73.6009 58.4716C74.1388 58.6458 74.6218 58.9034 75.0498 59.2443C75.4778 59.5814 75.832 59.9943 76.1123 60.483C76.3926 60.9678 76.582 61.5227 76.6805 62.1477ZM79.5102 70H77.6465L81.834 58.3636H83.8625L88.05 70H86.1863L82.8965 60.4773H82.8056L79.5102 70ZM79.8227 65.4432H85.8681V66.9205H79.8227V65.4432ZM87.6055 59.875V58.3636H96.6112V59.875H92.9805V70H91.2305V59.875H87.6055ZM108.033 64.1818C108.033 65.4242 107.806 66.4924 107.351 67.3864C106.897 68.2765 106.274 68.9621 105.482 69.4432C104.694 69.9205 103.798 70.1591 102.795 70.1591C101.787 70.1591 100.887 69.9205 100.096 69.4432C99.3078 68.9621 98.6866 68.2746 98.232 67.3807C97.7775 66.4867 97.5502 65.4205 97.5502 64.1818C97.5502 62.9394 97.7775 61.8731 98.232 60.983C98.6866 60.089 99.3078 59.4034 100.096 58.9261C100.887 58.4451 101.787 58.2045 102.795 58.2045C103.798 58.2045 104.694 58.4451 105.482 58.9261C106.274 59.4034 106.897 60.089 107.351 60.983C107.806 61.8731 108.033 62.9394 108.033 64.1818ZM106.295 64.1818C106.295 63.2348 106.141 62.4375 105.834 61.7898C105.531 61.1383 105.115 60.6458 104.584 60.3125C104.058 59.9754 103.461 59.8068 102.795 59.8068C102.124 59.8068 101.526 59.9754 100.999 60.3125C100.473 60.6458 100.056 61.1383 99.7491 61.7898C99.4461 62.4375 99.2945 63.2348 99.2945 64.1818C99.2945 65.1288 99.4461 65.928 99.7491 66.5795C100.056 67.2273 100.473 67.7197 100.999 68.0568C101.526 68.3902 102.124 68.5568 102.795 68.5568C103.461 68.5568 104.058 68.3902 104.584 68.0568C105.115 67.7197 105.531 67.2273 105.834 66.5795C106.141 65.928 106.295 65.1288 106.295 64.1818ZM110.046 70V58.3636H114.194C115.095 58.3636 115.843 58.5189 116.438 58.8295C117.037 59.1402 117.484 59.5701 117.779 60.1193C118.075 60.6648 118.222 61.2955 118.222 62.0114C118.222 62.7235 118.073 63.3504 117.773 63.892C117.478 64.4299 117.031 64.8485 116.432 65.1477C115.838 65.447 115.09 65.5966 114.188 65.5966H111.046V64.0852H114.029C114.597 64.0852 115.059 64.0038 115.415 63.8409C115.775 63.678 116.039 63.4413 116.205 63.1307C116.372 62.8201 116.455 62.447 116.455 62.0114C116.455 61.572 116.37 61.1913 116.2 60.8693C116.033 60.5473 115.77 60.3011 115.41 60.1307C115.054 59.9564 114.586 59.8693 114.006 59.8693H111.802V70H110.046ZM115.79 64.75L118.665 70H116.665L113.847 64.75H115.79ZM126.529 61.4205C126.469 60.8826 126.219 60.4659 125.779 60.1705C125.34 59.8712 124.787 59.7216 124.12 59.7216C123.643 59.7216 123.23 59.7973 122.881 59.9489C122.533 60.0966 122.262 60.3011 122.069 60.5625C121.88 60.8201 121.785 61.1136 121.785 61.4432C121.785 61.7197 121.849 61.9583 121.978 62.1591C122.111 62.3598 122.283 62.5284 122.495 62.6648C122.711 62.7973 122.942 62.9091 123.188 63C123.434 63.0871 123.671 63.1591 123.899 63.2159L125.035 63.5114C125.406 63.6023 125.787 63.7254 126.177 63.8807C126.567 64.036 126.929 64.2405 127.262 64.4943C127.595 64.7481 127.864 65.0625 128.069 65.4375C128.277 65.8125 128.381 66.2614 128.381 66.7841C128.381 67.4432 128.211 68.0284 127.87 68.5398C127.533 69.0511 127.042 69.4545 126.399 69.75C125.758 70.0455 124.984 70.1932 124.075 70.1932C123.203 70.1932 122.45 70.0549 121.813 69.7784C121.177 69.5019 120.679 69.1098 120.319 68.6023C119.959 68.0909 119.76 67.4848 119.722 66.7841H121.484C121.518 67.2045 121.654 67.5549 121.893 67.8352C122.135 68.1117 122.444 68.3182 122.819 68.4545C123.198 68.5871 123.613 68.6534 124.063 68.6534C124.559 68.6534 125.001 68.5758 125.387 68.4205C125.777 68.2614 126.084 68.0417 126.308 67.7614C126.531 67.4773 126.643 67.1458 126.643 66.767C126.643 66.4223 126.544 66.1402 126.347 65.9205C126.154 65.7008 125.891 65.5189 125.558 65.375C125.228 65.2311 124.855 65.1042 124.438 64.9943L123.063 64.6193C122.131 64.3655 121.393 63.9924 120.847 63.5C120.306 63.0076 120.035 62.3561 120.035 61.5455C120.035 60.875 120.217 60.2898 120.58 59.7898C120.944 59.2898 121.436 58.9015 122.058 58.625C122.679 58.3447 123.38 58.2045 124.16 58.2045C124.948 58.2045 125.643 58.3428 126.245 58.6193C126.851 58.8958 127.328 59.2765 127.677 59.7614C128.025 60.2424 128.207 60.7955 128.222 61.4205H126.529ZM144.47 64.1818C144.47 65.4242 144.243 66.4924 143.788 67.3864C143.333 68.2765 142.71 68.9621 141.919 69.4432C141.131 69.9205 140.235 70.1591 139.231 70.1591C138.224 70.1591 137.324 69.9205 136.532 69.4432C135.744 68.9621 135.123 68.2746 134.669 67.3807C134.214 66.4867 133.987 65.4205 133.987 64.1818C133.987 62.9394 134.214 61.8731 134.669 60.983C135.123 60.089 135.744 59.4034 136.532 58.9261C137.324 58.4451 138.224 58.2045 139.231 58.2045C140.235 58.2045 141.131 58.4451 141.919 58.9261C142.71 59.4034 143.333 60.089 143.788 60.983C144.243 61.8731 144.47 62.9394 144.47 64.1818ZM142.731 64.1818C142.731 63.2348 142.578 62.4375 142.271 61.7898C141.968 61.1383 141.551 60.6458 141.021 60.3125C140.494 59.9754 139.898 59.8068 139.231 59.8068C138.561 59.8068 137.962 59.9754 137.436 60.3125C136.909 60.6458 136.493 61.1383 136.186 61.7898C135.883 62.4375 135.731 63.2348 135.731 64.1818C135.731 65.1288 135.883 65.928 136.186 66.5795C136.493 67.2273 136.909 67.7197 137.436 68.0568C137.962 68.3902 138.561 68.5568 139.231 68.5568C139.898 68.5568 140.494 68.3902 141.021 68.0568C141.551 67.7197 141.968 67.2273 142.271 66.5795C142.578 65.928 142.731 65.1288 142.731 64.1818ZM146.483 70V58.3636H153.699V59.875H148.238V63.4205H153.182V64.9261H148.238V70H146.483ZM159.74 70V58.3636H161.496V63.4205H167.297V58.3636H169.058V70H167.297V64.9261H161.496V70H159.74ZM172.422 70H170.558L174.746 58.3636H176.774L180.962 70H179.098L175.808 60.4773H175.718L172.422 70ZM172.735 65.4432H178.78V66.9205H172.735V65.4432ZM182.466 70V58.3636H186.614C187.515 58.3636 188.264 58.5189 188.858 58.8295C189.457 59.1402 189.904 59.5701 190.199 60.1193C190.495 60.6648 190.642 61.2955 190.642 62.0114C190.642 62.7235 190.493 63.3504 190.194 63.892C189.898 64.4299 189.451 64.8485 188.853 65.1477C188.258 65.447 187.51 65.5966 186.608 65.5966H183.466V64.0852H186.449C187.017 64.0852 187.479 64.0038 187.836 63.8409C188.195 63.678 188.459 63.4413 188.625 63.1307C188.792 62.8201 188.875 62.447 188.875 62.0114C188.875 61.572 188.79 61.1913 188.62 60.8693C188.453 60.5473 188.19 60.3011 187.83 60.1307C187.474 59.9564 187.006 59.8693 186.426 59.8693H184.222V70H182.466ZM188.211 64.75L191.086 70H189.086L186.267 64.75H188.211ZM192.603 58.3636H194.733L198.438 67.4091H198.574L202.279 58.3636H204.41V70H202.739V61.5795H202.631L199.199 69.983H197.813L194.381 61.5739H194.273V70H192.603V58.3636Z" fill="black" fill-opacity="0.8"/>
</svg>
