<svg width="175" height="76" viewBox="0 0 175 76" fill="none" xmlns="http://www.w3.org/2000/svg">
<g clip-path="url(#clip0_5_3304)">
<path d="M22.8 0V32.7385H49.1077V0H67.2308L57.9003 41.1745C58.2218 41.8877 58.7188 41.9052 59.3677 42.0572C65.8218 43.5772 72.7671 43.3492 79.2212 45.0271C80.56 44.9218 81.7292 40.8295 85.0323 39.7188C93.9126 36.7372 101.583 43.6649 98.5252 52.6271C96.5726 58.3505 89.7852 60.6305 84.3541 57.9938C82.4483 57.0701 80.3788 53.2643 79.2212 53.1708L58.4615 56.1172C58.4732 61.5717 62.3317 66.3363 65.5412 70.3818L73.6615 75.9883H49.1135V48.2249L48.2366 47.348H23.6828L22.8058 48.2249V75.9942H0V0H22.8Z" fill="#2782D3"/>
<path d="M131.538 76H107.569L115.198 70.4754C124.4 60.2622 127.078 43.3083 117.525 32.4345C108.744 22.4434 94.2282 21.6425 82.4365 26.3018L84.775 15.7846H119.852V0H154.637C155.285 0 160.103 1.37969 161.091 1.73046C178.214 7.88062 178.559 36.2812 163.137 44.1618C161.611 44.9394 154.835 47.3538 153.467 47.3538H132.421C131.117 47.3538 131.544 49.0668 131.544 49.4V76H131.538ZM131.538 32.7385H144.108C145.803 32.7385 149.837 29.8972 150.837 28.3597C153.421 24.3609 151.632 18.0295 147.487 15.9132C147.095 15.7145 143.733 14.6154 143.523 14.6154H131.538V32.7385Z" fill="#2782D3"/>
</g>
<defs>
<clipPath id="clip0_5_3304">
<rect width="174.326" height="76" fill="white"/>
</clipPath>
</defs>
</svg>
