<svg width="116" height="116" viewBox="0 0 116 116" fill="none" xmlns="http://www.w3.org/2000/svg">
<g clip-path="url(#clip0_6025_5730)">
<path d="M60.7188 0C61.0994 0.720469 62.2594 0.439531 62.9844 0.453125C63.4375 0.462187 63.8952 0.425938 64.3438 0.453125C90.0948 1.90766 114.206 26.4217 115.547 52.1094C115.57 52.558 115.542 53.0156 115.547 53.4688C115.56 54.3252 115.239 55.6936 116 56.1875V60.2656C115.32 60.5783 115.56 61.48 115.547 62.0781C115.524 62.9798 115.61 63.9042 115.547 64.7969C113.734 89.8955 89.6644 114.283 64.3438 115.547C63.8952 115.57 63.4375 115.538 62.9844 115.547C62.2594 115.56 61.0994 115.275 60.7188 116H56.1875C55.8748 115.32 54.9731 115.56 54.375 115.547C53.4733 115.524 52.5534 115.597 51.6562 115.547C26.5123 114.11 1.78078 90.1628 0.453125 64.7969C0.39875 63.7955 0.820156 62.2594 0 61.625V53.4688C0.593594 53.2513 0.430469 52.6033 0.453125 52.1094C0.480312 51.5112 0.407813 50.895 0.453125 50.2969C2.43328 25.1937 26.6845 1.99375 51.6562 0.453125C52.1048 0.425938 52.5625 0.47125 53.0156 0.453125C53.6862 0.425938 54.298 0.570938 54.8281 0H60.7188ZM113.639 58C113.639 27.2555 88.7173 2.33359 57.9728 2.33359C27.2283 2.33359 2.30641 27.2555 2.30641 58C2.30641 88.7445 27.2283 113.666 57.9728 113.666C88.7173 113.666 113.639 88.7445 113.639 58Z" fill="#C461B4"/>
<path d="M0.453125 64.7969H0V61.625C0.820156 62.2594 0.39875 63.7955 0.453125 64.7969Z" fill="#C461B4"/>
<path d="M116 56.1875C115.239 55.6936 115.56 54.3252 115.547 53.4688H116V56.1875Z" fill="#C461B4"/>
<path d="M116 64.7969H115.547C115.61 63.9042 115.524 62.9798 115.547 62.0781H116V64.7969Z" fill="#C461B4"/>
<path d="M54.375 115.547V116H51.6562V115.547C52.5534 115.597 53.4733 115.524 54.375 115.547Z" fill="#C461B4"/>
<path d="M62.9844 0V0.453125C62.2594 0.439531 61.0994 0.720469 60.7188 0H62.9844Z" fill="#C461B4"/>
<path d="M62.9844 115.547V116H60.7188C61.0994 115.275 62.2594 115.561 62.9844 115.547Z" fill="#C461B4"/>
<path d="M54.8281 0C54.298 0.570938 53.6863 0.425938 53.0156 0.453125V0H54.8281Z" fill="#C461B4"/>
<path d="M0.453125 52.1094H0V50.2969H0.453125C0.407813 50.895 0.480312 51.5113 0.453125 52.1094Z" fill="#C461B4"/>
<path d="M116 62.0781H115.547C115.56 61.48 115.32 60.5783 116 60.2656V62.0781Z" fill="#C461B4"/>
<path d="M56.1875 116H54.375V115.547C54.9731 115.561 55.8748 115.32 56.1875 116Z" fill="#C461B4"/>
<path d="M53.0156 0V0.453125C52.5625 0.47125 52.1048 0.425938 51.6562 0.453125V0H53.0156Z" fill="#C461B4"/>
<path d="M64.3438 0V0.453125C63.8952 0.425938 63.4375 0.462187 62.9844 0.453125V0H64.3438Z" fill="#C461B4"/>
<path d="M0 53.4688V52.1094H0.453125C0.430469 52.6033 0.593594 53.2513 0 53.4688Z" fill="#C461B4"/>
<path d="M116 53.4688H115.547C115.542 53.0156 115.57 52.558 115.547 52.1094H116V53.4688Z" fill="#C461B4"/>
<path d="M64.3438 115.547V116H62.9844V115.547C63.4375 115.538 63.8952 115.569 64.3438 115.547Z" fill="#C461B4"/>
<path d="M39.0322 71.988C38.6198 71.2766 40.097 68.8478 41.0033 68.8478C44.6736 71.4986 48.4798 73.1842 53.138 72.3913C56.4322 71.8294 60.0028 68.4536 57.3067 65.2636C54.6106 62.0736 41.5833 62.3863 40.4233 57.2206C37.7544 45.3306 55.6573 42.6527 61.1855 50.5189L59.518 52.5081C55.8613 50.0431 51.6155 48.3666 47.2609 50.2063C44.7416 51.2666 43.3233 53.8992 44.8277 56.4413C46.7806 59.7355 60.687 58.8655 61.9694 65.1231C64.5839 77.8695 45.8834 78.078 39.0277 71.9835L39.0322 71.988Z" fill="#C461B4"/>
<path d="M72.0469 35.3438V70.0078C72.0469 71.7841 77.0766 71.9517 78.3861 71.1406L78.803 74.7248C76.2383 75.7625 72.432 76.3923 70.0033 74.7702C69.5502 74.4666 67.9688 72.6359 67.9688 72.2734V35.3438H72.0469Z" fill="#C461B4"/>
</g>
<defs>
<clipPath id="clip0_6025_5730">
<rect width="116" height="116" fill="white"/>
</clipPath>
</defs>
</svg>
