<svg width="174" height="76" viewBox="0 0 174 76" fill="none" xmlns="http://www.w3.org/2000/svg">
<g clip-path="url(#clip0_6025_6359)">
<path d="M22.7573 0V32.7385H49.0157V0H67.1049L57.7919 41.1745C58.1128 41.8877 58.6088 41.9052 59.2565 42.0572C65.6986 43.5772 72.6308 43.3492 79.0729 45.0271C80.4091 44.9218 81.5762 40.8295 84.8731 39.7188C93.7367 36.7372 101.393 43.6649 98.3407 52.6271C96.3918 58.3505 89.6171 60.6305 84.1962 57.9938C82.2939 57.0701 80.2282 53.2643 79.0729 53.1708L58.3521 56.1172C58.3637 61.5717 62.215 66.3363 65.4185 70.3818L73.5236 75.9883H49.0216V48.2249L48.1463 47.348H23.6384L22.7631 48.2249V75.9942H0V0H22.7573Z" fill="#2782D3"/>
<path d="M131.292 76H107.368L114.983 70.4754C124.167 60.2622 126.84 43.3083 117.305 32.4345C108.541 22.4434 94.0518 21.6425 82.2822 26.3018L84.6163 15.7846H119.628V0H154.347C154.995 0 159.803 1.37969 160.789 1.73046C177.88 7.88062 178.225 36.2812 162.831 44.1618C161.308 44.9394 154.545 47.3538 153.18 47.3538H132.173C130.872 47.3538 131.298 49.0668 131.298 49.4V76H131.292ZM131.292 32.7385H143.838C145.53 32.7385 149.556 29.8972 150.554 28.3597C153.133 24.3609 151.348 18.0295 147.211 15.9132C146.82 15.7145 143.464 14.6154 143.254 14.6154H131.292V32.7385Z" fill="#2782D3"/>
</g>
<defs>
<clipPath id="clip0_6025_6359">
<rect width="174" height="76" fill="white"/>
</clipPath>
</defs>
</svg>
