<svg width="1820" height="2570" viewBox="0 0 1820 2570" fill="none" xmlns="http://www.w3.org/2000/svg">
<g clip-path="url(#clip0_2366_8946)">
<path opacity="0.2" d="M515.166 829.752C496.028 835.052 459.133 846.65 418.525 867.022L416.573 868.006C375.527 888.826 344.582 911.638 329.061 923.958C310.104 902.708 52.6045 614.367 32.6172 591.968C57.5845 571.044 124.22 518.307 212.151 473.09L216.377 470.931H216.378C305.322 425.566 391.575 402.056 424.437 394.044L515.166 829.752Z" stroke="#DAD2C6" stroke-opacity="0.1"/>
<path opacity="0.2" d="M1136.26 1480.48C1134.87 1485.29 1133.38 1490.18 1131.78 1495.12L1131.06 1497.33V1497.33C1115.07 1546.14 1092.17 1586.06 1082.95 1601.14L899.932 1480.48H1136.26Z" stroke="#DAD2C6" stroke-opacity="0.1"/>
<path opacity="0.2" d="M1189.78 525.149C1274.06 579.843 1337.78 643.183 1360.82 667.284C1341.42 684.63 1046.17 948.189 1028.06 964.354C1013.8 950.335 984.528 923.401 945.369 897.849C906.589 872.551 871.152 857.104 852.847 849.948C860.482 826.658 984.373 450.908 992.457 426.306C1023.22 437.476 1104.71 469.706 1189.78 525.149ZM709.639 366.679C809.99 371.951 896.869 394.925 928.84 404.312C920.725 428.961 796.826 804.888 789.229 827.908C769.897 822.898 731.009 814.237 684.377 811.674C638.116 809.134 599.698 813.488 580.274 816.421L489.341 379.74C521.667 374.051 608.376 361.205 709.639 366.671V366.679ZM31.9004 591.932C56.9612 570.896 125.612 516.449 216.151 470.501C305.608 424.878 392.325 401.348 424.821 393.451L515.753 830.132C496.467 835.45 458.459 847.347 416.799 868.475C375.471 889.442 344.381 912.431 329.001 924.667C312.719 906.41 49.148 611.262 31.9004 591.94V591.932ZM754.533 1832.49C703.663 1843.16 657.193 1843.17 639.945 1842.73C640.733 1829.3 652.885 1624.98 653.634 1612.43C663.979 1612.39 684.539 1611.58 708.218 1606.67C731.681 1601.82 750.295 1594.55 759.637 1590.51C765.319 1601.84 856.938 1784.82 862.953 1796.79C847.597 1803.92 805.944 1821.82 754.541 1832.5L754.533 1832.49ZM988.411 1715.52C949.7 1750.18 909.453 1773.43 894.29 1781.66C888.276 1769.65 796.595 1586.61 790.99 1575.38C799.907 1570.16 817.324 1559.17 835.36 1543.11C853.279 1527.16 865.771 1511.56 871.824 1503.41L1064.44 1630.39C1054.67 1644.28 1027.55 1680.61 988.411 1715.52ZM1594.16 971.572C1580.03 935.915 1549.48 865.959 1500.63 790.977C1452.13 716.551 1401.88 662.128 1375.39 635.348C1406.82 600.532 1914.69 37.3867 1947.96 0.555908C1993.21 43.9407 2111.19 163.457 2217.44 326.451C2322.87 487.415 2385.64 647.769 2407.4 708.06L1594.16 971.572Z" stroke="#DAD2C6" stroke-opacity="0.1" stroke-miterlimit="10"/>
<path opacity="0.2" d="M1947.99 1.27466C1993.14 44.5987 2109.25 162.347 2214.53 322.92L2217.02 326.732L2217.02 326.733C2322.13 487.219 2384.83 647.106 2406.76 707.751L1594.45 970.959C1580.45 935.712 1550.67 867.605 1503.33 794.225L1501.05 790.712C1452.73 716.559 1402.66 662.245 1376.07 635.34C1410.32 597.399 1911.82 41.3209 1947.99 1.27466Z" stroke="#DAD2C6" stroke-opacity="0.1"/>
<g opacity="0.2">
<path d="M719.281 1217.28C730.414 1223.34 738.938 1229.98 743.084 1233.47L826.627 1145.95C819.856 1139.92 801.258 1124.17 777.301 1111.21C753.097 1098.06 730.368 1091.12 721.814 1088.77C720.146 1095.58 694.784 1199.87 693.209 1206.34C698.32 1207.89 708.233 1211.28 719.273 1217.29L719.281 1217.28Z" fill="#F4EBE1"/>
<path d="M722.176 1089.39C730.784 1091.78 751.951 1098.34 774.802 1110.44L777.062 1111.65H777.063C800.529 1124.34 818.847 1139.73 825.906 1145.98L743.044 1232.79C738.76 1229.21 730.378 1222.75 719.521 1216.84L719.192 1216.67L719.184 1216.67C708.552 1210.93 699 1207.6 693.805 1206C696.151 1196.36 719.708 1099.5 722.176 1089.39Z" stroke="#DAD2C6" stroke-opacity="0.1"/>
</g>
<g opacity="0.2">
<path d="M924.493 1372.07C923.312 1382.17 920.309 1401.93 912.797 1424.7C905.215 1447.64 895.611 1465.85 890.477 1474.84L898.259 1479.98H1136.92C1149.17 1437.33 1153.46 1400.6 1154.8 1385.75C1141.44 1384.95 937.124 1372.82 924.493 1372.06V1372.07Z" fill="#F4EBE1"/>
<path d="M924.934 1372.59C941.255 1373.56 1137.07 1385.19 1154.25 1386.22C1152.87 1401.33 1148.56 1437.51 1136.54 1479.48H898.41L891.141 1474.68C896.173 1465.83 905.194 1448.63 912.554 1427L913.271 1424.86C920.685 1402.39 923.713 1382.84 924.934 1372.59Z" stroke="#DAD2C6" stroke-opacity="0.1"/>
</g>
<g opacity="0.2">
<path d="M652.182 1326.18C652.853 1326.22 654.158 1326.33 655.679 1326.75C657.223 1327.16 658.458 1327.73 659.076 1328.03C659.485 1327.31 666.233 1315.62 666.665 1314.86C665.669 1314.32 662.929 1312.95 659.609 1312.08C656.281 1311.2 653.301 1311.02 652.174 1310.98V1326.19L652.182 1326.18Z" fill="#DAD3C5"/>
<path d="M652.674 1311.51C653.928 1311.57 656.258 1311.78 658.87 1312.41L659.48 1312.56H659.481C662.333 1313.31 664.754 1314.43 665.973 1315.06C664.77 1317.15 660.02 1325.39 658.872 1327.38C658.175 1327.06 657.099 1326.61 655.811 1326.27H655.812C654.546 1325.92 653.425 1325.78 652.674 1325.72V1311.51Z" stroke="#DAD2C6" stroke-opacity="0.1"/>
</g>
<g opacity="0.2">
<path d="M666.094 1334.24C666.804 1333.81 678.486 1327.06 679.258 1326.62C678.663 1325.68 676.972 1323.1 674.548 1320.7C672.093 1318.26 669.599 1316.61 668.65 1316.03C668.202 1316.78 661.47 1328.46 661.045 1329.2C661.609 1329.55 662.666 1330.31 663.801 1331.43C664.936 1332.56 665.724 1333.66 666.102 1334.24H666.094Z" fill="#DAD3C5"/>
<path d="M668.821 1316.73C669.872 1317.41 671.788 1318.75 673.741 1320.62L674.195 1321.06L674.196 1321.06C676.273 1323.12 677.806 1325.3 678.554 1326.45C676.446 1327.67 668.252 1332.4 666.248 1333.57C665.874 1333.04 665.311 1332.29 664.575 1331.51L664.154 1331.07L664.151 1331.07L663.72 1330.66C662.948 1329.95 662.235 1329.4 661.712 1329.04C662.87 1327.03 667.611 1318.81 668.821 1316.73Z" stroke="#DAD2C6" stroke-opacity="0.1"/>
</g>
<g opacity="0.2">
<path d="M636.146 1354.11C635.428 1354.52 623.739 1361.27 622.975 1361.72C623.577 1362.68 625.26 1365.24 627.7 1367.64C630.147 1370.07 632.648 1371.72 633.614 1372.33C634.038 1371.54 640.786 1359.87 641.203 1359.16C640.639 1358.78 639.566 1358.01 638.439 1356.89C637.319 1355.78 636.54 1354.68 636.154 1354.11H636.146Z" fill="#DAD3C5"/>
<path d="M636.005 1354.77C636.378 1355.3 636.939 1356.04 637.671 1356.82L638.087 1357.25C639.023 1358.18 639.923 1358.87 640.539 1359.3C639.388 1361.29 634.654 1369.49 633.439 1371.62C632.377 1370.93 630.454 1369.58 628.504 1367.73L628.052 1367.28L628.05 1367.28L627.609 1366.84C625.743 1364.92 624.375 1362.96 623.678 1361.89C625.781 1360.67 634.036 1355.91 636.005 1354.77Z" stroke="#DAD2C6" stroke-opacity="0.1"/>
</g>
<g opacity="0.2">
<path d="M621.848 1359.73C622.612 1359.3 634.286 1352.55 635.019 1352.14C634.703 1351.54 634.147 1350.34 633.738 1348.83C633.336 1347.28 633.189 1345.95 633.151 1345.26H617.941C617.972 1346.4 618.173 1349.46 619.061 1352.76C619.964 1356.09 621.3 1358.76 621.84 1359.73L621.848 1359.73Z" fill="#DAD3C5"/>
<path d="M632.688 1345.76C632.748 1346.41 632.872 1347.33 633.111 1348.37L633.254 1348.95L633.255 1348.96C633.593 1350.21 634.03 1351.25 634.36 1351.94C633.344 1352.52 630.767 1354.01 628.195 1355.49C625.629 1356.98 623.065 1358.45 622.036 1359.04C621.462 1357.94 620.473 1355.82 619.715 1353.24L619.543 1352.63C618.78 1349.79 618.533 1347.13 618.462 1345.76H632.688Z" stroke="#DAD2C6" stroke-opacity="0.1"/>
</g>
<g opacity="0.2">
<path d="M634.981 1336.05C634.27 1335.65 622.574 1328.89 621.817 1328.45C621.277 1329.45 619.918 1332.21 619.038 1335.51C618.142 1338.85 617.988 1341.82 617.941 1342.95H633.151C633.182 1342.28 633.298 1340.96 633.722 1339.43C634.124 1337.9 634.68 1336.67 634.981 1336.05Z" fill="#DAD3C5"/>
<path d="M622.018 1329.14C624.123 1330.36 632.344 1335.11 634.334 1336.25C634.016 1336.95 633.575 1338.02 633.24 1339.3C632.888 1340.57 632.745 1341.7 632.685 1342.45H618.466C618.533 1341.19 618.723 1338.87 619.364 1336.25L619.521 1335.64V1335.64C620.277 1332.8 621.393 1330.37 622.018 1329.14Z" stroke="#DAD2C6" stroke-opacity="0.1"/>
</g>
<g opacity="0.2">
<path d="M638.209 1331.53C639.328 1330.39 640.425 1329.6 640.988 1329.24C640.587 1328.52 633.839 1316.84 633.399 1316.07C632.426 1316.67 629.879 1318.36 627.462 1320.78C625.015 1323.24 623.378 1325.73 622.799 1326.68C623.555 1327.13 635.237 1333.87 635.962 1334.28C636.325 1333.72 637.097 1332.65 638.217 1331.53H638.209Z" fill="#DAD3C5"/>
<path d="M633.226 1316.77C634.437 1318.87 639.184 1327.1 640.322 1329.09C639.696 1329.52 638.782 1330.23 637.853 1331.18L637.014 1332.03H637.062C636.527 1332.63 636.105 1333.19 635.808 1333.62C633.809 1332.46 625.582 1327.72 623.498 1326.51C624.172 1325.46 625.507 1323.54 627.374 1321.59L627.816 1321.13C629.894 1319.05 632.072 1317.51 633.226 1316.77Z" stroke="#DAD2C6" stroke-opacity="0.1"/>
</g>
<g opacity="0.2">
<path d="M696.389 1395.86C701.809 1391.14 705.592 1386.21 706.967 1384.33L680.786 1366.57C679.937 1367.66 678.2 1369.78 675.722 1371.94C673.22 1374.1 670.804 1375.58 669.568 1376.29C670.31 1377.83 682.547 1403.1 683.349 1404.77C685.449 1403.66 691.008 1400.56 696.397 1395.86H696.389Z" fill="#DAD3C5"/>
<path d="M706.253 1384.45C704.684 1386.56 701.08 1391.11 696.061 1395.49L695.705 1395.79C690.826 1399.98 685.871 1402.84 683.571 1404.08C681.803 1400.42 671.879 1379.92 670.22 1376.48C671.459 1375.76 673.462 1374.48 675.574 1372.72L676.049 1372.32L676.05 1372.32C678.306 1370.35 679.955 1368.42 680.891 1367.24L706.253 1384.45Z" stroke="#DAD2C6" stroke-opacity="0.1"/>
</g>
<g opacity="0.2">
<path d="M665.23 1378.29C663.949 1378.83 661.378 1379.79 658.143 1380.42C654.893 1381.04 652.082 1381.11 650.662 1381.1C650.523 1382.83 648.492 1410.84 648.338 1412.67C650.716 1412.77 657.085 1412.85 664.08 1411.48C671.16 1410.11 676.896 1407.73 679.012 1406.78C678.224 1405.12 665.987 1379.87 665.223 1378.29H665.23Z" fill="#DAD3C5"/>
<path d="M664.978 1378.94C666.663 1382.41 676.587 1402.89 678.335 1406.53C676.099 1407.5 671.251 1409.43 665.286 1410.72L663.984 1410.99H663.983C657.499 1412.26 651.552 1412.27 648.875 1412.18C649.186 1408.13 650.839 1385.4 651.126 1381.6C652.558 1381.59 654.913 1381.49 657.625 1381.02L658.237 1380.91H658.238C661.176 1380.34 663.573 1379.5 664.978 1378.94Z" stroke="#DAD2C6" stroke-opacity="0.1"/>
</g>
<g opacity="0.2">
<path d="M653.719 1274.74C651.364 1274.62 644.987 1274.56 637.984 1275.93C630.92 1277.29 625.168 1279.68 623.053 1280.62C623.856 1282.27 636.085 1307.54 636.842 1309.1C638.123 1308.55 640.694 1307.59 643.921 1306.99C647.179 1306.34 650.005 1306.28 651.426 1306.29C651.549 1304.56 653.595 1276.55 653.726 1274.74H653.719Z" fill="#DAD3C5"/>
<path d="M638.08 1276.42C644.578 1275.14 650.537 1275.13 653.189 1275.22C652.897 1279.24 651.238 1301.96 650.961 1305.79C649.524 1305.8 647.157 1305.89 644.438 1306.38L643.829 1306.49C640.891 1307.04 638.49 1307.89 637.085 1308.46C635.403 1304.98 625.495 1284.51 623.73 1280.87C625.973 1279.9 630.83 1277.96 636.779 1276.68L638.079 1276.42L638.08 1276.42Z" stroke="#DAD2C6" stroke-opacity="0.1"/>
</g>
<g opacity="0.2">
<path d="M658.459 1275.1C658.32 1276.92 656.29 1304.92 656.174 1306.65C657.533 1306.82 660.243 1307.28 663.354 1308.36C666.488 1309.45 668.967 1310.78 670.194 1311.5L687.975 1285.32C685.96 1284.06 680.486 1280.8 673.753 1278.5C666.952 1276.15 660.775 1275.34 658.467 1275.1H658.459Z" fill="#DAD3C5"/>
<path d="M658.92 1275.66C661.343 1275.93 666.527 1276.69 672.332 1278.55L673.591 1278.97L673.592 1278.97C679.831 1281.11 684.985 1284.07 687.268 1285.48L670.04 1310.84C668.791 1310.13 666.696 1309.04 664.105 1308.1L663.518 1307.89C660.69 1306.91 658.19 1306.43 656.706 1306.22C656.976 1302.39 658.623 1279.67 658.92 1275.66Z" stroke="#DAD2C6" stroke-opacity="0.1"/>
</g>
<g opacity="0.2">
<path d="M679.52 1319.27C681.689 1321.76 683.164 1324.17 683.867 1325.4C685.418 1324.66 710.703 1312.42 712.348 1311.62C711.251 1309.53 708.14 1303.96 703.454 1298.59C698.744 1293.17 693.803 1289.36 691.927 1288.01L674.146 1314.19C675.243 1315.02 677.374 1316.78 679.52 1319.26V1319.27Z" fill="#DAD3C5"/>
<path d="M692.049 1288.72C694.01 1290.17 698.115 1293.42 702.197 1297.92L703.076 1298.92H703.077C707.419 1303.89 710.399 1309.04 711.66 1311.39C708.023 1313.16 687.505 1323.09 684.065 1324.75C683.302 1323.45 681.936 1321.31 680.02 1319.08V1319.07L679.897 1318.93C677.945 1316.68 676.006 1315.01 674.823 1314.08L692.049 1288.72Z" stroke="#DAD2C6" stroke-opacity="0.1"/>
</g>
<g opacity="0.2">
<path d="M718.972 1330.29C717.598 1323.21 715.235 1317.48 714.27 1315.36C712.626 1316.16 687.341 1328.39 685.789 1329.14C686.314 1330.45 687.287 1333.01 687.912 1336.23C688.53 1339.5 688.607 1342.31 688.599 1343.73C690.313 1343.86 718.316 1345.9 720.169 1346.04C720.246 1343.66 720.338 1337.29 718.972 1330.3V1330.29Z" fill="#DAD3C5"/>
<path d="M714.021 1316.04C715.073 1318.43 717.197 1323.8 718.472 1330.34V1330.35L718.481 1330.4C719.747 1336.87 719.749 1342.82 719.682 1345.5C715.623 1345.2 692.914 1343.54 689.098 1343.27C689.086 1341.83 688.983 1339.48 688.515 1336.75L688.403 1336.14V1336.13L688.28 1335.53C687.715 1332.87 686.938 1330.7 686.425 1329.39C689.876 1327.72 710.38 1317.8 714.021 1316.04Z" stroke="#DAD2C6" stroke-opacity="0.1"/>
</g>
<g opacity="0.2">
<path d="M587.484 1379.03C584.566 1373.28 582.944 1368.03 582.211 1365.37L521.875 1377.85C522.948 1382.33 526.183 1394.31 532.475 1406.68C538.798 1419.18 546.318 1428.67 549.229 1432.14C551.892 1429.77 592.711 1393.43 595.228 1391.16C593.545 1389.05 590.379 1384.75 587.484 1379.03Z" fill="#DAD3C5"/>
<path d="M581.856 1365.95C582.595 1368.56 584.047 1373.12 586.502 1378.18L587.038 1379.26C589.792 1384.69 592.791 1388.86 594.545 1391.1C590.02 1395.15 554.057 1427.17 549.282 1431.42C546.278 1427.8 539.456 1419.05 533.516 1407.61L532.922 1406.45L532.921 1406.45L532.342 1405.3C526.669 1393.83 523.624 1382.88 522.483 1378.23L581.856 1365.95Z" stroke="#DAD2C6" stroke-opacity="0.1"/>
</g>
<g opacity="0.2">
<path d="M579.695 1342.07C580.05 1335.63 581.247 1330.26 581.957 1327.6C578.769 1326.53 526.856 1309.36 523.466 1308.22C522.162 1312.64 518.973 1324.65 518.232 1338.51C517.452 1352.49 519.212 1364.47 519.992 1368.93L580.328 1356.45C579.942 1353.77 579.332 1348.46 579.703 1342.07H579.695Z" fill="#DAD3C5"/>
<path d="M523.802 1308.86C529.885 1310.89 575.601 1326.01 581.356 1327.93C580.633 1330.74 579.535 1335.91 579.196 1342.04L579.167 1342.57H579.178C578.884 1348.42 579.393 1353.32 579.77 1356.06L520.397 1368.33C519.612 1363.69 518.086 1352.7 518.666 1339.83L518.731 1338.53V1338.53C519.444 1325.22 522.425 1313.62 523.802 1308.86Z" stroke="#DAD2C6" stroke-opacity="0.1"/>
</g>
<g opacity="0.2">
<path d="M540.204 1272.21C532.522 1283.95 528.052 1295.21 526.508 1299.45C529.905 1300.57 581.779 1317.74 585.014 1318.8C585.994 1316.28 588.148 1311.39 591.646 1306.04C595.182 1300.64 598.903 1296.6 600.849 1294.63C598.61 1292.13 562.246 1251.3 559.868 1248.62C556.533 1251.79 547.762 1260.59 540.204 1272.21Z" fill="#DAD3C5"/>
<path d="M600.166 1294.61C598.269 1296.56 595.058 1300.11 591.896 1304.76L591.228 1305.76C587.901 1310.85 585.783 1315.53 584.725 1318.17C578.933 1316.27 533.233 1301.15 527.156 1299.14C528.787 1294.74 532.963 1284.45 539.914 1273.58L540.622 1272.48L540.623 1272.48C547.885 1261.32 556.273 1252.76 559.839 1249.34C564.092 1254.12 596.123 1290.08 600.166 1294.61Z" stroke="#DAD2C6" stroke-opacity="0.1"/>
</g>
<g opacity="0.2">
<path d="M713.545 1385.74C710.009 1391.14 706.287 1395.18 704.342 1397.15C706.573 1399.65 742.929 1440.48 745.33 1443.17C748.665 1439.99 757.428 1431.2 764.994 1419.56C772.668 1407.84 777.123 1396.58 778.69 1392.33C775.293 1391.22 723.388 1374.02 720.184 1372.97C719.181 1375.49 717.05 1380.39 713.545 1385.74Z" fill="#DAD3C5"/>
<path d="M720.47 1373.59C726.224 1375.49 771.954 1390.63 778.04 1392.64C776.391 1397.05 772.228 1407.33 765.283 1418.19L764.576 1419.29L764.575 1419.29C757.306 1430.47 748.924 1439.01 745.357 1442.45C741.086 1437.66 709.054 1401.69 705.023 1397.17C706.92 1395.22 710.133 1391.67 713.294 1387.02L713.963 1386.02C717.3 1380.92 719.396 1376.23 720.47 1373.59Z" stroke="#DAD2C6" stroke-opacity="0.1"/>
</g>
<g opacity="0.2">
<path d="M685.28 1411.01C679.521 1413.91 674.271 1415.55 671.607 1416.29L684.092 1476.6C688.577 1475.53 700.567 1472.3 712.912 1466.02C725.435 1459.69 734.908 1452.18 738.382 1449.27C736.004 1446.59 699.656 1405.79 697.402 1403.27C695.286 1404.96 690.978 1408.1 685.273 1411.01H685.28Z" fill="#DAD3C5"/>
<path d="M697.34 1403.95C701.391 1408.49 733.409 1444.43 737.663 1449.21C734.039 1452.22 725.304 1459.03 713.848 1464.98L712.687 1465.57H712.686C700.824 1471.61 689.286 1474.82 684.476 1475.99L672.19 1416.64C674.986 1415.84 680.016 1414.22 685.506 1411.46L685.505 1411.45C690.929 1408.68 695.096 1405.71 697.34 1403.95Z" stroke="#DAD2C6" stroke-opacity="0.1"/>
</g>
<g opacity="0.2">
<path d="M601.628 1398.31C599.126 1400.56 558.284 1436.92 555.605 1439.29C558.771 1442.64 567.565 1451.39 579.207 1458.97C590.95 1466.64 602.199 1471.11 606.453 1472.66C607.565 1469.25 624.743 1417.39 625.808 1414.17C623.284 1413.18 618.389 1411.04 613.038 1407.54C607.642 1404 603.596 1400.26 601.628 1398.32V1398.31Z" fill="#DAD3C5"/>
<path d="M601.608 1399C603.556 1400.89 607.107 1404.12 611.762 1407.28L612.765 1407.95C617.857 1411.29 622.54 1413.39 625.187 1414.46C623.271 1420.24 608.141 1465.93 606.14 1472.01C601.73 1470.38 591.454 1466.2 580.576 1459.26L579.48 1458.55L579.479 1458.55L578.401 1457.84C567.744 1450.73 559.632 1442.78 556.324 1439.31C561.114 1435.06 597.062 1403.07 601.608 1399Z" stroke="#DAD2C6" stroke-opacity="0.1"/>
</g>
<g opacity="0.2">
<path d="M876.441 1205.44C862.081 1181.98 845.883 1164.6 839.622 1158.25L756.062 1245.78C759.699 1249.67 766.593 1257.57 773.156 1268.29C779.765 1279.09 783.802 1289.11 785.663 1294.21C791.971 1292.37 895.009 1262.17 901.78 1260.19C898.946 1251.6 890.708 1228.67 876.433 1205.44H876.441Z" fill="#DAD3C5"/>
<path d="M839.625 1158.97C846.043 1165.51 861.597 1182.35 875.543 1204.94H875.539L876.007 1205.7C889.989 1228.45 898.168 1250.93 901.14 1259.85C891.108 1262.79 795.413 1290.84 785.97 1293.6C784.098 1288.53 780.284 1279.19 774.196 1269.05L773.582 1268.03C767.185 1257.58 760.473 1249.8 756.748 1245.78L839.625 1158.97Z" stroke="#DAD2C6" stroke-opacity="0.1"/>
</g>
<g opacity="0.2">
<path d="M906.665 1277.78C899.917 1279.76 796.918 1309.94 790.533 1311.8C791.753 1317.01 793.76 1327.3 794.077 1339.85C794.393 1352.52 792.888 1363.22 791.954 1368.56C798.354 1370.1 902.674 1395.48 909.537 1397.15C911.375 1388.31 915.714 1364.32 914.957 1337.06C914.247 1309.53 908.912 1286.38 906.665 1277.78Z" fill="#DAD3C5"/>
<path d="M906.309 1278.41C908.545 1287.07 913.437 1308.68 914.378 1334.51L914.457 1337.08V1337.08C915.198 1363.77 911.038 1387.33 909.15 1396.54C898.996 1394.07 802.098 1370.5 792.524 1368.18C793.435 1362.86 794.795 1352.87 794.602 1341.02L794.577 1339.84C794.269 1327.6 792.357 1317.51 791.125 1312.15C800.644 1309.37 896.311 1281.33 906.309 1278.41Z" stroke="#DAD2C6" stroke-opacity="0.1"/>
</g>
<g opacity="0.2">
<path d="M510.257 1318.47C503.856 1316.92 399.521 1291.55 392.673 1289.89C390.836 1298.73 386.489 1322.72 387.246 1349.96C387.956 1377.51 393.306 1400.66 395.538 1409.25C402.27 1407.27 505.3 1377.09 511.67 1375.21C510.473 1370.03 508.435 1359.73 508.134 1347.18C507.802 1334.51 509.315 1323.81 510.257 1318.47Z" fill="#DAD3C5"/>
<path d="M393.06 1290.49C403.201 1292.96 500.099 1316.52 509.685 1318.84C508.767 1324.16 507.402 1334.16 507.608 1346.01L507.634 1347.2C507.927 1359.43 509.867 1369.52 511.078 1374.86C501.581 1377.66 405.885 1405.69 395.894 1408.62C393.67 1399.97 388.766 1378.36 387.825 1352.51L387.745 1349.95V1349.95L387.689 1347.41C387.267 1321.78 391.231 1299.41 393.06 1290.49Z" stroke="#DAD2C6" stroke-opacity="0.1"/>
</g>
<g opacity="0.2">
<path d="M541.772 1251.01L454.236 1167.48C448.191 1174.23 432.441 1192.83 419.502 1216.78C406.338 1240.98 399.382 1263.71 397.035 1272.26C403.852 1273.92 508.149 1299.29 514.619 1300.84C516.163 1295.75 519.568 1285.84 525.582 1274.79C531.627 1263.68 538.282 1255.16 541.772 1251.01Z" fill="#DAD3C5"/>
<path d="M541.088 1251.05C537.628 1255.19 531.452 1263.18 525.713 1273.51L525.143 1274.55V1274.55C519.281 1285.32 515.89 1295.01 514.279 1300.24C504.648 1297.92 407.77 1274.36 397.656 1271.9C400.045 1263.29 406.613 1242.13 418.728 1219.28L419.941 1217.02V1217.02C432.617 1193.56 447.999 1175.24 454.267 1168.19L541.088 1251.05Z" stroke="#DAD2C6" stroke-opacity="0.1"/>
</g>
<g opacity="0.2">
<path d="M576.892 1220.69C587.685 1214.08 597.714 1210.04 602.802 1208.18C600.949 1201.86 570.762 1098.83 568.778 1092.08C560.177 1094.89 537.247 1103.14 514.024 1117.41C490.561 1131.78 473.182 1147.99 466.836 1154.23L554.356 1237.76C558.247 1234.12 566.153 1227.25 576.892 1220.69Z" fill="#DAD3C5"/>
<path d="M602.19 1207.87C597.129 1209.75 587.784 1213.56 577.644 1219.65L576.631 1220.26C566.163 1226.66 558.379 1233.35 554.36 1237.08L467.556 1154.22C473.963 1147.96 490.226 1132.91 512.107 1119.18L514.285 1117.83C537.034 1103.86 559.506 1095.67 568.443 1092.72C571.379 1102.72 599.418 1198.41 602.19 1207.87Z" stroke="#DAD2C6" stroke-opacity="0.1"/>
</g>
<g opacity="0.2">
<path d="M646.184 1199.76C658.854 1199.43 669.554 1200.96 674.897 1201.9C676.449 1195.5 701.826 1091.15 703.494 1084.32C694.631 1082.49 670.658 1078.14 643.397 1078.9C615.866 1079.61 592.704 1084.96 584.111 1087.19C586.088 1093.94 616.275 1196.94 618.151 1203.31C623.339 1202.1 633.623 1200.1 646.184 1199.77V1199.76Z" fill="#DAD3C5"/>
<path d="M643.411 1079.4C670.113 1078.66 693.658 1082.82 702.885 1084.71C700.414 1094.84 676.846 1191.75 674.521 1201.33C669.018 1200.38 658.529 1198.94 646.172 1199.26L645.685 1199.27V1199.28C633.661 1199.64 623.77 1201.51 618.498 1202.72C615.703 1193.21 587.665 1097.54 584.736 1087.55C593.397 1085.32 615.012 1080.42 640.847 1079.48L643.41 1079.4H643.411Z" stroke="#DAD2C6" stroke-opacity="0.1"/>
</g>
<g opacity="0.2">
<path d="M835.368 1543.11C817.325 1559.17 799.915 1570.16 790.998 1575.38C796.603 1586.61 888.284 1769.65 894.299 1781.66C909.462 1773.43 949.709 1750.18 988.419 1715.52C1027.55 1680.6 1054.68 1644.28 1064.45 1630.39L871.832 1503.41C865.787 1511.56 853.287 1527.16 835.368 1543.11Z" fill="#DAD3C5"/>
<path d="M1063.74 1630.52C1053.89 1644.47 1027.64 1679.49 989.91 1713.51L988.087 1715.15L988.086 1715.15C949.796 1749.43 909.997 1772.54 894.514 1780.97C886.786 1765.54 798.908 1590.09 791.653 1575.58C800.415 1570.42 816.811 1560.02 834.008 1544.98L835.7 1543.48C853.378 1527.75 865.789 1512.35 871.949 1504.08L1063.74 1630.52Z" stroke="#DAD2C6" stroke-opacity="0.1"/>
</g>
<g opacity="0.2">
<path d="M708.218 1606.67C684.539 1611.59 663.979 1612.39 653.634 1612.43C652.893 1624.98 640.741 1829.3 639.945 1842.73C657.185 1843.17 703.663 1843.16 754.533 1832.49C805.937 1821.81 847.589 1803.91 862.945 1796.79C856.931 1784.82 765.311 1601.83 759.629 1590.5C750.287 1594.55 731.673 1601.81 708.21 1606.67L708.218 1606.67Z" fill="#DAD3C5"/>
<path d="M759.392 1591.14C766.721 1605.77 854.538 1781.16 862.266 1796.55C846.811 1803.69 806.567 1820.89 756.832 1831.5L754.432 1832H754.431C704.114 1842.55 658.094 1842.66 640.475 1842.25C641.497 1825 653.144 1629.15 654.104 1612.93C664.614 1612.86 684.95 1612.02 708.319 1607.16L709.227 1606.97L709.216 1606.96C731.939 1602.18 750.018 1595.18 759.392 1591.14Z" stroke="#DAD2C6" stroke-opacity="0.1"/>
</g>
<g opacity="0.2">
<path d="M665.546 836.67C648.291 836.199 601.829 836.215 550.951 846.891C499.547 857.583 457.903 875.492 442.539 882.595C447.318 892.113 506.141 1009.57 532.969 1063.12H652.105C653.942 1032.19 664.797 849.323 665.554 836.67H665.546Z" fill="#DAD3C5"/>
<path d="M551.054 847.38C601.386 836.819 647.397 836.701 665.023 837.157C664.048 853.492 653.528 1030.74 651.634 1062.62H533.278C506.763 1009.69 449.393 895.14 443.218 882.833C458.681 875.712 498.918 858.509 548.652 847.886L551.053 847.38H551.054Z" stroke="#DAD2C6" stroke-opacity="0.1"/>
</g>
<g opacity="0.2">
<path d="M597.288 1072.72C620.944 1067.78 641.535 1067.01 651.872 1066.95C651.911 1066.25 651.988 1064.95 652.096 1063.12H532.961C539.902 1076.97 544.696 1086.55 545.87 1088.88C555.188 1084.86 573.81 1077.59 597.288 1072.72Z" fill="#DAD3C5"/>
<path d="M597.187 1072.23C574.024 1077.03 555.58 1084.17 546.105 1088.24C544.668 1085.38 540.161 1076.37 533.771 1063.62H651.566C651.494 1064.84 651.438 1065.79 651.4 1066.45C641.231 1066.53 621.815 1067.31 599.398 1071.78L597.187 1072.23Z" stroke="#DAD2C6" stroke-opacity="0.1"/>
</g>
<g opacity="0.2">
<path d="M916.169 910.571C901.423 901.531 861.161 878.295 811.827 862.153C761.944 845.702 716.949 840.376 700.087 838.878C699.362 851.214 688.931 1026.57 686.77 1063.12H815.563L916.162 910.571H916.169Z" fill="#DAD3C5"/>
<path d="M700.556 839.422C717.509 840.954 760.935 846.188 809.338 861.865L811.67 862.628H811.671C860.463 878.592 900.377 901.506 915.461 910.724L815.294 1062.62H687.3C689.502 1025.4 699.615 855.359 700.556 839.422Z" stroke="#DAD2C6" stroke-opacity="0.1"/>
</g>
<g opacity="0.2">
<path d="M739.022 1080.88C761.959 1088.44 780.203 1098.04 789.167 1103.15L815.571 1063.12H686.777C686.599 1066.12 686.476 1068.19 686.422 1069.16C696.497 1070.32 716.277 1073.36 739.03 1080.88H739.022Z" fill="#DAD3C5"/>
<path d="M814.642 1063.62L789.005 1102.49C779.886 1097.31 761.819 1087.87 739.186 1080.4L739.187 1080.4C716.74 1072.99 697.182 1069.92 686.948 1068.72C687.007 1067.69 687.11 1065.96 687.249 1063.62H814.642Z" stroke="#DAD2C6" stroke-opacity="0.1"/>
</g>
<g opacity="0.2">
<path d="M1030.41 1005.69C995.482 966.562 959.157 939.45 945.268 929.662L857.27 1063.11H1074.43C1063.12 1045.99 1048.29 1025.64 1030.41 1005.69Z" fill="#DAD3C5"/>
<path d="M945.4 930.368C959.351 940.23 994.363 966.477 1028.4 1004.19L1030.04 1006.02V1006.02C1047.63 1025.65 1062.26 1045.67 1073.5 1062.61H858.198L945.4 930.368Z" stroke="#DAD2C6" stroke-opacity="0.1"/>
</g>
<g opacity="0.2">
<path d="M857.972 1158.72C874.062 1176.74 885.048 1194.19 890.259 1203.09C901.5 1197.46 1084.56 1105.79 1096.55 1099.8C1092.58 1092.45 1085.06 1079.21 1074.42 1063.11H857.262L818.258 1122.27C826.418 1128.33 842.029 1140.83 857.964 1158.71L857.972 1158.72Z" fill="#DAD3C5"/>
<path d="M1074.16 1063.61C1084.48 1079.27 1091.85 1092.19 1095.87 1099.58C1080.46 1107.29 904.989 1195.15 890.452 1202.43C885.139 1193.4 874.224 1176.17 858.345 1158.39L858.336 1158.38L858.325 1158.37C842.608 1140.73 827.207 1128.32 818.934 1122.15L857.531 1063.61H1074.16Z" stroke="#DAD2C6" stroke-opacity="0.1"/>
</g>
<g opacity="0.2">
<path d="M920.809 1281.63C925.727 1305.28 926.515 1325.86 926.569 1336.2C939.115 1336.95 1143.48 1349.07 1156.9 1349.89C1157.35 1332.63 1157.35 1286.16 1146.65 1235.29C1135.96 1183.88 1118.05 1142.27 1110.94 1126.89C1098.97 1132.9 915.968 1224.54 904.635 1230.2C908.673 1239.54 915.953 1258.15 920.801 1281.63L920.809 1281.63Z" fill="#DAD3C5"/>
<path d="M1110.7 1127.57C1117.83 1143.05 1135.03 1183.25 1145.65 1232.99L1146.16 1235.39V1235.4C1156.74 1285.71 1156.85 1331.72 1156.41 1349.36C1139.18 1348.32 943.288 1336.69 927.063 1335.73C926.988 1325.22 926.153 1304.87 921.299 1281.52L921.11 1280.62L921.1 1280.63C916.319 1257.89 909.307 1239.81 905.279 1230.43C919.913 1223.12 1095.3 1135.29 1110.7 1127.57Z" stroke="#DAD2C6" stroke-opacity="0.1"/>
</g>
<g opacity="0.2">
<path d="M684.37 811.681C731.009 814.244 769.89 822.906 789.222 827.916C796.827 804.888 920.718 428.969 928.832 404.32C896.862 394.933 809.983 371.959 709.631 366.686C608.369 361.221 521.652 374.059 489.334 379.756L580.266 816.437C599.691 813.511 638.108 809.157 684.37 811.689V811.681Z" fill="#DAD3C5"/>
<path d="M489.928 380.16C522.105 374.513 606.222 362.148 704.871 366.943L709.604 367.186H709.605C809.388 372.429 895.848 395.183 928.195 404.655C918.789 433.225 797.752 800.478 788.893 827.315C769.39 822.283 730.718 813.728 684.397 811.182L683.87 811.153V811.162C638.168 808.709 600.176 812.955 580.659 815.872L489.928 380.16Z" stroke="#DAD2C6" stroke-opacity="0.1"/>
</g>
<g opacity="0.2">
<path d="M945.368 897.849C984.527 923.401 1013.81 950.335 1028.06 964.354C1046.18 948.189 1341.43 684.63 1360.82 667.284C1337.78 643.183 1274.05 579.843 1189.78 525.149C1104.71 469.706 1023.22 437.476 992.456 426.306C984.373 450.908 860.481 826.665 852.846 849.948C871.151 857.104 906.581 872.551 945.368 897.849Z" fill="#DAD3C5"/>
<path d="M992.769 426.952C1023.39 438.097 1102.39 469.436 1185.52 522.987L1189.5 525.567L1189.5 525.568C1273.3 579.952 1336.78 642.892 1360.1 667.256C1337.64 687.345 1049.18 944.836 1028.08 963.67C1013.92 949.77 985.448 923.647 947.472 898.63L945.642 897.43L943.824 896.25C906.021 871.826 871.628 856.78 853.468 849.655C862.359 822.569 983.39 455.48 992.769 426.952Z" stroke="#DAD2C6" stroke-opacity="0.1"/>
</g>
<g opacity="0.2">
<path d="M125.01 2153.85C210.074 2209.28 291.595 2241.47 322.331 2252.67C330.414 2228.09 454.298 1852.27 461.941 1829.04C443.666 1821.81 408.206 1806.43 369.41 1781.08C330.252 1755.58 300.96 1728.61 286.724 1714.59C268.619 1730.76 -26.552 1994.29 -46 2011.64V2011.66C-22.9774 2035.82 40.7555 2099.15 125.01 2153.85Z" fill="#DAD3C5"/>
<path d="M286.707 1715.28C301.079 1729.4 330.245 1756.17 369.138 1781.5V1781.5C407.662 1806.67 442.899 1822.03 461.317 1829.33C452.421 1856.36 331.398 2223.5 322.017 2252.03C291.422 2240.85 212.393 2209.55 129.265 2156.01L125.282 2153.43V2153.43L121.35 2150.86C39.506 2097.07 -22.3633 2035.7 -45.293 2011.68C-22.8649 1991.66 265.608 1734.12 286.707 1715.28Z" stroke="#DAD2C6" stroke-opacity="0.1"/>
</g>
<g opacity="0.2">
<path d="M2461 1811.82C2412.02 1801.4 1663.92 1641.7 1617.56 1631.89C1607.6 1668.54 1585.29 1739.85 1544.74 1819.68C1503.82 1900.25 1458.15 1962.17 1434.18 1992.46C1469.05 2023.89 2037.24 2536.32 2074.63 2570C2116.15 2520.72 2224.6 2385 2312.17 2211.64C2400.99 2036.6 2445.95 1873.27 2461 1811.82Z" fill="#DAD3C5"/>
<path d="M1617.91 1632.47C1668.37 1643.17 2407.18 1800.88 2460.39 1812.2C2445.35 1873.53 2400.98 2034.35 2313.8 2207.31L2311.72 2211.41V2211.41C2224.41 2384.27 2116.33 2519.68 2074.58 2569.28C2033.98 2532.7 1472.85 2026.64 1434.86 1992.4C1458.54 1962.44 1502.99 1902.12 1543.26 1823.67L1545.18 1819.91C1585.59 1740.37 1607.89 1669.28 1617.91 1632.47Z" stroke="#DAD2C6" stroke-opacity="0.1"/>
</g>
</g>
<defs>
<clipPath id="clip0_2366_8946">
<rect width="2507" height="2570" fill="white" transform="translate(-46)"/>
</clipPath>
</defs>
</svg>
