<svg width="240" height="128" viewBox="0 0 240 128" fill="none" xmlns="http://www.w3.org/2000/svg">
<rect width="240" height="128" rx="6" fill="#BBE0C0"/>
<path d="M84.665 66.2273H86.3923L87.6082 67.8125L88.1821 68.517L90.1196 71.0455H88.3241L87.0286 69.358L86.5855 68.7443L84.665 66.2273ZM90.4946 64.1818C90.4946 65.4242 90.2673 66.4924 89.8127 67.3864C89.3582 68.2765 88.7351 68.9621 87.9434 69.4432C87.1555 69.9205 86.2597 70.1591 85.2559 70.1591C84.2483 70.1591 83.3487 69.9205 82.5571 69.4432C81.7692 68.9621 81.148 68.2746 80.6934 67.3807C80.2389 66.4867 80.0116 65.4205 80.0116 64.1818C80.0116 62.9394 80.2389 61.8731 80.6934 60.983C81.148 60.089 81.7692 59.4034 82.5571 58.9261C83.3487 58.4451 84.2483 58.2045 85.2559 58.2045C86.2597 58.2045 87.1555 58.4451 87.9434 58.9261C88.7351 59.4034 89.3582 60.089 89.8127 60.983C90.2673 61.8731 90.4946 62.9394 90.4946 64.1818ZM88.7559 64.1818C88.7559 63.2348 88.6025 62.4375 88.2957 61.7898C87.9927 61.1383 87.576 60.6458 87.0457 60.3125C86.5192 59.9754 85.9226 59.8068 85.2559 59.8068C84.5855 59.8068 83.987 59.9754 83.4605 60.3125C82.9339 60.6458 82.5173 61.1383 82.2105 61.7898C81.9074 62.4375 81.7559 63.2348 81.7559 64.1818C81.7559 65.1288 81.9074 65.928 82.2105 66.5795C82.5173 67.2273 82.9339 67.7197 83.4605 68.0568C83.987 68.3902 84.5855 68.5568 85.2559 68.5568C85.9226 68.5568 86.5192 68.3902 87.0457 68.0568C87.576 67.7197 87.9927 67.2273 88.2957 66.5795C88.6025 65.928 88.7559 65.1288 88.7559 64.1818ZM99.9904 58.3636H101.752V66.017C101.752 66.8314 101.561 67.553 101.178 68.1818C100.795 68.8068 100.257 69.2992 99.5643 69.6591C98.8711 70.0152 98.0586 70.1932 97.1268 70.1932C96.1988 70.1932 95.3882 70.0152 94.695 69.6591C94.0018 69.2992 93.4639 68.8068 93.0813 68.1818C92.6988 67.553 92.5075 66.8314 92.5075 66.017V58.3636H94.2632V65.875C94.2632 66.4015 94.3787 66.8693 94.6097 67.2784C94.8446 67.6875 95.176 68.0095 95.6041 68.2443C96.0321 68.4754 96.5397 68.5909 97.1268 68.5909C97.7177 68.5909 98.2272 68.4754 98.6552 68.2443C99.087 68.0095 99.4166 67.6875 99.6438 67.2784C99.8749 66.8693 99.9904 66.4015 99.9904 65.875V58.3636ZM104.128 70V58.3636H111.424V59.875H105.884V63.4205H111.043V64.9261H105.884V68.4886H111.492V70H104.128ZM119.94 61.4205C119.879 60.8826 119.629 60.4659 119.19 60.1705C118.75 59.8712 118.197 59.7216 117.53 59.7216C117.053 59.7216 116.64 59.7973 116.292 59.9489C115.943 60.0966 115.673 60.3011 115.479 60.5625C115.29 60.8201 115.195 61.1136 115.195 61.4432C115.195 61.7197 115.26 61.9583 115.388 62.1591C115.521 62.3598 115.693 62.5284 115.905 62.6648C116.121 62.7973 116.352 62.9091 116.599 63C116.845 63.0871 117.082 63.1591 117.309 63.2159L118.445 63.5114C118.816 63.6023 119.197 63.7254 119.587 63.8807C119.977 64.036 120.339 64.2405 120.673 64.4943C121.006 64.7481 121.275 65.0625 121.479 65.4375C121.688 65.8125 121.792 66.2614 121.792 66.7841C121.792 67.4432 121.621 68.0284 121.28 68.5398C120.943 69.0511 120.453 69.4545 119.809 69.75C119.169 70.0455 118.394 70.1932 117.485 70.1932C116.614 70.1932 115.86 70.0549 115.224 69.7784C114.587 69.5019 114.089 69.1098 113.729 68.6023C113.369 68.0909 113.171 67.4848 113.133 66.7841H114.894C114.928 67.2045 115.065 67.5549 115.303 67.8352C115.546 68.1117 115.854 68.3182 116.229 68.4545C116.608 68.5871 117.023 68.6534 117.474 68.6534C117.97 68.6534 118.411 68.5758 118.798 68.4205C119.188 68.2614 119.494 68.0417 119.718 67.7614C119.941 67.4773 120.053 67.1458 120.053 66.767C120.053 66.4223 119.955 66.1402 119.758 65.9205C119.565 65.7008 119.301 65.5189 118.968 65.375C118.638 65.2311 118.265 65.1042 117.849 64.9943L116.474 64.6193C115.542 64.3655 114.803 63.9924 114.258 63.5C113.716 63.0076 113.445 62.3561 113.445 61.5455C113.445 60.875 113.627 60.2898 113.991 59.7898C114.354 59.2898 114.847 58.9015 115.468 58.625C116.089 58.3447 116.79 58.2045 117.57 58.2045C118.358 58.2045 119.053 58.3428 119.655 58.6193C120.262 58.8958 120.739 59.2765 121.087 59.7614C121.436 60.2424 121.618 60.7955 121.633 61.4205H119.94ZM123.14 59.875V58.3636H132.146V59.875H128.515V70H126.765V59.875H123.14ZM135.715 58.3636V70H133.96V58.3636H135.715ZM148.204 64.1818C148.204 65.4242 147.977 66.4924 147.522 67.3864C147.068 68.2765 146.445 68.9621 145.653 69.4432C144.865 69.9205 143.969 70.1591 142.966 70.1591C141.958 70.1591 141.058 69.9205 140.267 69.4432C139.479 68.9621 138.858 68.2746 138.403 67.3807C137.948 66.4867 137.721 65.4205 137.721 64.1818C137.721 62.9394 137.948 61.8731 138.403 60.983C138.858 60.089 139.479 59.4034 140.267 58.9261C141.058 58.4451 141.958 58.2045 142.966 58.2045C143.969 58.2045 144.865 58.4451 145.653 58.9261C146.445 59.4034 147.068 60.089 147.522 60.983C147.977 61.8731 148.204 62.9394 148.204 64.1818ZM146.466 64.1818C146.466 63.2348 146.312 62.4375 146.005 61.7898C145.702 61.1383 145.286 60.6458 144.755 60.3125C144.229 59.9754 143.632 59.8068 142.966 59.8068C142.295 59.8068 141.697 59.9754 141.17 60.3125C140.644 60.6458 140.227 61.1383 139.92 61.7898C139.617 62.4375 139.466 63.2348 139.466 64.1818C139.466 65.1288 139.617 65.928 139.92 66.5795C140.227 67.2273 140.644 67.7197 141.17 68.0568C141.697 68.3902 142.295 68.5568 142.966 68.5568C143.632 68.5568 144.229 68.3902 144.755 68.0568C145.286 67.7197 145.702 67.2273 146.005 66.5795C146.312 65.928 146.466 65.1288 146.466 64.1818ZM159.609 58.3636V70H157.996L152.081 61.4659H151.973V70H150.217V58.3636H151.842L157.763 66.9091H157.871V58.3636H159.609Z" fill="black" fill-opacity="0.8"/>
</svg>
