<svg width="408" height="557" viewBox="0 0 408 557" fill="none" xmlns="http://www.w3.org/2000/svg">
<path d="M392 -6.86062e-07C400.837 -3.07161e-07 408 7.16344 408 16L408 540.028C408 548.865 400.837 556.028 392 556.028L16.233 556.028C7.39646 556.028 0.233008 548.865 0.233008 540.028L0.233032 16C0.233032 7.1634 7.39645 -1.71774e-05 16.233 -1.67985e-05L392 -6.86062e-07Z" fill="white"/>
<path d="M407.5 16L407.5 540.028C407.5 548.589 400.56 555.528 392 555.528L16.2334 555.528C7.67297 555.528 0.733374 548.589 0.733374 540.028L0.733398 16C0.733398 7.43957 7.67296 0.499983 16.2334 0.499983L392 0.499999C400.56 0.500013 407.5 7.4396 407.5 16Z" stroke="black" stroke-opacity="0.2"/>
</svg>
