<svg width="557" height="408" viewBox="0 0 557 408" fill="none" xmlns="http://www.w3.org/2000/svg">
<path d="M557 392C557 400.837 549.837 408 541 408L16.9716 408C8.13501 408 0.971619 400.837 0.97162 392L0.971653 16.233C0.971653 7.39644 8.13511 0.232984 16.9717 0.232985L541 0.233031C549.837 0.233032 557 7.39645 557 16.233L557 392Z" fill="white"/>
<path d="M541 407.5L16.9717 407.5C8.41121 407.5 1.47168 400.56 1.47168 392L1.47171 16.2333C1.47171 7.67294 8.41131 0.73335 16.9717 0.733351L541 0.733397C549.56 0.733398 556.5 7.67296 556.5 16.2334L556.5 392C556.5 400.56 549.56 407.5 541 407.5Z" stroke="black" stroke-opacity="0.2"/>
</svg>
