<svg width="8" height="8" viewBox="0 0 8 8" fill="none" xmlns="http://www.w3.org/2000/svg">
<path d="M7.64649 0.353035C7.84173 0.548276 7.84173 0.864825 7.64649 1.06007L1.06055 7.646C0.865313 7.84125 0.548765 7.84125 0.353523 7.646C0.158282 7.45076 0.158282 7.13421 0.353523 6.93897L6.93946 0.353035C7.1347 0.157794 7.45125 0.157794 7.64649 0.353035ZM7.64649 3.99952C7.84173 4.19476 7.84173 4.51131 7.64649 4.70655L4.70704 7.646C4.5118 7.84124 4.19525 7.84125 4.00001 7.646C3.80477 7.45076 3.80477 7.13421 4.00001 6.93897L6.93946 3.99952C7.1347 3.80428 7.45125 3.80428 7.64649 3.99952Z" fill="#94A3B8"/>
</svg>
