<svg width="240" height="128" viewBox="0 0 240 128" fill="none" xmlns="http://www.w3.org/2000/svg">
<rect width="240" height="128" rx="6" fill="#BBE0C0"/>
<path d="M86.9824 55.0117C88.623 55.0117 89.9766 55.2168 91.043 55.627C92.1185 56.028 92.9206 56.6432 93.4492 57.4727C93.9779 58.3021 94.2422 59.3594 94.2422 60.6445C94.2422 61.7018 94.0508 62.5859 93.668 63.2969C93.2852 63.9987 92.7839 64.5684 92.1641 65.0059C91.5443 65.4434 90.8835 65.7806 90.1816 66.0176L95.6641 75H92.957L88.0625 66.6602H83.9062V75H81.582V55.0117H86.9824ZM86.8457 57.0215H83.9062V64.6914H87.0781C88.7096 64.6914 89.9082 64.3587 90.6738 63.6934C91.4486 63.028 91.8359 62.0482 91.8359 60.7539C91.8359 59.3958 91.4258 58.4342 90.6055 57.8691C89.7943 57.304 88.541 57.0215 86.8457 57.0215ZM111.441 67.4805C111.441 68.7109 111.282 69.8092 110.963 70.7754C110.644 71.7415 110.184 72.5573 109.582 73.2227C108.98 73.888 108.251 74.3984 107.395 74.7539C106.547 75.1003 105.585 75.2734 104.51 75.2734C103.507 75.2734 102.587 75.1003 101.748 74.7539C100.919 74.3984 100.199 73.888 99.5879 73.2227C98.9863 72.5573 98.5169 71.7415 98.1797 70.7754C97.8516 69.8092 97.6875 68.7109 97.6875 67.4805C97.6875 65.8398 97.9655 64.4453 98.5215 63.2969C99.0775 62.1393 99.8704 61.2598 100.9 60.6582C101.939 60.0475 103.174 59.7422 104.605 59.7422C105.973 59.7422 107.167 60.0475 108.188 60.6582C109.217 61.2689 110.015 62.153 110.58 63.3105C111.154 64.459 111.441 65.849 111.441 67.4805ZM100.039 67.4805C100.039 68.6836 100.199 69.7272 100.518 70.6113C100.837 71.4954 101.329 72.179 101.994 72.6621C102.66 73.1452 103.516 73.3867 104.564 73.3867C105.604 73.3867 106.456 73.1452 107.121 72.6621C107.796 72.179 108.292 71.4954 108.611 70.6113C108.93 69.7272 109.09 68.6836 109.09 67.4805C109.09 66.2865 108.93 65.2565 108.611 64.3906C108.292 63.5156 107.8 62.8411 107.135 62.3672C106.469 61.8932 105.608 61.6562 104.551 61.6562C102.992 61.6562 101.848 62.1712 101.119 63.2012C100.399 64.2311 100.039 65.6576 100.039 67.4805ZM117.648 75H115.365V53.7266H117.648V75ZM128.217 59.7422C129.493 59.7422 130.587 60.0247 131.498 60.5898C132.41 61.1549 133.107 61.9479 133.59 62.9688C134.073 63.9805 134.314 65.1654 134.314 66.5234V67.9316H123.965C123.992 69.6908 124.43 71.0306 125.277 71.9512C126.125 72.8717 127.319 73.332 128.859 73.332C129.807 73.332 130.646 73.2454 131.375 73.0723C132.104 72.8991 132.861 72.6439 133.645 72.3066V74.3027C132.888 74.64 132.136 74.8861 131.389 75.041C130.65 75.196 129.775 75.2734 128.764 75.2734C127.324 75.2734 126.066 74.9818 124.99 74.3984C123.924 73.806 123.094 72.9401 122.502 71.8008C121.91 70.6615 121.613 69.2669 121.613 67.6172C121.613 66.0039 121.882 64.6094 122.42 63.4336C122.967 62.2487 123.732 61.3372 124.717 60.6992C125.71 60.0612 126.877 59.7422 128.217 59.7422ZM128.189 61.6016C126.977 61.6016 126.011 61.998 125.291 62.791C124.571 63.584 124.143 64.6914 124.006 66.1133H131.936C131.926 65.2201 131.785 64.4362 131.512 63.7617C131.247 63.0781 130.842 62.5495 130.295 62.1758C129.748 61.793 129.046 61.6016 128.189 61.6016ZM145.785 55.0117H151.445C153.943 55.0117 155.82 55.3854 157.078 56.1328C158.336 56.8802 158.965 58.1517 158.965 59.9473C158.965 60.722 158.814 61.4193 158.514 62.0391C158.222 62.6497 157.794 63.1556 157.229 63.5566C156.663 63.9577 155.966 64.2357 155.137 64.3906V64.5273C156.012 64.6641 156.786 64.9147 157.461 65.2793C158.135 65.6439 158.664 66.1543 159.047 66.8105C159.43 67.4668 159.621 68.3008 159.621 69.3125C159.621 70.543 159.334 71.582 158.76 72.4297C158.195 73.2773 157.393 73.9199 156.354 74.3574C155.314 74.7858 154.084 75 152.662 75H145.785V55.0117ZM148.109 63.584H151.938C153.678 63.584 154.882 63.2969 155.547 62.7227C156.221 62.1484 156.559 61.3099 156.559 60.207C156.559 59.0677 156.158 58.2474 155.355 57.7461C154.562 57.2448 153.296 56.9941 151.555 56.9941H148.109V63.584ZM148.109 65.5391V73.0176H152.266C154.043 73.0176 155.301 72.6712 156.039 71.9785C156.777 71.2767 157.146 70.3333 157.146 69.1484C157.146 68.3919 156.978 67.7448 156.641 67.207C156.312 66.6693 155.775 66.2591 155.027 65.9766C154.289 65.6849 153.3 65.5391 152.061 65.5391H148.109Z" fill="black" fill-opacity="0.6"/>
<path d="M78.8477 76.709H161.139V77.3926H78.8477V76.709Z" fill="black" fill-opacity="0.6"/>
</svg>
