<svg width="240" height="128" viewBox="0 0 240 128" fill="none" xmlns="http://www.w3.org/2000/svg">
<rect width="240" height="128" rx="6" fill="#E4CCFF"/>
<path d="M97.3903 70V58.3636H101.538C102.44 58.3636 103.188 58.5189 103.782 58.8295C104.381 59.1402 104.828 59.5701 105.123 60.1193C105.419 60.6648 105.566 61.2955 105.566 62.0114C105.566 62.7235 105.417 63.3504 105.118 63.892C104.822 64.4299 104.375 64.8485 103.777 65.1477C103.182 65.447 102.434 65.5966 101.532 65.5966H98.3903V64.0852H101.373C101.941 64.0852 102.404 64.0038 102.76 63.8409C103.119 63.678 103.383 63.4413 103.549 63.1307C103.716 62.8201 103.799 62.447 103.799 62.0114C103.799 61.572 103.714 61.1913 103.544 60.8693C103.377 60.5473 103.114 60.3011 102.754 60.1307C102.398 59.9564 101.93 59.8693 101.351 59.8693H99.146V70H97.3903ZM103.135 64.75L106.01 70H104.01L101.191 64.75H103.135ZM110.957 70.1761C110.139 70.1761 109.425 69.9886 108.815 69.6136C108.205 69.2386 107.732 68.714 107.395 68.0398C107.058 67.3655 106.889 66.5777 106.889 65.6761C106.889 64.7708 107.058 63.9792 107.395 63.3011C107.732 62.6231 108.205 62.0966 108.815 61.7216C109.425 61.3466 110.139 61.1591 110.957 61.1591C111.775 61.1591 112.489 61.3466 113.099 61.7216C113.709 62.0966 114.183 62.6231 114.52 63.3011C114.857 63.9792 115.025 64.7708 115.025 65.6761C115.025 66.5777 114.857 67.3655 114.52 68.0398C114.183 68.714 113.709 69.2386 113.099 69.6136C112.489 69.9886 111.775 70.1761 110.957 70.1761ZM110.963 68.75C111.493 68.75 111.933 68.6098 112.281 68.3295C112.63 68.0492 112.887 67.6761 113.054 67.2102C113.224 66.7443 113.309 66.2311 113.309 65.6705C113.309 65.1136 113.224 64.6023 113.054 64.1364C112.887 63.6667 112.63 63.2898 112.281 63.0057C111.933 62.7216 111.493 62.5795 110.963 62.5795C110.429 62.5795 109.986 62.7216 109.633 63.0057C109.285 63.2898 109.025 63.6667 108.855 64.1364C108.688 64.6023 108.605 65.1136 108.605 65.6705C108.605 66.2311 108.688 66.7443 108.855 67.2102C109.025 67.6761 109.285 68.0492 109.633 68.3295C109.986 68.6098 110.429 68.75 110.963 68.75ZM118.445 58.3636V70H116.746V58.3636H118.445ZM124.315 70.1761C123.456 70.1761 122.715 69.9924 122.094 69.625C121.476 69.2538 120.999 68.733 120.662 68.0625C120.329 67.3883 120.162 66.5985 120.162 65.6932C120.162 64.7992 120.329 64.0114 120.662 63.3295C120.999 62.6477 121.469 62.1155 122.071 61.733C122.677 61.3504 123.385 61.1591 124.196 61.1591C124.689 61.1591 125.166 61.2405 125.628 61.4034C126.09 61.5663 126.505 61.822 126.872 62.1705C127.24 62.5189 127.529 62.9716 127.742 63.5284C127.954 64.0814 128.06 64.7538 128.06 65.5455V66.1477H121.122V64.875H126.395C126.395 64.428 126.304 64.0322 126.122 63.6875C125.94 63.339 125.685 63.0644 125.355 62.8636C125.029 62.6629 124.647 62.5625 124.207 62.5625C123.73 62.5625 123.314 62.6799 122.957 62.9148C122.605 63.1458 122.332 63.4489 122.139 63.8239C121.95 64.1951 121.855 64.5985 121.855 65.0341V66.0284C121.855 66.6117 121.957 67.108 122.162 67.517C122.37 67.9261 122.66 68.2386 123.031 68.4545C123.403 68.6667 123.836 68.7727 124.332 68.7727C124.654 68.7727 124.948 68.7273 125.213 68.6364C125.478 68.5417 125.707 68.4015 125.901 68.2159C126.094 68.0303 126.242 67.8011 126.344 67.5284L127.952 67.8182C127.823 68.2917 127.592 68.7064 127.259 69.0625C126.929 69.4148 126.514 69.6894 126.014 69.8864C125.518 70.0795 124.952 70.1761 124.315 70.1761ZM134.946 70H133.083L137.27 58.3636H139.299L143.486 70H141.622L138.333 60.4773H138.242L134.946 70ZM135.259 65.4432H141.304V66.9205H135.259V65.4432Z" fill="black" fill-opacity="0.8"/>
</svg>
