<svg width="240" height="128" viewBox="0 0 240 128" fill="none" xmlns="http://www.w3.org/2000/svg">
<rect width="240" height="128" rx="6" fill="#327798"/>
<path d="M68.4487 61.4205C68.3881 60.8826 68.1381 60.4659 67.6987 60.1705C67.2593 59.8712 66.7063 59.7216 66.0396 59.7216C65.5623 59.7216 65.1494 59.7973 64.801 59.9489C64.4525 60.0966 64.1816 60.3011 63.9885 60.5625C63.7991 60.8201 63.7044 61.1136 63.7044 61.4432C63.7044 61.7197 63.7688 61.9583 63.8976 62.1591C64.0301 62.3598 64.2025 62.5284 64.4146 62.6648C64.6305 62.7973 64.8616 62.9091 65.1078 63C65.354 63.0871 65.5907 63.1591 65.818 63.2159L66.9544 63.5114C67.3256 63.6023 67.7063 63.7254 68.0964 63.8807C68.4866 64.036 68.8483 64.2405 69.1816 64.4943C69.515 64.7481 69.7839 65.0625 69.9885 65.4375C70.1968 65.8125 70.301 66.2614 70.301 66.7841C70.301 67.4432 70.1305 68.0284 69.7896 68.5398C69.4525 69.0511 68.9619 69.4545 68.318 69.75C67.6779 70.0455 66.9032 70.1932 65.9941 70.1932C65.1229 70.1932 64.3691 70.0549 63.7328 69.7784C63.0964 69.5019 62.5983 69.1098 62.2385 68.6023C61.8786 68.0909 61.6797 67.4848 61.6419 66.7841H63.4032C63.4373 67.2045 63.5737 67.5549 63.8123 67.8352C64.0547 68.1117 64.3635 68.3182 64.7385 68.4545C65.1172 68.5871 65.532 68.6534 65.9828 68.6534C66.479 68.6534 66.9203 68.5758 67.3066 68.4205C67.6968 68.2614 68.0036 68.0417 68.2271 67.7614C68.4506 67.4773 68.5623 67.1458 68.5623 66.767C68.5623 66.4223 68.4638 66.1402 68.2669 65.9205C68.0737 65.7008 67.8104 65.5189 67.4771 65.375C67.1476 65.2311 66.7744 65.1042 66.3578 64.9943L64.9828 64.6193C64.051 64.3655 63.3123 63.9924 62.7669 63.5C62.2252 63.0076 61.9544 62.3561 61.9544 61.5455C61.9544 60.875 62.1362 60.2898 62.4998 59.7898C62.8635 59.2898 63.3559 58.9015 63.9771 58.625C64.5983 58.3447 65.2991 58.2045 66.0794 58.2045C66.8672 58.2045 67.5623 58.3428 68.1646 58.6193C68.7707 58.8958 69.2479 59.2765 69.5964 59.7614C69.9449 60.2424 70.1267 60.7955 70.1419 61.4205H68.4487ZM81.8877 62.1477H80.115C80.0468 61.7689 79.9199 61.4356 79.7343 61.1477C79.5487 60.8598 79.3215 60.6155 79.0525 60.4148C78.7836 60.214 78.4824 60.0625 78.1491 59.9602C77.8196 59.858 77.4692 59.8068 77.098 59.8068C76.4275 59.8068 75.8271 59.9754 75.2968 60.3125C74.7703 60.6496 74.3537 61.1439 74.0468 61.7955C73.7438 62.447 73.5923 63.2424 73.5923 64.1818C73.5923 65.1288 73.7438 65.928 74.0468 66.5795C74.3537 67.2311 74.7722 67.7235 75.3025 68.0568C75.8328 68.3902 76.4294 68.5568 77.0923 68.5568C77.4597 68.5568 77.8082 68.5076 78.1377 68.4091C78.4711 68.3068 78.7722 68.1572 79.0412 67.9602C79.3101 67.7633 79.5374 67.5227 79.723 67.2386C79.9124 66.9508 80.043 66.6212 80.115 66.25L81.8877 66.2557C81.7931 66.8277 81.6093 67.3542 81.3366 67.8352C81.0677 68.3125 80.7211 68.7254 80.2968 69.0739C79.8764 69.4186 79.3953 69.6856 78.8537 69.875C78.312 70.0644 77.7211 70.1591 77.0809 70.1591C76.0734 70.1591 75.1756 69.9205 74.3877 69.4432C73.5999 68.9621 72.9787 68.2746 72.5241 67.3807C72.0734 66.4867 71.848 65.4205 71.848 64.1818C71.848 62.9394 72.0752 61.8731 72.5298 60.983C72.9843 60.089 73.6055 59.4034 74.3934 58.9261C75.1813 58.4451 76.0771 58.2045 77.0809 58.2045C77.6984 58.2045 78.2741 58.2936 78.8082 58.4716C79.3461 58.6458 79.829 58.9034 80.2571 59.2443C80.6851 59.5814 81.0393 59.9943 81.3196 60.483C81.5999 60.9678 81.7893 61.5227 81.8877 62.1477ZM83.8126 70V58.3636H91.1081V59.875H85.5683V63.4205H90.7274V64.9261H85.5683V68.4886H91.1762V70H83.8126ZM102.669 58.3636V70H101.056L95.1409 61.4659H95.0329V70H93.2772V58.3636H94.9022L100.823 66.9091H100.931V58.3636H102.669ZM106.037 70H104.174L108.361 58.3636H110.39L114.577 70H112.713L109.424 60.4773H109.333L106.037 70ZM106.35 65.4432H112.395V66.9205H106.35V65.4432ZM116.081 70V58.3636H120.229C121.131 58.3636 121.879 58.5189 122.474 58.8295C123.072 59.1402 123.519 59.5701 123.814 60.1193C124.11 60.6648 124.258 61.2955 124.258 62.0114C124.258 62.7235 124.108 63.3504 123.809 63.892C123.513 64.4299 123.066 64.8485 122.468 65.1477C121.873 65.447 121.125 65.5966 120.224 65.5966H117.081V64.0852H120.064C120.633 64.0852 121.095 64.0038 121.451 63.8409C121.811 63.678 122.074 63.4413 122.241 63.1307C122.407 62.8201 122.491 62.447 122.491 62.0114C122.491 61.572 122.405 61.1913 122.235 60.8693C122.068 60.5473 121.805 60.3011 121.445 60.1307C121.089 59.9564 120.621 59.8693 120.042 59.8693H117.837V70H116.081ZM121.826 64.75L124.701 70H122.701L119.883 64.75H121.826ZM127.974 58.3636V70H126.218V58.3636H127.974ZM140.462 64.1818C140.462 65.4242 140.235 66.4924 139.781 67.3864C139.326 68.2765 138.703 68.9621 137.911 69.4432C137.123 69.9205 136.228 70.1591 135.224 70.1591C134.216 70.1591 133.317 69.9205 132.525 69.4432C131.737 68.9621 131.116 68.2746 130.661 67.3807C130.207 66.4867 129.979 65.4205 129.979 64.1818C129.979 62.9394 130.207 61.8731 130.661 60.983C131.116 60.089 131.737 59.4034 132.525 58.9261C133.317 58.4451 134.216 58.2045 135.224 58.2045C136.228 58.2045 137.123 58.4451 137.911 58.9261C138.703 59.4034 139.326 60.089 139.781 60.983C140.235 61.8731 140.462 62.9394 140.462 64.1818ZM138.724 64.1818C138.724 63.2348 138.57 62.4375 138.264 61.7898C137.961 61.1383 137.544 60.6458 137.014 60.3125C136.487 59.9754 135.89 59.8068 135.224 59.8068C134.553 59.8068 133.955 59.9754 133.428 60.3125C132.902 60.6458 132.485 61.1383 132.178 61.7898C131.875 62.4375 131.724 63.2348 131.724 64.1818C131.724 65.1288 131.875 65.928 132.178 66.5795C132.485 67.2273 132.902 67.7197 133.428 68.0568C133.955 68.3902 134.553 68.5568 135.224 68.5568C135.89 68.5568 136.487 68.3902 137.014 68.0568C137.544 67.7197 137.961 67.2273 138.264 66.5795C138.57 65.928 138.724 65.1288 138.724 64.1818ZM146.375 70V68.7273L150.312 64.6477C150.733 64.2045 151.079 63.8163 151.352 63.483C151.628 63.1458 151.835 62.8258 151.971 62.5227C152.108 62.2197 152.176 61.8977 152.176 61.5568C152.176 61.1705 152.085 60.8371 151.903 60.5568C151.721 60.2727 151.473 60.0549 151.159 59.9034C150.844 59.7481 150.49 59.6705 150.096 59.6705C149.68 59.6705 149.316 59.7557 149.005 59.9261C148.695 60.0966 148.456 60.3371 148.289 60.6477C148.123 60.9583 148.039 61.322 148.039 61.7386H146.363C146.363 61.0303 146.526 60.411 146.852 59.8807C147.178 59.3504 147.625 58.9394 148.193 58.6477C148.761 58.3523 149.407 58.2045 150.13 58.2045C150.861 58.2045 151.505 58.3504 152.062 58.642C152.623 58.9299 153.06 59.3239 153.375 59.8239C153.689 60.3201 153.846 60.8807 153.846 61.5057C153.846 61.9375 153.765 62.3598 153.602 62.7727C153.443 63.1856 153.164 63.6458 152.767 64.1534C152.369 64.6572 151.816 65.2689 151.108 65.9886L148.795 68.4091V68.4943H154.034V70H146.375ZM164.524 57.8182L160.774 71.75H159.257L163.007 57.8182H164.524ZM169.583 67.7273V66.3068L174.611 58.3636H175.73V60.4545H175.02L171.423 66.1477V66.2386H178.316V67.7273H169.583ZM175.1 70V67.2955L175.111 66.6477V58.3636H176.776V70H175.1Z" fill="white"/>
</svg>
