<svg width="240" height="128" viewBox="0 0 240 128" fill="none" xmlns="http://www.w3.org/2000/svg">
<rect width="240" height="128" rx="6" fill="#005680" fill-opacity="0.8"/>
<path d="M69.5737 61.4205C69.5131 60.8826 69.2631 60.4659 68.8237 60.1705C68.3843 59.8712 67.8313 59.7216 67.1646 59.7216C66.6873 59.7216 66.2744 59.7973 65.926 59.9489C65.5775 60.0966 65.3066 60.3011 65.1135 60.5625C64.9241 60.8201 64.8294 61.1136 64.8294 61.4432C64.8294 61.7197 64.8938 61.9583 65.0226 62.1591C65.1551 62.3598 65.3275 62.5284 65.5396 62.6648C65.7555 62.7973 65.9866 62.9091 66.2328 63C66.479 63.0871 66.7157 63.1591 66.943 63.2159L68.0794 63.5114C68.4506 63.6023 68.8313 63.7254 69.2214 63.8807C69.6116 64.036 69.9733 64.2405 70.3066 64.4943C70.64 64.7481 70.9089 65.0625 71.1135 65.4375C71.3218 65.8125 71.426 66.2614 71.426 66.7841C71.426 67.4432 71.2555 68.0284 70.9146 68.5398C70.5775 69.0511 70.0869 69.4545 69.443 69.75C68.8029 70.0455 68.0282 70.1932 67.1191 70.1932C66.2479 70.1932 65.4941 70.0549 64.8578 69.7784C64.2214 69.5019 63.7233 69.1098 63.3635 68.6023C63.0036 68.0909 62.8047 67.4848 62.7669 66.7841H64.5282C64.5623 67.2045 64.6987 67.5549 64.9373 67.8352C65.1797 68.1117 65.4885 68.3182 65.8635 68.4545C66.2422 68.5871 66.657 68.6534 67.1078 68.6534C67.604 68.6534 68.0453 68.5758 68.4316 68.4205C68.8218 68.2614 69.1286 68.0417 69.3521 67.7614C69.5756 67.4773 69.6873 67.1458 69.6873 66.767C69.6873 66.4223 69.5888 66.1402 69.3919 65.9205C69.1987 65.7008 68.9354 65.5189 68.6021 65.375C68.2726 65.2311 67.8994 65.1042 67.4828 64.9943L66.1078 64.6193C65.176 64.3655 64.4373 63.9924 63.8919 63.5C63.3502 63.0076 63.0794 62.3561 63.0794 61.5455C63.0794 60.875 63.2612 60.2898 63.6248 59.7898C63.9885 59.2898 64.4809 58.9015 65.1021 58.625C65.7233 58.3447 66.4241 58.2045 67.2044 58.2045C67.9922 58.2045 68.6873 58.3428 69.2896 58.6193C69.8957 58.8958 70.3729 59.2765 70.7214 59.7614C71.0699 60.2424 71.2517 60.7955 71.2669 61.4205H69.5737ZM83.0127 62.1477H81.24C81.1718 61.7689 81.0449 61.4356 80.8593 61.1477C80.6737 60.8598 80.4465 60.6155 80.1775 60.4148C79.9086 60.214 79.6074 60.0625 79.2741 59.9602C78.9446 59.858 78.5942 59.8068 78.223 59.8068C77.5525 59.8068 76.9521 59.9754 76.4218 60.3125C75.8953 60.6496 75.4787 61.1439 75.1718 61.7955C74.8688 62.447 74.7173 63.2424 74.7173 64.1818C74.7173 65.1288 74.8688 65.928 75.1718 66.5795C75.4787 67.2311 75.8972 67.7235 76.4275 68.0568C76.9578 68.3902 77.5544 68.5568 78.2173 68.5568C78.5847 68.5568 78.9332 68.5076 79.2627 68.4091C79.5961 68.3068 79.8972 68.1572 80.1662 67.9602C80.4351 67.7633 80.6624 67.5227 80.848 67.2386C81.0374 66.9508 81.168 66.6212 81.24 66.25L83.0127 66.2557C82.9181 66.8277 82.7343 67.3542 82.4616 67.8352C82.1927 68.3125 81.8461 68.7254 81.4218 69.0739C81.0014 69.4186 80.5203 69.6856 79.9787 69.875C79.437 70.0644 78.8461 70.1591 78.2059 70.1591C77.1984 70.1591 76.3006 69.9205 75.5127 69.4432C74.7249 68.9621 74.1037 68.2746 73.6491 67.3807C73.1984 66.4867 72.973 65.4205 72.973 64.1818C72.973 62.9394 73.2002 61.8731 73.6548 60.983C74.1093 60.089 74.7305 59.4034 75.5184 58.9261C76.3063 58.4451 77.2021 58.2045 78.2059 58.2045C78.8234 58.2045 79.3991 58.2936 79.9332 58.4716C80.4711 58.6458 80.954 58.9034 81.3821 59.2443C81.8101 59.5814 82.1643 59.9943 82.4446 60.483C82.7249 60.9678 82.9143 61.5227 83.0127 62.1477ZM84.9376 70V58.3636H92.2331V59.875H86.6933V63.4205H91.8524V64.9261H86.6933V68.4886H92.3012V70H84.9376ZM103.794 58.3636V70H102.181L96.2659 61.4659H96.1579V70H94.4022V58.3636H96.0272L101.948 66.9091H102.056V58.3636H103.794ZM107.162 70H105.299L109.486 58.3636H111.515L115.702 70H113.838L110.549 60.4773H110.458L107.162 70ZM107.475 65.4432H113.52V66.9205H107.475V65.4432ZM117.206 70V58.3636H121.354C122.256 58.3636 123.004 58.5189 123.599 58.8295C124.197 59.1402 124.644 59.5701 124.939 60.1193C125.235 60.6648 125.383 61.2955 125.383 62.0114C125.383 62.7235 125.233 63.3504 124.934 63.892C124.638 64.4299 124.191 64.8485 123.593 65.1477C122.998 65.447 122.25 65.5966 121.349 65.5966H118.206V64.0852H121.189C121.758 64.0852 122.22 64.0038 122.576 63.8409C122.936 63.678 123.199 63.4413 123.366 63.1307C123.532 62.8201 123.616 62.447 123.616 62.0114C123.616 61.572 123.53 61.1913 123.36 60.8693C123.193 60.5473 122.93 60.3011 122.57 60.1307C122.214 59.9564 121.746 59.8693 121.167 59.8693H118.962V70H117.206ZM122.951 64.75L125.826 70H123.826L121.008 64.75H122.951ZM129.099 58.3636V70H127.343V58.3636H129.099ZM141.587 64.1818C141.587 65.4242 141.36 66.4924 140.906 67.3864C140.451 68.2765 139.828 68.9621 139.036 69.4432C138.248 69.9205 137.353 70.1591 136.349 70.1591C135.341 70.1591 134.442 69.9205 133.65 69.4432C132.862 68.9621 132.241 68.2746 131.786 67.3807C131.332 66.4867 131.104 65.4205 131.104 64.1818C131.104 62.9394 131.332 61.8731 131.786 60.983C132.241 60.089 132.862 59.4034 133.65 58.9261C134.442 58.4451 135.341 58.2045 136.349 58.2045C137.353 58.2045 138.248 58.4451 139.036 58.9261C139.828 59.4034 140.451 60.089 140.906 60.983C141.36 61.8731 141.587 62.9394 141.587 64.1818ZM139.849 64.1818C139.849 63.2348 139.695 62.4375 139.389 61.7898C139.086 61.1383 138.669 60.6458 138.139 60.3125C137.612 59.9754 137.015 59.8068 136.349 59.8068C135.678 59.8068 135.08 59.9754 134.553 60.3125C134.027 60.6458 133.61 61.1383 133.303 61.7898C133 62.4375 132.849 63.2348 132.849 64.1818C132.849 65.1288 133 65.928 133.303 66.5795C133.61 67.2273 134.027 67.7197 134.553 68.0568C135.08 68.3902 135.678 68.5568 136.349 68.5568C137.015 68.5568 137.612 68.3902 138.139 68.0568C138.669 67.7197 139.086 67.2273 139.389 66.5795C139.695 65.928 139.849 65.1288 139.849 64.1818ZM151.914 58.3636V70H150.153V60.125H150.085L147.301 61.9432V60.2614L150.204 58.3636H151.914ZM163.399 57.8182L159.649 71.75H158.132L161.882 57.8182H163.399ZM168.458 67.7273V66.3068L173.486 58.3636H174.605V60.4545H173.895L170.298 66.1477V66.2386H177.191V67.7273H168.458ZM173.975 70V67.2955L173.986 66.6477V58.3636H175.651V70H173.975Z" fill="white"/>
</svg>
