<svg width="240" height="128" viewBox="0 0 240 128" fill="none" xmlns="http://www.w3.org/2000/svg">
<rect width="240" height="128" rx="6" fill="#BDE3FF"/>
<path d="M102.336 61.4205C102.276 60.8826 102.026 60.4659 101.586 60.1705C101.147 59.8712 100.594 59.7216 99.9273 59.7216C99.45 59.7216 99.0371 59.7973 98.6886 59.9489C98.3402 60.0966 98.0693 60.3011 97.8761 60.5625C97.6868 60.8201 97.5921 61.1136 97.5921 61.4432C97.5921 61.7197 97.6564 61.9583 97.7852 62.1591C97.9178 62.3598 98.0902 62.5284 98.3023 62.6648C98.5182 62.7973 98.7493 62.9091 98.9955 63C99.2417 63.0871 99.4784 63.1591 99.7057 63.2159L100.842 63.5114C101.213 63.6023 101.594 63.7254 101.984 63.8807C102.374 64.036 102.736 64.2405 103.069 64.4943C103.403 64.7481 103.672 65.0625 103.876 65.4375C104.084 65.8125 104.189 66.2614 104.189 66.7841C104.189 67.4432 104.018 68.0284 103.677 68.5398C103.34 69.0511 102.85 69.4545 102.206 69.75C101.566 70.0455 100.791 70.1932 99.8818 70.1932C99.0106 70.1932 98.2568 70.0549 97.6205 69.7784C96.9841 69.5019 96.486 69.1098 96.1261 68.6023C95.7663 68.0909 95.5674 67.4848 95.5296 66.7841H97.2909C97.325 67.2045 97.4614 67.5549 97.7 67.8352C97.9424 68.1117 98.2511 68.3182 98.6261 68.4545C99.0049 68.5871 99.4197 68.6534 99.8705 68.6534C100.367 68.6534 100.808 68.5758 101.194 68.4205C101.584 68.2614 101.891 68.0417 102.115 67.7614C102.338 67.4773 102.45 67.1458 102.45 66.767C102.45 66.4223 102.352 66.1402 102.155 65.9205C101.961 65.7008 101.698 65.5189 101.365 65.375C101.035 65.2311 100.662 65.1042 100.245 64.9943L98.8705 64.6193C97.9386 64.3655 97.2 63.9924 96.6546 63.5C96.1129 63.0076 95.8421 62.3561 95.8421 61.5455C95.8421 60.875 96.0239 60.2898 96.3875 59.7898C96.7511 59.2898 97.2436 58.9015 97.8648 58.625C98.486 58.3447 99.1868 58.2045 99.9671 58.2045C100.755 58.2045 101.45 58.3428 102.052 58.6193C102.658 58.8958 103.136 59.2765 103.484 59.7614C103.833 60.2424 104.014 60.7955 104.03 61.4205H102.336ZM105.537 59.875V58.3636H114.542V59.875H110.912V70H109.162V59.875H105.537ZM115.964 70H114.101L118.288 58.3636H120.317L124.504 70H122.641L119.351 60.4773H119.26L115.964 70ZM116.277 65.4432H122.322V66.9205H116.277V65.4432ZM126.009 70V58.3636H130.156C131.058 58.3636 131.806 58.5189 132.401 58.8295C132.999 59.1402 133.446 59.5701 133.742 60.1193C134.037 60.6648 134.185 61.2955 134.185 62.0114C134.185 62.7235 134.035 63.3504 133.736 63.892C133.44 64.4299 132.994 64.8485 132.395 65.1477C131.8 65.447 131.052 65.5966 130.151 65.5966H127.009V64.0852H129.992C130.56 64.0852 131.022 64.0038 131.378 63.8409C131.738 63.678 132.001 63.4413 132.168 63.1307C132.334 62.8201 132.418 62.447 132.418 62.0114C132.418 61.572 132.333 61.1913 132.162 60.8693C131.995 60.5473 131.732 60.3011 131.372 60.1307C131.016 59.9564 130.548 59.8693 129.969 59.8693H127.764V70H126.009ZM131.753 64.75L134.628 70H132.628L129.81 64.75H131.753ZM135.571 59.875V58.3636H144.577V59.875H140.946V70H139.196V59.875H135.571Z" fill="black" fill-opacity="0.8"/>
</svg>
