<svg width="240" height="128" viewBox="0 0 240 128" fill="none" xmlns="http://www.w3.org/2000/svg">
<rect width="240" height="128" rx="6" fill="#BDE3FF"/>
<path d="M82.917 61.4205C82.8564 60.8826 82.6064 60.4659 82.167 60.1705C81.7276 59.8712 81.1746 59.7216 80.5079 59.7216C80.0306 59.7216 79.6178 59.7973 79.2693 59.9489C78.9208 60.0966 78.65 60.3011 78.4568 60.5625C78.2674 60.8201 78.1727 61.1136 78.1727 61.4432C78.1727 61.7197 78.2371 61.9583 78.3659 62.1591C78.4984 62.3598 78.6708 62.5284 78.8829 62.6648C79.0988 62.7973 79.3299 62.9091 79.5761 63C79.8223 63.0871 80.059 63.1591 80.2863 63.2159L81.4227 63.5114C81.7939 63.6023 82.1746 63.7254 82.5647 63.8807C82.9549 64.036 83.3166 64.2405 83.65 64.4943C83.9833 64.7481 84.2522 65.0625 84.4568 65.4375C84.6651 65.8125 84.7693 66.2614 84.7693 66.7841C84.7693 67.4432 84.5988 68.0284 84.2579 68.5398C83.9208 69.0511 83.4303 69.4545 82.7863 69.75C82.1462 70.0455 81.3715 70.1932 80.4625 70.1932C79.5912 70.1932 78.8375 70.0549 78.2011 69.7784C77.5647 69.5019 77.0666 69.1098 76.7068 68.6023C76.3469 68.0909 76.1481 67.4848 76.1102 66.7841H77.8715C77.9056 67.2045 78.042 67.5549 78.2806 67.8352C78.5231 68.1117 78.8318 68.3182 79.2068 68.4545C79.5856 68.5871 80.0003 68.6534 80.4511 68.6534C80.9473 68.6534 81.3886 68.5758 81.775 68.4205C82.1651 68.2614 82.4719 68.0417 82.6954 67.7614C82.9189 67.4773 83.0306 67.1458 83.0306 66.767C83.0306 66.4223 82.9322 66.1402 82.7352 65.9205C82.542 65.7008 82.2787 65.5189 81.9454 65.375C81.6159 65.2311 81.2428 65.1042 80.8261 64.9943L79.4511 64.6193C78.5193 64.3655 77.7806 63.9924 77.2352 63.5C76.6935 63.0076 76.4227 62.3561 76.4227 61.5455C76.4227 60.875 76.6045 60.2898 76.9681 59.7898C77.3318 59.2898 77.8242 58.9015 78.4454 58.625C79.0666 58.3447 79.7674 58.2045 80.5477 58.2045C81.3356 58.2045 82.0306 58.3428 82.6329 58.6193C83.239 58.8958 83.7162 59.2765 84.0647 59.7614C84.4132 60.2424 84.595 60.7955 84.6102 61.4205H82.917ZM86.1174 59.875V58.3636H95.1231V59.875H91.4924V70H89.7424V59.875H86.1174ZM96.5451 70H94.6815L98.869 58.3636H100.897L105.085 70H103.221L99.9315 60.4773H99.8406L96.5451 70ZM96.8576 65.4432H102.903V66.9205H96.8576V65.4432ZM104.64 59.875V58.3636H113.646V59.875H110.015V70H108.265V59.875H104.64ZM117.216 58.3636V70H115.46V58.3636H117.216ZM125.943 61.4205C125.883 60.8826 125.633 60.4659 125.193 60.1705C124.754 59.8712 124.201 59.7216 123.534 59.7216C123.057 59.7216 122.644 59.7973 122.296 59.9489C121.947 60.0966 121.676 60.3011 121.483 60.5625C121.294 60.8201 121.199 61.1136 121.199 61.4432C121.199 61.7197 121.263 61.9583 121.392 62.1591C121.525 62.3598 121.697 62.5284 121.909 62.6648C122.125 62.7973 122.356 62.9091 122.602 63C122.849 63.0871 123.085 63.1591 123.313 63.2159L124.449 63.5114C124.82 63.6023 125.201 63.7254 125.591 63.8807C125.981 64.036 126.343 64.2405 126.676 64.4943C127.01 64.7481 127.278 65.0625 127.483 65.4375C127.691 65.8125 127.796 66.2614 127.796 66.7841C127.796 67.4432 127.625 68.0284 127.284 68.5398C126.947 69.0511 126.457 69.4545 125.813 69.75C125.172 70.0455 124.398 70.1932 123.489 70.1932C122.617 70.1932 121.864 70.0549 121.227 69.7784C120.591 69.5019 120.093 69.1098 119.733 68.6023C119.373 68.0909 119.174 67.4848 119.136 66.7841H120.898C120.932 67.2045 121.068 67.5549 121.307 67.8352C121.549 68.1117 121.858 68.3182 122.233 68.4545C122.612 68.5871 123.027 68.6534 123.477 68.6534C123.974 68.6534 124.415 68.5758 124.801 68.4205C125.191 68.2614 125.498 68.0417 125.722 67.7614C125.945 67.4773 126.057 67.1458 126.057 66.767C126.057 66.4223 125.958 66.1402 125.761 65.9205C125.568 65.7008 125.305 65.5189 124.972 65.375C124.642 65.2311 124.269 65.1042 123.852 64.9943L122.477 64.6193C121.546 64.3655 120.807 63.9924 120.261 63.5C119.72 63.0076 119.449 62.3561 119.449 61.5455C119.449 60.875 119.631 60.2898 119.994 59.7898C120.358 59.2898 120.85 58.9015 121.472 58.625C122.093 58.3447 122.794 58.2045 123.574 58.2045C124.362 58.2045 125.057 58.3428 125.659 58.6193C126.265 58.8958 126.742 59.2765 127.091 59.7614C127.439 60.2424 127.621 60.7955 127.636 61.4205H125.943ZM129.144 59.875V58.3636H138.149V59.875H134.519V70H132.769V59.875H129.144ZM141.719 58.3636V70H139.963V58.3636H141.719ZM153.765 62.1477H151.992C151.924 61.7689 151.797 61.4356 151.611 61.1477C151.426 60.8598 151.198 60.6155 150.929 60.4148C150.661 60.214 150.359 60.0625 150.026 59.9602C149.697 59.858 149.346 59.8068 148.975 59.8068C148.304 59.8068 147.704 59.9754 147.174 60.3125C146.647 60.6496 146.231 61.1439 145.924 61.7955C145.621 62.447 145.469 63.2424 145.469 64.1818C145.469 65.1288 145.621 65.928 145.924 66.5795C146.231 67.2311 146.649 67.7235 147.179 68.0568C147.71 68.3902 148.306 68.5568 148.969 68.5568C149.337 68.5568 149.685 68.5076 150.015 68.4091C150.348 68.3068 150.649 68.1572 150.918 67.9602C151.187 67.7633 151.414 67.5227 151.6 67.2386C151.789 66.9508 151.92 66.6212 151.992 66.25L153.765 66.2557C153.67 66.8277 153.486 67.3542 153.214 67.8352C152.945 68.3125 152.598 68.7254 152.174 69.0739C151.753 69.4186 151.272 69.6856 150.731 69.875C150.189 70.0644 149.598 70.1591 148.958 70.1591C147.95 70.1591 147.053 69.9205 146.265 69.4432C145.477 68.9621 144.856 68.2746 144.401 67.3807C143.95 66.4867 143.725 65.4205 143.725 64.1818C143.725 62.9394 143.952 61.8731 144.407 60.983C144.861 60.089 145.482 59.4034 146.27 58.9261C147.058 58.4451 147.954 58.2045 148.958 58.2045C149.575 58.2045 150.151 58.2936 150.685 58.4716C151.223 58.6458 151.706 58.9034 152.134 59.2443C152.562 59.5814 152.916 59.9943 153.197 60.483C153.477 60.9678 153.666 61.5227 153.765 62.1477ZM162.036 61.4205C161.976 60.8826 161.726 60.4659 161.286 60.1705C160.847 59.8712 160.294 59.7216 159.627 59.7216C159.15 59.7216 158.737 59.7973 158.388 59.9489C158.04 60.0966 157.769 60.3011 157.576 60.5625C157.387 60.8201 157.292 61.1136 157.292 61.4432C157.292 61.7197 157.356 61.9583 157.485 62.1591C157.618 62.3598 157.79 62.5284 158.002 62.6648C158.218 62.7973 158.449 62.9091 158.695 63C158.941 63.0871 159.178 63.1591 159.405 63.2159L160.542 63.5114C160.913 63.6023 161.294 63.7254 161.684 63.8807C162.074 64.036 162.436 64.2405 162.769 64.4943C163.102 64.7481 163.371 65.0625 163.576 65.4375C163.784 65.8125 163.888 66.2614 163.888 66.7841C163.888 67.4432 163.718 68.0284 163.377 68.5398C163.04 69.0511 162.549 69.4545 161.905 69.75C161.265 70.0455 160.491 70.1932 159.582 70.1932C158.71 70.1932 157.957 70.0549 157.32 69.7784C156.684 69.5019 156.186 69.1098 155.826 68.6023C155.466 68.0909 155.267 67.4848 155.229 66.7841H156.991C157.025 67.2045 157.161 67.5549 157.4 67.8352C157.642 68.1117 157.951 68.3182 158.326 68.4545C158.705 68.5871 159.119 68.6534 159.57 68.6534C160.066 68.6534 160.508 68.5758 160.894 68.4205C161.284 68.2614 161.591 68.0417 161.815 67.7614C162.038 67.4773 162.15 67.1458 162.15 66.767C162.15 66.4223 162.051 66.1402 161.854 65.9205C161.661 65.7008 161.398 65.5189 161.065 65.375C160.735 65.2311 160.362 65.1042 159.945 64.9943L158.57 64.6193C157.638 64.3655 156.9 63.9924 156.354 63.5C155.813 63.0076 155.542 62.3561 155.542 61.5455C155.542 60.875 155.724 60.2898 156.087 59.7898C156.451 59.2898 156.943 58.9015 157.565 58.625C158.186 58.3447 158.887 58.2045 159.667 58.2045C160.455 58.2045 161.15 58.3428 161.752 58.6193C162.358 58.8958 162.835 59.2765 163.184 59.7614C163.532 60.2424 163.714 60.7955 163.729 61.4205H162.036Z" fill="black" fill-opacity="0.8"/>
</svg>
