<svg width="75" height="68" viewBox="0 0 75 68" fill="none" xmlns="http://www.w3.org/2000/svg">
<g opacity="0.2">
<path d="M66.484 14.034C63.5657 8.28278 61.9443 3.0257 61.2109 0.370117L0.875 12.8451C1.94815 17.3303 5.18308 29.3112 11.4753 41.6782C17.7984 54.1841 25.3182 63.6717 28.2288 67.1379C30.8924 64.7679 71.7108 28.4312 74.2277 26.1616C72.5446 24.0464 69.3792 19.7466 66.484 14.034Z" fill="#DAD3C5"/>
<path d="M60.8564 0.953125C61.5947 3.5586 63.0467 8.12277 65.502 13.1807L66.0381 14.2598C68.7923 19.6942 71.7913 23.8568 73.5449 26.0986C69.0203 30.152 33.0566 62.1708 28.2822 66.4199C25.2782 62.8022 18.4558 54.0547 12.5156 42.6113L11.9219 41.4521L11.9209 41.4512L11.3418 40.2979C5.66854 28.8285 2.62392 17.8824 1.4834 13.2295L60.8564 0.953125Z" stroke="#DAD2C6" stroke-opacity="0.1"/>
</g>
</svg>
