<svg width="15" height="19" viewBox="0 0 15 19" fill="none" xmlns="http://www.w3.org/2000/svg">
<g opacity="0.2">
<path d="M0.181556 16.1848C0.853242 16.2157 2.15799 16.3314 3.67893 16.7483C5.22303 17.1574 6.45833 17.7287 7.07598 18.0298C7.48516 17.3119 14.2329 5.62418 14.6653 4.85993C13.6693 4.31955 10.9285 2.95318 7.60869 2.08085C4.28115 1.20081 1.30102 1.0155 0.173828 0.984619V16.1925L0.181556 16.1848Z" fill="#DAD3C5"/>
<path d="M0.673828 1.50513C1.92833 1.5684 4.25769 1.77574 6.87012 2.40942L7.48047 2.5647H7.48145C10.3328 3.31393 12.7539 4.43459 13.9727 5.05981C12.7695 7.15443 8.01966 15.3868 6.87207 17.3811C6.17507 17.0593 5.09863 16.6075 3.81055 16.2659H3.81152C2.54568 15.9189 1.42491 15.7767 0.673828 15.717V1.50513Z" stroke="#DAD2C6" stroke-opacity="0.1"/>
</g>
</svg>
