<svg width="28" height="36" viewBox="0 0 28 36" fill="none" xmlns="http://www.w3.org/2000/svg">
<path d="M0.0855794 31.3113C-0.410856 30.4526 1.36758 27.5212 2.45865 27.5212C6.87747 30.7206 11.46 32.7551 17.068 31.798C21.0341 31.1199 25.3329 27.0454 22.0869 23.1952C18.841 19.3449 3.15693 19.7223 1.76037 13.4876C-1.45283 -0.863297 20.1012 -4.09552 26.7567 5.3988L24.7492 7.79972C20.3467 4.82454 15.235 2.80099 9.99247 5.02143C6.9593 6.3012 5.25178 9.47873 7.06295 12.5469C9.4142 16.5229 26.1566 15.4728 27.7005 23.0256C30.8482 38.4102 8.33404 38.6617 0.0801229 31.3058L0.0855794 31.3113Z" fill="white"/>
</svg>
