<svg width="137" height="146" viewBox="0 0 137 146" fill="none" xmlns="http://www.w3.org/2000/svg">
<g opacity="0.2">
<path d="M110.892 128.687C121.685 122.079 131.714 118.042 136.802 116.181C134.949 109.859 104.762 6.8315 102.778 0.0844727C94.177 2.89445 71.2471 11.139 48.0238 25.4051C24.5611 39.7792 7.18221 55.9906 0.835938 62.2282L88.3558 145.763C92.2469 142.119 100.153 135.249 110.892 128.687Z" fill="#DAD3C5"/>
<path d="M136.19 115.874C131.129 117.745 121.784 121.56 111.644 127.647L110.631 128.26C100.163 134.656 92.379 141.345 88.3604 145.077L1.55566 62.2241C7.96262 55.9603 24.2263 40.908 46.1074 27.1812L48.2852 25.8315C71.0339 11.857 93.5064 3.67102 102.443 0.722168C105.379 10.7189 133.418 106.414 136.19 115.874Z" stroke="#DAD2C6" stroke-opacity="0.1"/>
</g>
</svg>
