<svg width="95" height="116" viewBox="0 0 95 116" fill="none" xmlns="http://www.w3.org/2000/svg">
<path d="M92.4139 32.0294C88.8231 35.9123 80.8567 33.5355 79.5954 37.5174C78.2478 41.7676 84.5544 44.4249 86.5717 47.4702C89.9817 52.6116 86.6209 59.354 81.4853 61.6978C70.2363 66.8309 55.9141 53.082 46.1605 58.4049C41.0866 61.1737 41.8343 66.8185 38.186 69.9958C31.5466 75.7809 21.8876 68.2916 16.1604 72.0136C10.4331 75.7355 16.6986 79.5689 18.6871 82.643C21.1193 86.4062 20.3551 92.1047 25.8317 92.7979C33.7734 93.8006 38.6749 82.7998 44.8006 79.3255C52.3931 75.0176 68.2601 76.5237 72.3768 85.2509C77.1221 95.3191 67.3727 114.531 56.1524 115.897C47.7629 116.916 43.9995 110.001 35.2895 111.036C29.854 111.684 25.7414 115.678 20.2442 110.789C13.7117 104.975 17.2902 94.3288 13.3419 88.0114C9.21701 81.4134 -1.1939 83.8603 0.112596 71.9971C1.30817 61.1324 17.2286 57.1629 20.7413 47.3257C23.4365 39.7787 15.8522 34.0142 20.503 24.8042C23.4529 18.9613 30.2114 15.227 36.5878 14.5503C42.2164 13.952 51.7604 15.9945 56.2757 14.1046C62.7917 11.373 61.5427 -0.514969 71.7441 0.017328C80.4541 0.471225 82.2577 7.54788 86.8058 12.5696C87.7302 13.5888 89.7352 14.6741 90.7048 15.6685C94.9324 19.9929 96.9743 27.0985 92.4139 32.0294ZM82.1632 18.0246C83.2191 16.7249 82.6316 13.9891 81.814 12.6357C80.8362 11.014 78.4574 10.4281 76.814 9.40474C74.5954 8.02241 74.4023 6.09954 70.7622 7.19302C65.5403 8.76515 68.7244 13.1721 68.3135 15.8418C68.0095 17.8472 65.339 18.4166 67.7178 21.4289C71.4771 26.1865 73.0136 20.5252 74.9939 19.6958C76.7441 18.9655 80.8239 19.6752 82.1591 18.0246H82.1632ZM53.0094 18.2433C51.5221 18.4909 49.9814 19.0604 50.2321 20.8017C50.5648 23.1165 54.0653 22.0272 55.7621 22.2954C57.3521 22.5471 60.1048 25.0353 61.44 22.1716C63.7079 17.3108 55.7744 17.7853 53.0094 18.2433ZM89.1436 21.9818C87.1468 19.7288 86.5552 21.565 84.9324 21.8333C83.2027 22.1221 78.2478 21.5815 76.9249 22.4522C76.0293 23.0423 76.9989 24.7877 76.9824 25.7739C76.9496 27.5028 76.0704 29.2153 76.74 30.9318C77.7754 33.1105 85.4911 31.8396 87.1961 30.7049C89.5503 29.1369 91.1567 24.2513 89.1436 21.9818ZM36.1728 21.9612C32.4752 22.4728 21.1604 27.1892 26.3946 31.9799C29.6937 35.0004 31.4891 31.5136 33.6872 31.0185C37.3273 30.2015 43.0176 32.2605 43.5804 26.0669C43.9954 21.4908 39.5089 21.499 36.1728 21.9612ZM69.4187 34.5176C70.9758 32.6442 70.9389 28.064 68.4286 26.8674C66.9002 26.6446 66.0292 27.8494 64.4228 28.0558C60.7703 28.522 57.3315 26.9004 53.4326 27.3378C46.8097 28.0846 50.7169 30.7544 47.1589 33.8244C46.5426 34.3567 45.6799 34.5258 45.0964 35.054C42.0028 37.8599 43.753 42.7414 48.3627 42.0482C51.4728 41.5819 52.8861 37.6123 55.7621 36.688C59.7021 35.4213 63.0136 38.5201 67.2289 36.2383C67.4384 36.1269 69.2996 34.662 69.4187 34.5176ZM32.8819 36.8118C31.1111 36.9109 29.0405 38.091 28.5516 39.8942C28.3626 40.5998 28.568 41.4375 28.3626 42.1802C27.9271 43.7441 23.8884 47.4908 28.4406 48.902C32.9928 50.3132 32.1054 47.0369 33.7899 45.1512C34.9567 43.8472 37.923 43.5749 37.4341 40.7319C37.052 38.5078 35.2525 36.6757 32.8819 36.8077V36.8118ZM76.8058 56.7915C79.1682 54.5303 78.3423 49.7561 76.3374 47.4289C72.8863 43.4181 69.3201 47.0369 65.3184 46.1126C63.3874 45.667 62.615 42.8033 59.6693 43.0797C56.7235 43.3562 51.0291 48.3326 52.5041 51.5594C52.7958 52.1989 54.6939 53.7793 55.4581 53.9526C58.9708 54.7614 61.4729 52.3805 64.3858 52.8261C68.4532 53.4492 72.1632 61.2315 76.8058 56.7874V56.7915ZM40.2813 46.29C35.3224 47.0121 36.7028 51.6666 34.2007 53.4038C31.6987 55.141 29.0117 53.705 26.4768 56.7874C25.3798 58.1202 23.9665 61.2191 23.9336 62.9357C23.7898 69.8555 35.84 69.6533 37.9395 63.7609C38.7283 61.5451 38.2887 58.8258 40.2073 56.9607C41.5467 55.6609 45.6511 54.7325 46.3331 53.2099C48.0135 49.4549 44.1063 45.733 40.2854 46.29H40.2813ZM17.6641 59.8987C16.941 60.1174 16.2672 61.3346 15.4619 61.8215C12.6846 63.5051 9.51282 64.5532 7.51199 67.454C6.15618 69.4181 6.28766 72.1456 8.97461 72.583C13.3789 73.301 11.9697 71.5473 13.1776 69.0137C14.7511 65.7044 18.95 66.6824 20.844 64.3345C22.738 61.9866 20.5112 59.0363 17.6682 59.8945L17.6641 59.8987ZM10.2482 79.2801C9.81685 79.4162 9.47995 79.7628 9.54569 80.2456C9.5539 81.5289 11.7314 81.9787 12.5901 82.5687C13.1858 82.9731 13.4488 83.9758 13.913 84.1285C16.3288 84.9249 15.2524 79.9238 12.5572 79.3007C11.8916 79.148 10.8851 79.0696 10.2441 79.2759L10.2482 79.2801ZM48.9009 80.9636C45.0471 81.9952 41.5344 90.351 45.3306 93.4251C48.1819 95.7318 49.2296 92.4596 50.5279 92.0882C52.8492 91.4197 55.2239 92.67 56.9864 89.4969C59.8665 84.3059 53.6544 79.6927 48.9009 80.9677V80.9636ZM67.7671 102.177C71.4976 98.8513 73.1533 88.8985 66.7893 87.5616C62.8985 86.7446 63.6134 88.5478 61.7646 90.578C60.5937 91.8654 57.7136 92.9423 58.0341 95.0715C58.1656 95.9587 59.8377 97.3988 60.302 98.6078C60.8443 100.015 60.7703 103.205 61.325 103.77C62.6767 105.152 66.514 103.291 67.7671 102.173V102.177ZM19.1226 97.6711C19.5704 98.0755 20.6386 98.3313 21.2056 98.1498C23.2886 96.2475 23.3132 93.1776 20.8029 91.6549C18.3666 91.6962 17.6887 96.3755 19.1185 97.667L19.1226 97.6711ZM28.8761 96.1279C33.2229 95.5172 33.9296 101.76 37.3273 102.297C42.3684 103.093 46.2345 96.8871 41.7604 94.1307C39.1474 92.5215 37.4464 94.2628 34.8334 94.4732C32.4382 94.6672 28.8063 92.9011 28.8761 96.1279ZM50.532 97.0439C48.5435 97.4937 47.9806 99.9489 46.5467 101.298C44.891 102.858 41.9576 103.031 42.43 105.808C42.8162 108.069 45.4744 107.81 46.8467 108.412C48.9749 109.345 48.8598 111.482 52.4712 110.962C62.2206 109.555 58.0669 95.3397 50.532 97.0439ZM27.545 99.9241C25.6674 100.196 24.1144 101.967 21.7191 100.741L21.2878 101.071C17.9311 106.229 21.0741 108.259 26.2056 108.503C28.264 108.602 30.955 108.713 32.356 106.852C34.8581 103.531 30.8729 99.4454 27.545 99.9241Z" fill="#005680"/>
</svg>
