<svg width="386" height="939" viewBox="0 0 386 939" fill="none" xmlns="http://www.w3.org/2000/svg">
<g opacity="0.2">
<path d="M1027 180.816C978.02 170.402 229.917 10.7047 183.556 0.885254C173.596 37.5384 151.291 108.853 110.736 188.683C69.8168 269.253 24.15 331.165 0.177734 361.458C35.0513 392.892 603.243 905.319 640.634 939C682.147 889.717 790.597 754.005 878.171 580.636C966.988 405.599 1011.95 242.273 1027 180.816Z" fill="#DAD3C5"/>
<path d="M183.912 1.47217C234.365 12.166 973.179 169.879 1026.39 181.197C1011.35 242.53 966.981 403.346 879.798 576.31L877.725 580.41V580.411C790.409 753.269 682.329 888.685 640.583 938.281C599.98 901.702 38.8499 395.645 0.859375 361.399C24.5439 331.437 68.9856 271.125 109.259 192.674L111.182 188.909C151.59 109.37 173.886 38.2806 183.912 1.47217Z" stroke="#DAD2C6" stroke-opacity="0.1"/>
</g>
</svg>
