<svg width="224" height="253" viewBox="0 0 224 253" fill="none" xmlns="http://www.w3.org/2000/svg">
<g opacity="0.2">
<path d="M69.2179 16.6728C45.5391 21.5902 24.9793 22.3853 14.6338 22.4316C13.8927 34.9762 1.74053 239.302 0.945312 252.734C18.1852 253.166 64.6628 253.158 115.533 242.49C166.937 231.813 208.589 213.911 223.945 206.786C217.931 194.821 126.311 11.8325 120.629 0.5C111.287 4.54513 92.6729 11.8093 69.2102 16.665L69.2179 16.6728Z" fill="#DAD3C5"/>
<path d="M120.392 1.14453C127.721 15.7675 215.538 191.159 223.266 206.548C207.811 213.69 167.567 230.887 117.832 241.495L115.432 242H115.431C65.1137 252.553 19.0936 252.663 1.47461 252.245C2.49675 235 14.1442 39.1522 15.1045 22.9268C25.6143 22.8584 45.9495 22.0154 69.3193 17.1621L70.2266 16.9736L70.2158 16.9629C92.9385 12.1756 111.018 5.17878 120.392 1.14453Z" stroke="#DAD2C6" stroke-opacity="0.1"/>
</g>
</svg>
