<svg width="134" height="146" viewBox="0 0 134 146" fill="none" xmlns="http://www.w3.org/2000/svg">
<g opacity="0.2">
<path d="M26.2831 129.283C37.4161 135.343 45.9396 141.982 50.0855 145.471L133.629 57.945C126.858 51.9236 108.26 36.1677 84.3028 23.214C60.099 10.0596 37.3698 3.11965 28.8155 0.765137C27.1478 7.58164 1.78592 111.875 0.210938 118.336C5.32192 119.888 15.235 123.285 26.2754 129.291L26.2831 129.283Z" fill="#F4EBE1"/>
<path d="M29.1777 1.38623C37.7858 3.78161 58.9534 10.3351 81.8037 22.4409L84.0645 23.6538H84.0654C107.531 36.3418 125.848 51.7286 132.908 57.9761L50.0459 144.787C45.7618 141.212 37.3798 134.753 26.5225 128.843L26.1943 128.666L26.1855 128.673C15.5538 122.928 6.00241 119.597 0.806641 117.997C3.15345 108.36 26.7098 11.4966 29.1777 1.38623Z" stroke="#DAD2C6" stroke-opacity="0.1"/>
</g>
</svg>
