<svg width="71" height="75" viewBox="0 0 71 75" fill="none" xmlns="http://www.w3.org/2000/svg">
<g opacity="0.2">
<path d="M46.6275 0.309937C44.1261 2.56409 3.28449 38.9163 0.605469 41.2862C3.77088 44.6366 12.5646 53.3907 24.2071 60.9715C35.95 68.6449 47.1989 73.1146 51.4529 74.6585C52.5646 71.2541 69.7427 19.3854 70.8082 16.174C68.2836 15.1781 63.3888 13.0398 58.0384 9.53505C52.6418 5.99942 48.5963 2.26303 46.6275 0.317664V0.309937Z" fill="#DAD3C5"/>
<path d="M46.6084 0.995483C48.5559 2.89229 52.107 6.11838 56.7617 9.28357L57.7646 9.95349C62.857 13.2892 67.5397 15.3928 70.1865 16.4613C68.2712 22.2397 53.141 67.9254 51.1396 74.0101C46.73 72.3806 36.454 68.2049 25.5762 61.2601L24.4805 60.5531L24.4795 60.5521L23.4014 59.8412C12.7439 52.7301 4.63206 44.7754 1.32422 41.3148C6.1137 37.0645 42.062 5.06643 46.6084 0.995483Z" stroke="#DAD2C6" stroke-opacity="0.1"/>
</g>
</svg>
