<svg width="75" height="71" viewBox="0 0 75 71" fill="none" xmlns="http://www.w3.org/2000/svg">
<g opacity="0.2">
<path d="M14.2041 24.2085C6.52214 35.9502 2.05192 47.2133 0.507812 51.4514C3.90484 52.5708 55.779 69.7394 59.014 70.797C59.9945 68.2803 62.1485 63.386 65.6459 58.0362C69.1818 52.6402 72.9032 48.5951 74.8487 46.6266C72.6098 44.1254 36.2461 3.29578 33.8682 0.624756C30.5329 3.78984 21.7624 12.5903 14.2041 24.2085Z" fill="#DAD3C5"/>
<path d="M74.166 46.6111C72.2693 48.5599 69.0578 52.1091 65.8965 56.7595L65.2275 57.7625C61.9008 62.8512 59.783 67.5315 58.7246 70.1746C52.9325 68.269 7.23285 53.1452 1.15625 51.1384C2.78661 46.74 6.9627 36.4529 13.9141 25.5769L14.6221 24.4822L14.623 24.4812C21.8846 13.3193 30.273 4.76425 33.8389 1.34351C38.0923 6.12025 70.1228 42.0825 74.166 46.6111Z" stroke="#DAD2C6" stroke-opacity="0.1"/>
</g>
</svg>
