<svg width="1789" height="1844" viewBox="0 0 1789 1844" fill="none" xmlns="http://www.w3.org/2000/svg">
<path opacity="0.2" d="M1158.78 525.149C1243.05 579.843 1306.78 643.183 1329.82 667.284C1310.42 684.63 1015.17 948.189 997.062 964.354C982.802 950.335 953.526 923.401 914.367 897.849C875.587 872.551 840.15 857.104 821.845 849.948C829.48 826.658 953.371 450.908 961.455 426.306C992.221 437.476 1073.71 469.706 1158.78 525.149ZM678.637 366.679C778.988 371.951 865.867 394.925 897.838 404.312C889.723 428.961 765.824 804.888 758.227 827.908C738.895 822.898 700.007 814.237 653.375 811.674C607.114 809.134 568.696 813.488 549.272 816.421L458.339 379.74C490.665 374.051 577.374 361.205 678.637 366.671V366.679ZM0.898438 591.932C25.9592 570.896 94.6101 516.449 185.149 470.501C274.606 424.878 361.323 401.348 393.819 393.451L484.751 830.132C465.465 835.45 427.457 847.347 385.797 868.475C344.469 889.442 313.379 912.431 298 924.667C281.717 906.41 18.1461 611.262 0.898438 591.94V591.932ZM723.531 1832.49C672.661 1843.16 626.191 1843.17 608.943 1842.73C609.731 1829.3 621.883 1624.98 622.632 1612.43C632.977 1612.39 653.537 1611.58 677.216 1606.67C700.679 1601.82 719.293 1594.55 728.635 1590.51C734.317 1601.84 825.936 1784.82 831.951 1796.79C816.595 1803.92 774.942 1821.82 723.539 1832.5L723.531 1832.49ZM957.409 1715.52C918.698 1750.18 878.451 1773.43 863.288 1781.66C857.274 1769.65 765.593 1586.61 759.988 1575.38C768.905 1570.16 786.322 1559.17 804.358 1543.11C822.277 1527.16 834.769 1511.56 840.822 1503.41L1033.44 1630.39C1023.67 1644.28 996.544 1680.61 957.409 1715.52ZM1563.15 971.572C1549.02 935.915 1518.47 865.959 1469.63 790.977C1421.13 716.551 1370.87 662.128 1344.38 635.348C1375.82 600.532 1883.69 37.3867 1916.96 0.555908C1962.21 43.9407 2080.19 163.457 2186.44 326.451C2291.87 487.415 2354.64 647.769 2376.4 708.06L1563.15 971.572Z" stroke="#DAD2C6" stroke-opacity="0.1" stroke-miterlimit="10"/>
</svg>
