<svg width="265" height="108" viewBox="0 0 265 108" fill="none" xmlns="http://www.w3.org/2000/svg">
<g opacity="0.2">
<path d="M34.4932 0.0707155C33.312 10.1681 30.3087 29.9306 22.7966 52.7038C15.2151 75.639 5.61071 93.8498 0.476562 102.843L8.25891 107.977H246.916C259.168 65.3332 263.461 28.6027 264.796 13.75C251.44 12.9472 47.124 0.81952 34.4932 0.0629883V0.0707155Z" fill="#F4EBE1"/>
<path d="M34.9336 0.589355C51.2549 1.56466 247.066 13.1887 264.249 14.2183C262.867 29.3285 258.561 65.5108 246.538 107.477H8.41016L1.14062 102.683C6.17304 93.8271 15.1935 76.6327 22.5537 55.0005L23.2715 52.8608C30.6848 30.3871 33.7132 10.8403 34.9336 0.589355Z" stroke="#DAD2C6" stroke-opacity="0.1"/>
</g>
</svg>
