<svg width="102" height="116" viewBox="0 0 102 116" fill="none" xmlns="http://www.w3.org/2000/svg">
<path d="M68.9655 26.019L73.2938 24.8491C74.1232 19.5497 79.8329 16.5957 84.433 19.7018C85.0729 20.1333 85.949 21.3834 86.4571 21.5356C87.4678 21.837 89.3298 21.4775 90.5162 21.5964C106.665 23.2172 102.979 36.5403 96.0996 46.2955C93.0292 50.649 89.2419 54.3054 85.7348 58.2025C89.2447 61.7152 92.6776 65.2831 95.5503 69.3545C99.6424 75.1517 105.984 85.9054 98.5988 91.6832C91.4335 97.2869 76.6691 93.0026 68.9655 89.9103C67.2051 97.4445 64.1484 108.193 57.9801 113.285C44.8827 124.099 35.7318 99.7596 34.0812 90.1842C31.9473 90.7705 29.9012 91.6611 27.7673 92.2585C19.498 94.5736 4.64294 97.475 2.29754 85.8279C2.13826 85.0397 2.3717 84.149 2.17396 83.4631C2.05861 83.0648 1.36378 82.6112 1.07541 82.0802C-0.838802 78.5537 -0.212631 74.4713 3.07477 72.0927C4.45619 71.0942 6.33745 71.0914 7.05425 70.5687C7.47993 70.2589 10.4707 65.6123 11.2974 64.6083C13.2363 62.2545 15.4773 60.1442 17.6003 57.9619C11.8302 51.8853 1.90756 41.7844 1.13034 33.0637C-0.360935 16.3302 24.5513 21.8924 33.4605 25.972L34.1004 25.9001C35.8966 18.7503 38.0524 10.3643 43.0069 4.71361C56.291 -10.435 67.8752 14.8007 68.9628 26.0135L68.9655 26.019ZM38.2062 27.9496C42.8284 29.5621 47.1594 31.8909 51.5453 34.04L64.7224 27.9689C65.1426 27.3549 63.8902 22.8853 63.6074 21.873C61.5696 14.5601 54.6954 -2.89526 45.6242 8.46412C41.4332 13.7109 39.736 21.5383 38.2007 27.9524L38.2062 27.9496ZM19.0778 53.3042C19.6518 53.8629 20.5279 54.3359 21.0415 55.055L31.2058 46.7657L33.1337 30.7044C27.5394 28.0768 11.0172 23.0291 6.47751 28.5C5.4284 29.764 5.37896 31.4788 5.55473 33.0443C6.21111 38.8775 14.8539 49.1914 19.0778 53.307V53.3042ZM70.097 30.7569L72.1376 47.0285L82.0492 55.0412C82.4804 55.1186 87.6298 49.7667 88.3329 48.9784C92.2025 44.6498 98.4834 36.4657 97.4645 30.3725C96.8384 26.6303 90.7002 25.6567 87.6271 26.1407C86.7647 31.4926 81.0742 34.7149 76.3999 31.3958C75.738 30.9256 74.7219 29.3989 74.038 29.3297L70.0998 30.7569H70.097ZM46.72 36.532L37.3851 32.3805L36.0119 43.4439L46.72 36.532ZM65.9445 32.3833L56.6096 36.6676L67.3149 43.4439L65.9418 32.3805L65.9445 32.3833ZM51.3119 39.3366C45.9482 42.4261 40.5132 45.4685 35.5945 49.2495C35.221 53.3263 34.9985 57.4668 35.1743 61.5713C35.199 62.1605 35.4214 62.6777 35.4571 63.2226C35.5423 64.4561 35.1221 66.3314 35.8499 67.2524C36.4541 68.0158 40.9142 70.7512 42.0731 71.4952C45.2177 73.506 48.4996 75.3481 51.798 77.0933C57.1946 74.0094 62.4896 70.7153 67.4578 66.9592C67.5264 65.9055 67.8093 64.8323 67.878 63.7868C68.1086 60.2908 68.1718 54.4935 67.878 51.0417C67.834 50.53 67.7461 49.6007 67.5319 49.1775C67.1776 48.4778 60.8885 44.4922 59.7158 43.7731C58.5431 43.0539 52.1495 39.2011 51.3146 39.3366H51.3119ZM30.7911 62.6666C30.6235 59.3172 30.9147 55.9207 30.7911 52.5712L24.2053 57.9647L30.6592 63.3553C31.5271 63.4604 30.7993 62.8022 30.7911 62.6666ZM72.2611 52.8478V63.3581L78.8524 57.8319L72.2611 52.8478ZM33.2546 85.7449C32.2851 80.3266 31.6479 74.8502 31.2964 69.3489C28.5088 67.186 25.7021 65.0314 22.9722 62.7966C22.4119 62.3375 21.5468 60.9822 20.8218 61.1731C20.5004 61.2588 16.6336 65.2361 16.0953 65.8418C14.3623 67.789 12.8298 69.9353 11.3386 72.0705C16.9796 76.4517 14.2415 85.543 6.8977 85.2056C6.83179 88.1457 10.3471 89.6586 12.8051 89.9048C19.693 90.5907 26.8363 87.8608 33.2546 85.7422V85.7449ZM70.097 85.7311C77.7978 89.1304 103.756 95.951 96.1161 78.7501C93.1582 72.0871 87.3881 65.9082 82.0602 61.1869L71.7586 69.3517C71.7805 74.8724 70.6463 80.2713 70.097 85.7311ZM46.72 79.6739L36.0119 72.7648L37.3851 84.1048L46.72 79.6739ZM67.3177 72.7648L56.335 79.6739L65.5271 83.8254L67.3177 72.7648ZM64.824 88.2812L51.5261 82.1881L38.3353 88.5108C39.4201 93.9706 41.1256 99.9283 43.9269 104.755C51.4739 117.757 58.0789 108.674 61.7563 99.1068C62.2397 97.8483 65.1536 88.7376 64.824 88.2812Z" fill="#005680"/>
<path d="M51.5973 66.9037C56.4903 66.9037 60.4569 62.9087 60.4569 57.9807C60.4569 53.0526 56.4903 49.0576 51.5973 49.0576C46.7043 49.0576 42.7378 53.0526 42.7378 57.9807C42.7378 62.9087 46.7043 66.9037 51.5973 66.9037Z" fill="#005680"/>
</svg>
