<svg width="19" height="19" viewBox="0 0 19 19" fill="none" xmlns="http://www.w3.org/2000/svg">
<g opacity="0.2">
<path d="M5.09613 18.2362C5.80641 17.8116 17.4876 11.0646 18.2596 10.6245C17.6651 9.67502 15.9743 7.10432 13.5501 4.70349C11.0949 2.25634 8.60124 0.612089 7.65162 0.0253906C7.20383 0.781922 0.471504 12.4618 0.046875 13.1952C0.610473 13.5503 1.66819 14.3145 2.80311 15.4262C3.93802 16.561 4.7255 17.6649 5.10381 18.2362H5.09613Z" fill="#DAD3C5"/>
<path d="M7.82324 0.725586C8.87395 1.40568 10.7896 2.74777 12.7432 4.61523L13.1973 5.05762L13.1982 5.05859C15.2754 7.11573 16.8078 9.30388 17.5557 10.4521C15.4476 11.6658 7.25364 16.4012 5.25 17.5684C4.87552 17.0362 4.31301 16.2933 3.57715 15.5068L3.15625 15.0723L3.15332 15.0693L2.72168 14.6592C1.94958 13.9464 1.23652 13.3997 0.713867 13.0381C1.87201 11.0313 6.61261 2.81198 7.82324 0.725586Z" stroke="#DAD2C6" stroke-opacity="0.1"/>
</g>
</svg>
