<svg width="224" height="228" viewBox="0 0 224 228" fill="none" xmlns="http://www.w3.org/2000/svg">
<g opacity="0.2">
<path d="M223.546 0.670025C206.291 0.199122 159.829 0.214554 108.951 10.8909C57.5474 21.5827 15.9029 39.4924 0.539062 46.5946C5.31807 56.113 64.1407 173.568 90.9695 227.12H210.105C211.942 196.195 222.797 13.3226 223.554 0.670025H223.546Z" fill="#DAD3C5"/>
<path d="M109.054 11.3804C159.386 0.818669 205.397 0.701197 223.023 1.15674C222.048 17.4915 211.528 194.739 209.634 226.62H91.2783C64.7631 173.694 7.3932 59.1403 1.21777 46.8325C16.6806 39.7118 56.9177 22.5088 106.652 11.8862L109.053 11.3804H109.054Z" stroke="#DAD2C6" stroke-opacity="0.1"/>
</g>
</svg>
