<svg width="20" height="19" viewBox="0 0 20 19" fill="none" xmlns="http://www.w3.org/2000/svg">
<g opacity="0.2">
<path d="M14.1458 0.114746C13.4278 0.523891 1.73894 7.2709 0.974609 7.71864C1.57681 8.67589 3.25988 11.2389 5.69956 13.6397C8.14697 16.0714 10.6484 17.7234 11.6135 18.3255C12.0381 17.5381 18.7858 5.86595 19.2027 5.15574C18.6392 4.77747 17.566 4.01318 16.4388 2.89382C15.3194 1.78218 14.5396 0.678285 14.1535 0.114746H14.1458Z" fill="#DAD3C5"/>
<path d="M14.0049 0.772949C14.3785 1.29815 14.9391 2.04112 15.6709 2.8208L16.0869 3.24854C17.0232 4.17826 17.9233 4.86761 18.5391 5.30322C17.3884 7.2864 12.6535 15.4851 11.4395 17.6216C10.377 16.9304 8.45407 15.5838 6.50391 13.7251L6.05176 13.2847L6.0498 13.2837L5.60938 12.8394C3.74297 10.9169 2.37503 8.95811 1.67773 7.88916C3.78073 6.67081 12.0362 1.90566 14.0049 0.772949Z" stroke="#DAD2C6" stroke-opacity="0.1"/>
</g>
</svg>
