<svg width="440" height="463" viewBox="0 0 440 463" fill="none" xmlns="http://www.w3.org/2000/svg">
<g opacity="0.2">
<path d="M195.368 446.681C242.008 449.244 280.888 457.906 300.22 462.916C307.825 439.888 431.716 63.969 439.83 39.32C407.86 29.9328 320.981 6.95896 220.629 1.6864C119.367 -3.77916 32.6501 9.05872 0.332031 14.7559L91.2643 451.437C110.689 448.511 149.106 444.157 195.368 446.689V446.681Z" fill="#DAD3C5"/>
<path d="M0.925781 15.1597C33.1029 9.51273 117.22 -2.85247 215.869 1.94287L220.603 2.18604H220.604C320.386 7.42874 406.846 30.1833 439.193 39.6548C429.787 68.225 308.75 435.478 299.891 462.315C280.388 457.283 241.716 448.728 195.396 446.182L194.868 446.153V446.162C149.166 443.709 111.174 447.955 91.6572 450.872L0.925781 15.1597Z" stroke="#DAD2C6" stroke-opacity="0.1"/>
</g>
</svg>
