<svg width="19" height="15" viewBox="0 0 19 15" fill="none" xmlns="http://www.w3.org/2000/svg">
<g opacity="0.2">
<path d="M4.84804 14.727C5.61237 14.3024 17.2858 7.54769 18.0192 7.13854C17.7027 6.54413 17.1468 5.33982 16.7376 3.82676C16.3361 2.28281 16.1894 0.947308 16.1508 0.260254H0.941406C0.972288 1.40277 1.17303 4.45975 2.06089 7.76379C2.96419 11.091 4.29987 13.762 4.84031 14.7347L4.84804 14.727Z" fill="#DAD3C5"/>
<path d="M15.6885 0.760254C15.7484 1.40959 15.8724 2.32738 16.1113 3.37061L16.2539 3.95264L16.2549 3.95752C16.5933 5.20876 17.0305 6.25487 17.3604 6.93994C16.344 7.52267 13.7674 9.00876 11.1953 10.4937C8.62853 11.9755 6.0647 13.4524 5.03613 14.0415C4.4616 12.937 3.47334 10.8203 2.71484 8.23975L2.54297 7.63232C1.77982 4.79165 1.53257 2.13313 1.46191 0.760254H15.6885Z" stroke="#DAD2C6" stroke-opacity="0.1"/>
</g>
</svg>
