<svg width="36" height="32" viewBox="0 0 36 32" fill="none" xmlns="http://www.w3.org/2000/svg">
<g opacity="0.2">
<path d="M33.9719 15.2917C32.5976 8.21274 30.2351 2.48474 29.2701 0.361816C27.6256 1.16467 2.34089 13.3927 0.789062 14.1415C1.31406 15.4461 2.28684 18.0091 2.91221 21.2282C3.52985 24.5014 3.60706 27.3113 3.59934 28.7318C5.3133 28.8553 33.3156 30.901 35.1686 31.0399C35.2458 28.6623 35.3384 22.2935 33.9719 15.2994V15.2917Z" fill="#DAD3C5"/>
<path d="M29.0205 1.0376C30.0726 3.42974 32.1972 8.80127 33.4717 15.3394V15.3481L33.4814 15.395C34.7475 21.8748 34.7491 27.8192 34.6816 30.5024C30.6229 30.2031 7.91417 28.5436 4.09766 28.2661C4.08614 26.833 3.98319 24.4781 3.51465 21.7515L3.40332 21.1353V21.1333L3.28027 20.5288C2.71524 17.868 1.93849 15.7021 1.4248 14.3892C4.87605 12.7214 25.3804 2.80406 29.0205 1.0376Z" stroke="#DAD2C6" stroke-opacity="0.1"/>
</g>
</svg>
