<svg width="279" height="141" viewBox="0 0 279 141" fill="none" xmlns="http://www.w3.org/2000/svg">
<g opacity="0.2">
<path d="M39.9721 95.7209C56.0617 113.739 67.048 131.185 72.2593 140.086C83.5004 134.458 266.562 42.7946 278.552 36.7964C274.576 29.4472 267.056 16.2079 256.425 0.112305H39.2618L0.257812 59.2685C8.4184 65.3284 24.0292 77.8266 39.9644 95.7132L39.9721 95.7209Z" fill="#DAD3C5"/>
<path d="M256.155 0.612305C266.484 16.2667 273.854 29.1937 277.865 36.5811C262.456 44.2914 86.9887 132.152 72.4521 139.43C67.139 130.395 56.2236 113.17 40.3447 95.3877L40.3359 95.377L40.3252 95.3672C24.6079 77.7277 9.20736 65.3226 0.933594 59.1504L39.5312 0.612305H256.155Z" stroke="#DAD2C6" stroke-opacity="0.1"/>
</g>
</svg>
