<svg width="509" height="539" viewBox="0 0 509 539" fill="none" xmlns="http://www.w3.org/2000/svg">
<g opacity="0.2">
<path d="M93.3684 471.849C132.527 497.401 161.811 524.335 176.063 538.354C194.175 522.189 489.431 258.63 508.817 241.284C485.779 217.183 422.047 153.843 337.777 99.1489C252.712 43.7059 171.222 11.4761 140.456 0.305664C132.373 24.9084 8.4813 400.665 0.845703 423.948C19.1511 431.104 54.5805 446.551 93.3684 471.849Z" fill="#DAD3C5"/>
<path d="M140.769 0.952148C171.39 12.0973 250.391 43.4362 333.521 96.9873L337.504 99.5674L337.505 99.5684C421.296 153.952 484.775 216.892 508.098 241.256C485.637 261.345 197.182 518.836 176.079 537.67C161.919 523.77 133.448 497.647 95.4717 472.63L93.6416 471.43L91.8242 470.25C54.0207 445.826 19.6276 430.78 1.46777 423.655C10.3585 396.569 131.39 29.4801 140.769 0.952148Z" stroke="#DAD2C6" stroke-opacity="0.1"/>
</g>
</svg>
