<svg width="32" height="37" viewBox="0 0 32 37" fill="none" xmlns="http://www.w3.org/2000/svg">
<g opacity="0.2">
<path d="M2.45912 0.103516C2.32015 1.91765 0.289636 29.917 0.173828 31.654C1.53264 31.8238 4.24253 32.2792 7.3539 33.36C10.4884 34.4485 12.9668 35.784 14.1943 36.502L31.9747 10.3244C29.9596 9.05837 24.4858 5.80068 17.7535 3.50021C10.9517 1.15342 4.77528 0.335107 2.46685 0.103516H2.45912Z" fill="#DAD3C5"/>
<path d="M2.91992 0.65625C5.34323 0.926896 10.5266 1.68577 16.332 3.55371L17.5908 3.97266L17.5918 3.97363C23.8311 6.10566 28.9848 9.06991 31.2676 10.4756L14.04 35.8369C12.7909 35.1298 10.6956 34.0443 8.10547 33.0967L7.51758 32.8877C4.68996 31.9055 2.1897 31.4335 0.706055 31.2217C0.975993 27.387 2.62278 4.67222 2.91992 0.65625Z" stroke="#DAD2C6" stroke-opacity="0.1"/>
</g>
</svg>
