<svg width="19" height="19" viewBox="0 0 19 19" fill="none" xmlns="http://www.w3.org/2000/svg">
<g opacity="0.2">
<path d="M16.209 15.5267C17.3284 14.3919 18.4248 13.6045 18.9884 13.2416C18.5869 12.5237 11.8392 0.836029 11.3991 0.0717773C10.4263 0.666195 7.87853 2.35689 5.46201 4.78088C3.0146 7.23574 1.37787 9.72922 0.798828 10.6787C1.55544 11.1265 13.2366 17.8658 13.9623 18.2826C14.3252 17.7191 15.0972 16.646 16.2167 15.5267H16.209Z" fill="#DAD3C5"/>
<path d="M11.2256 0.770996C12.4371 2.87096 17.1841 11.1004 18.3223 13.0874C17.6957 13.5247 16.7816 14.2336 15.8525 15.1753L15.0137 16.0269H15.0625C14.5271 16.6341 14.1051 17.1904 13.8076 17.6167C11.8092 16.4649 3.58244 11.7156 1.49805 10.5054C2.17155 9.45582 3.50739 7.54038 5.37402 5.5874L5.81641 5.13428C7.89392 3.05035 10.0724 1.51425 11.2256 0.770996Z" stroke="#DAD2C6" stroke-opacity="0.1"/>
</g>
</svg>
