<svg width="120" height="126" viewBox="0 0 120 126" fill="none" xmlns="http://www.w3.org/2000/svg">
<g opacity="0.2">
<path d="M62.1823 121.759C74.8517 121.435 85.5524 122.955 90.895 123.897C92.4468 117.498 117.824 13.1502 119.492 6.31829C110.629 4.48872 86.6564 0.142508 59.3952 0.89904C31.8639 1.60925 8.70232 6.95901 0.109375 9.19C2.08583 15.937 32.273 118.941 34.1491 125.31C39.3373 124.098 49.6211 122.099 62.1823 121.767V121.759Z" fill="#DAD3C5"/>
<path d="M59.4092 1.39844C86.1108 0.657444 109.656 4.82408 118.883 6.70508C116.412 16.8428 92.8435 113.748 90.5186 123.325C85.0164 122.377 74.5275 120.943 62.1699 121.259L61.6826 121.271V121.281C49.6587 121.641 39.7682 123.509 34.4961 124.717C31.7011 115.21 3.66294 19.5415 0.734375 9.5459C9.39494 7.32274 31.0098 2.41971 56.8447 1.47852L59.4082 1.39844H59.4092Z" stroke="#DAD2C6" stroke-opacity="0.1"/>
</g>
</svg>
