<svg width="126" height="121" viewBox="0 0 126 121" fill="none" xmlns="http://www.w3.org/2000/svg">
<g opacity="0.2">
<path d="M116.667 0.782227C109.919 2.75847 6.92003 32.9426 0.535156 34.803C1.755 40.0061 3.76231 50.2965 4.07885 62.8487C4.39539 75.5245 2.88989 86.2163 1.95571 91.5584C8.35602 93.1023 112.676 118.485 119.539 120.152C121.377 111.305 125.716 87.3202 124.959 60.0619C124.249 32.5334 118.914 9.38199 116.667 0.782227Z" fill="#DAD3C5"/>
<path d="M116.311 1.40625C118.547 10.0703 123.439 31.6774 124.38 57.5117L124.459 60.0752V60.0762C125.2 86.7747 121.04 110.332 119.152 119.543C108.998 117.075 12.1 93.4987 2.52637 91.1816C3.43687 85.8574 4.79708 75.8686 4.60352 64.0225L4.5791 62.8359C4.27052 50.6001 2.35879 40.5073 1.12695 35.1504C10.6458 32.3707 106.313 4.33499 116.311 1.40625Z" stroke="#DAD2C6" stroke-opacity="0.1"/>
</g>
</svg>
