<svg width="75" height="72" viewBox="0 0 75 72" fill="none" xmlns="http://www.w3.org/2000/svg">
<g opacity="0.2">
<path d="M9.5466 13.7422C6.0106 19.1383 2.28932 23.1834 0.34375 25.152C2.57498 27.6532 38.9309 68.4827 41.332 71.1692C44.6672 67.9886 53.43 59.1959 60.9961 47.5623C68.6703 35.8361 73.1251 24.5807 74.6924 20.3272C71.2954 19.2155 19.3903 2.02376 16.1863 0.973877C15.1826 3.4905 13.0517 8.39246 9.5466 13.7422Z" fill="#DAD3C5"/>
<path d="M16.4717 1.59497C22.2256 3.49084 67.9561 18.634 74.042 20.6379C72.3925 25.0499 68.2296 35.3314 61.2852 46.1946L60.5781 47.2883L60.5771 47.2893C53.3082 58.4661 44.9256 67.0137 41.3594 70.4485C37.0877 65.66 5.05604 29.6888 1.02539 25.1663C2.92211 23.2174 6.13461 19.6692 9.2959 15.0188L9.96484 14.0159C13.3015 8.9232 15.3981 4.23371 16.4717 1.59497Z" stroke="#DAD2C6" stroke-opacity="0.1"/>
</g>
</svg>
