<svg width="462" height="539" viewBox="0 0 462 539" fill="none" xmlns="http://www.w3.org/2000/svg">
<g opacity="0.2">
<path d="M125.01 439.846C210.074 495.281 291.595 527.472 322.331 538.674C330.414 514.086 454.298 138.268 461.941 115.039C443.666 107.813 408.206 92.428 369.41 67.0841C330.252 41.5782 300.96 14.6134 286.724 0.59436C268.619 16.7594 -26.552 280.287 -46 297.641V297.664C-22.9774 321.819 40.7555 385.152 125.01 439.846Z" fill="#DAD3C5"/>
<path d="M286.707 1.27795C301.079 15.4007 330.245 42.1709 369.138 67.5035V67.5026C407.662 92.6689 442.899 108.025 461.317 115.33C452.421 142.36 331.398 509.501 322.017 538.025C291.422 526.849 212.393 495.548 129.265 442.007L125.282 439.427V439.426L121.35 436.858C39.506 383.065 -22.3633 321.702 -45.293 297.679C-22.8649 277.665 265.608 20.1161 286.707 1.27795Z" stroke="#DAD2C6" stroke-opacity="0.1"/>
</g>
</svg>
