<svg width="134" height="116" viewBox="0 0 134 116" fill="none" xmlns="http://www.w3.org/2000/svg">
<path d="M77.567 1.08707C77.7008 0.616732 79.0349 -0.112974 79.5953 0.0147731L132.641 0.113487L133.886 1.19353L133.996 31.2857C133.981 31.9496 133.517 32.4586 132.972 32.7799C115.606 32.958 98.1503 33.0528 80.7548 32.9154C80.3224 32.9115 79.921 33.0935 79.5953 33.0877C79.0911 33.0761 77.5651 32.3812 77.5651 31.8625V18.7007L77.2742 18.4103H69.227V56.1537H77.2742L77.5651 55.8634V42.8951C77.5651 42.2525 78.7304 41.5093 79.3975 41.6274L132.972 41.7841C133.517 42.1054 133.981 42.6145 133.996 43.2784L133.886 73.3705C133.486 74.1796 132.891 74.5551 131.964 74.5493H79.5933C78.9748 74.7177 77.5651 73.8447 77.5651 73.2834V60.3152L77.2742 60.0249H69.227V97.4779L69.5179 97.7683H77.0803C77.3266 97.7683 77.5399 97.1624 77.5748 96.9069C78.077 93.1907 77.0531 88.2511 77.5767 84.5232C77.7163 83.5284 78.3698 83.1258 79.3064 82.9399L132.348 83.0541C133.021 83.0716 133.527 83.54 133.845 84.0761L133.996 114.321C133.967 115.359 132.916 115.941 131.966 115.972H79.5933C79.1028 116.179 77.5651 115.221 77.5651 114.898V101.639C77.2102 101.55 76.8806 101.465 76.5083 101.436C73.5473 101.204 69.5993 101.876 66.8148 101.436C66.4406 101.376 65.3489 100.614 65.3489 100.383V60.3171L65.058 60.0268H56.72L56.4291 60.3171V73.2854C56.4291 73.8467 55.0194 74.7196 54.4008 74.5512H2.03215C1.10527 74.559 0.509978 74.1815 0.110527 73.3725L0 43.2803C0.0155126 42.6164 0.478952 42.1074 1.02383 41.7861L54.5986 41.6293C55.2657 41.5132 56.431 42.2545 56.431 42.8971V55.8653L56.7219 56.1557H65.0599L65.3508 55.8653V15.7973C65.3508 15.4586 66.5356 14.5392 66.8051 14.5392H77.2761L77.567 14.2489V1.08707ZM130.31 3.89363H81.2513V29.2591H130.31V3.89363ZM52.7565 45.3049H3.68813V70.6704H52.7565V45.3049ZM81.2416 45.3049V70.6704H130.31V45.3049H81.2416ZM81.2416 86.7356V112.091H130.31V86.7356H81.2416Z" fill="#005680"/>
</svg>
