<svg width="274" height="279" viewBox="0 0 274 279" fill="none" xmlns="http://www.w3.org/2000/svg">
<g opacity="0.2">
<path d="M44.3679 40.1086C26.325 56.1734 8.91525 67.1585 -0.00195312 72.3847C5.60315 83.6092 97.2844 266.651 103.299 278.655C118.462 270.434 158.709 247.182 197.419 212.521C236.555 177.604 263.677 141.275 273.451 127.388L80.8319 0.406128C74.7867 8.55814 62.2872 24.1597 44.3679 40.1086Z" fill="#DAD3C5"/>
<path d="M272.743 127.52C262.894 141.47 236.639 176.486 198.91 210.512L197.087 212.147L197.086 212.148C158.796 246.433 118.997 269.544 103.514 277.968C95.7865 262.544 7.9076 87.0926 0.65332 72.577C9.41511 67.4189 25.8107 57.0234 43.0078 41.9755L44.7002 40.4823C62.3784 24.748 74.7889 9.35005 80.9492 1.08191L272.743 127.52Z" stroke="#DAD2C6" stroke-opacity="0.1"/>
</g>
</svg>
