<svg width="254" height="224" viewBox="0 0 254 224" fill="none" xmlns="http://www.w3.org/2000/svg">
<g opacity="0.2">
<path d="M16.8092 155.626C21.7272 179.28 22.5147 199.86 22.5687 210.205C35.1145 210.946 239.485 223.074 252.895 223.892C253.351 206.631 253.351 160.158 242.65 109.293C231.957 57.8795 214.053 16.2702 206.943 0.892578C194.968 6.89851 11.9685 98.5392 0.634766 104.198C4.6726 113.539 11.953 132.151 16.8015 155.634L16.8092 155.626Z" fill="#DAD3C5"/>
<path d="M206.703 1.57129C213.832 17.0459 231.031 57.25 241.654 106.994L242.16 109.395V109.396C252.744 159.707 252.848 205.722 252.407 223.361C235.176 222.317 39.2878 210.693 23.0635 209.733C22.9879 199.224 22.1526 178.869 17.2988 155.524L17.1104 154.619L17.0996 154.629C12.3186 131.886 5.30694 113.806 1.2793 104.435C15.913 97.1228 191.305 9.29141 206.703 1.57129Z" stroke="#DAD2C6" stroke-opacity="0.1"/>
</g>
</svg>
