<svg width="39" height="38" viewBox="0 0 39 38" fill="none" xmlns="http://www.w3.org/2000/svg">
<g opacity="0.2">
<path d="M5.51994 31.2678C7.6894 33.7613 9.16403 36.1699 9.8666 37.3973C11.4184 36.6563 36.7031 24.4205 38.3476 23.6177C37.2513 21.5256 34.1399 15.9597 29.4536 10.5868C24.744 5.16757 19.8029 1.36169 17.9268 0.0107422L0.146484 26.1883C1.2428 27.022 3.37363 28.7821 5.51994 31.2601V31.2678Z" fill="#DAD3C5"/>
<path d="M18.0488 0.72168C20.0099 2.16862 24.1147 5.42016 28.1973 9.9248L29.0762 10.915H29.0771C33.419 15.893 36.3986 21.0435 37.6602 23.3936C34.023 25.1593 13.5045 35.0898 10.0654 36.7461C9.30171 35.4499 7.93598 33.3083 6.01953 31.082V31.0732L5.89746 30.9326C3.94545 28.679 2.00633 27.0122 0.823242 26.0811L18.0488 0.72168Z" stroke="#DAD2C6" stroke-opacity="0.1"/>
</g>
</svg>
