<svg width="146" height="137" viewBox="0 0 146 137" fill="none" xmlns="http://www.w3.org/2000/svg">
<g opacity="0.2">
<path d="M120.441 47.4406C106.081 23.9804 89.883 6.5956 83.6217 0.25L0.0625 87.7761C3.69887 91.6668 10.5933 99.5719 17.1557 110.295C23.7645 121.094 27.8023 131.115 29.663 136.21C35.9706 134.372 139.009 104.165 145.78 102.189C142.946 93.6045 134.708 70.6692 120.433 47.4406H120.441Z" fill="#DAD3C5"/>
<path d="M83.625 0.969727C90.043 7.51161 105.597 24.3467 119.543 46.9404H119.539L120.007 47.7021C133.989 70.4538 142.168 92.9296 145.14 101.854C135.108 104.787 39.4127 132.84 29.9697 135.598C28.0976 130.53 24.2841 121.193 18.1963 111.047L17.582 110.033C11.1848 99.5805 4.4731 91.7975 0.748047 87.7803L83.625 0.969727Z" stroke="#DAD2C6" stroke-opacity="0.1"/>
</g>
</svg>
