<svg width="68" height="74" viewBox="0 0 68 74" fill="none" xmlns="http://www.w3.org/2000/svg">
<g opacity="0.2">
<path d="M14.2785 8.00901C8.51902 10.9116 3.26905 12.5482 0.605469 13.2893L13.0896 73.6034C17.5752 72.5303 29.5651 69.3035 41.9103 63.0197C54.4329 56.6895 63.906 49.1782 67.3802 46.2678C65.0023 43.5891 28.6541 2.79046 26.3998 0.266113C24.2843 1.95673 19.9763 5.09868 14.2708 8.00901H14.2785Z" fill="#DAD3C5"/>
<path d="M26.3379 0.94873C30.3892 5.49077 62.4074 41.4304 66.6611 46.2134C63.0369 49.217 54.3025 56.0333 42.8457 61.979L41.6846 62.5737H41.6836C29.8219 68.6115 18.2836 71.8155 13.4736 72.9937L1.18848 13.6411C3.98413 12.8429 9.01372 11.2224 14.5039 8.45557L14.5029 8.45166C19.927 5.68436 24.0943 2.70725 26.3379 0.94873Z" stroke="#DAD2C6" stroke-opacity="0.1"/>
</g>
</svg>
