<svg width="145" height="134" viewBox="0 0 145 134" fill="none" xmlns="http://www.w3.org/2000/svg">
<g opacity="0.2">
<path d="M144.772 84.0102L57.2365 0.475098C51.1913 7.22985 35.4414 25.8343 22.5019 49.7809C9.33837 73.9822 2.38219 96.709 0.0351562 105.262C6.85238 106.922 111.149 132.289 117.619 133.841C119.163 128.746 122.568 118.841 128.582 107.787C134.627 96.6782 141.282 88.1557 144.772 84.0102Z" fill="#DAD3C5"/>
<path d="M144.088 84.0483C140.628 88.1936 134.452 96.178 128.713 106.51L128.143 107.547V107.548C122.281 118.323 118.89 128.008 117.279 133.244C107.648 130.921 10.7703 107.36 0.65625 104.899C3.04543 96.2917 9.61309 75.1269 21.7275 52.2798L22.9414 50.02V50.019C35.6169 26.5612 50.9991 8.2358 57.2666 1.19385L144.088 84.0483Z" stroke="#DAD2C6" stroke-opacity="0.1"/>
</g>
</svg>
