<svg width="64" height="61" viewBox="0 0 64 61" fill="none" xmlns="http://www.w3.org/2000/svg">
<g opacity="0.2">
<path d="M61.6951 34.0719C62.0502 27.6336 63.2469 22.2607 63.9572 19.5974C60.7686 18.5321 8.85579 1.36346 5.46648 0.220947C4.16171 4.64434 0.973164 16.6485 0.231994 30.5054C-0.547779 44.4858 1.21248 56.4668 1.99225 60.9288L62.3281 48.4537C61.9421 45.7672 61.3322 40.4638 61.7028 34.0719H61.6951Z" fill="#DAD3C5"/>
<path d="M5.80176 0.858643C11.885 2.88939 57.6014 18.0123 63.3564 19.925C62.6326 22.7391 61.5346 27.9107 61.1963 34.0442L61.167 34.5715H61.1777C60.8842 40.4238 61.3935 45.3152 61.7695 48.0579L2.39746 60.3333C1.61192 55.6926 0.0858378 44.7027 0.666016 31.8333L0.731445 30.5334V30.5325C1.44355 17.2189 4.42537 5.61698 5.80176 0.858643Z" stroke="#DAD2C6" stroke-opacity="0.1"/>
</g>
</svg>
