<svg width="38" height="39" viewBox="0 0 38 39" fill="none" xmlns="http://www.w3.org/2000/svg">
<g opacity="0.2">
<path d="M27.3894 29.8628C32.8092 25.1383 36.5923 20.2131 37.9666 18.3295L11.7863 0.566406C10.937 1.66261 9.19988 3.77778 6.72159 5.9393C4.22014 8.10081 1.80364 9.583 0.568359 10.2855C1.30953 11.8294 13.5465 37.1038 14.3495 38.7713C16.4495 37.6596 22.0082 34.5641 27.3972 29.8628H27.3894Z" fill="#DAD3C5"/>
<path d="M37.2529 18.4492C35.6845 20.5575 32.0797 25.1111 27.0605 29.4863L26.7051 29.7949C21.8257 33.9816 16.8712 36.8411 14.5713 38.083C12.8033 34.424 2.87942 13.9229 1.21973 10.4844C2.45895 9.75719 4.46163 8.48372 6.57422 6.71973L7.04883 6.31738L7.0498 6.31641C9.30609 4.34852 10.9548 2.41835 11.8906 1.24121L37.2529 18.4492Z" stroke="#DAD2C6" stroke-opacity="0.1"/>
</g>
</svg>
