<svg width="31" height="36" viewBox="0 0 31 36" fill="none" xmlns="http://www.w3.org/2000/svg">
<g opacity="0.2">
<path d="M30.7186 0.740475C28.3639 0.62468 21.9867 0.555138 14.9842 1.92925C7.91992 3.28792 2.16816 5.68108 0.0527344 6.61516C0.855669 8.2749 13.085 33.5415 13.8416 35.1009C15.1232 34.5528 17.6941 33.5879 20.9213 32.9857C24.1793 32.345 27.0051 32.2755 28.4257 32.2909C28.5492 30.5617 30.5951 2.55461 30.7264 0.740475H30.7186Z" fill="#DAD3C5"/>
<path d="M15.0801 2.41943C21.5778 1.14439 27.5373 1.12507 30.1895 1.22119C29.8966 5.24431 28.2385 27.9603 27.9609 31.7905C26.5241 31.7958 24.1575 31.895 21.4385 32.3804L20.8291 32.4946C17.8913 33.0428 15.4899 33.8866 14.085 34.4575C12.4027 30.9848 2.49452 10.512 0.730469 6.8667C2.97271 5.89958 7.82956 3.96047 13.7793 2.68408L15.0791 2.42041L15.0801 2.41943Z" stroke="#DAD2C6" stroke-opacity="0.1"/>
</g>
</svg>
