<svg width="125" height="121" viewBox="0 0 125 121" fill="none" xmlns="http://www.w3.org/2000/svg">
<g opacity="0.2">
<path d="M123.255 29.4651C116.855 27.9212 12.5194 2.55418 5.67132 0.886719C3.83384 9.73351 -0.512839 33.7186 0.243772 60.9615C0.95406 88.5054 6.30442 111.665 8.53565 120.249C15.2679 118.273 118.298 88.0886 124.668 86.2127C123.471 81.0251 121.433 70.7346 121.132 58.1824C120.8 45.5066 122.313 34.8071 123.255 29.4651Z" fill="#DAD3C5"/>
<path d="M6.05762 1.49414C16.1986 3.96202 113.097 27.5206 122.683 29.8398C121.765 35.1645 120.4 45.1611 120.606 57.0088L120.632 58.1953C120.925 70.4312 122.865 80.5238 124.076 85.8643C114.579 88.6557 18.8826 116.692 8.8916 119.623C6.66809 110.97 1.76446 89.3578 0.823242 63.5127L0.743164 60.9482V60.9473L0.6875 58.4082C0.265496 32.7769 4.2295 10.4112 6.05762 1.49414Z" stroke="#DAD2C6" stroke-opacity="0.1"/>
</g>
</svg>
